<svg width="375" height="60" viewBox="0 0 375 60" fill="none" xmlns="http://www.w3.org/2000/svg">
<g clip-path="url(#clip0_22_597)">
<mask id="mask0_22_597" style="mask-type:alpha" maskUnits="userSpaceOnUse" x="79" y="0" width="296" height="60">
<rect x="79" width="296" height="60" fill="url(#paint0_linear_22_597)"/>
</mask>
<g mask="url(#mask0_22_597)">
<path d="M39 4C39 5.10449 38.1055 6 37 6C35.8945 6 35 5.10449 35 4C35 2.89551 35.8945 2 37 2C37.627 2 38.1855 2.28809 38.5527 2.73877C38.6504 2.85889 38.7344 2.99072 38.8027 3.13135C38.873 3.27832 38.9258 3.43506 38.959 3.59912L38.9785 3.71191C38.9922 3.80566 39 3.90186 39 4Z" fill="#2D5F3A" fill-opacity="0.4"/>
<path d="M39 16C39 17.1045 38.1055 18 37 18C36.4141 18 35.8887 17.749 35.5234 17.3491C35.1992 16.9937 35 16.52 35 16C35 14.8955 35.8945 14 37 14C38.1055 14 39 14.8955 39 16Z" fill="#2D5F3A" fill-opacity="0.4"/>
<path d="M50.9336 4.51562C50.8438 4.85156 50.668 5.15283 50.4336 5.39502C50.0703 5.76807 49.5625 6 49 6C47.8945 6 47 5.10449 47 4C47 2.89551 47.8945 2 49 2C50.1055 2 51 2.89551 51 4C51 4.17822 50.9766 4.35107 50.9336 4.51562Z" fill="#2D5F3A" fill-opacity="0.4"/>
<path d="M51 16C51 17.1045 50.1055 18 49 18C47.8945 18 47 17.1045 47 16C47 14.8955 47.8945 14 49 14C49.0801 14 49.1582 14.0044 49.2344 14.0132C49.3125 14.022 49.3887 14.0356 49.4629 14.0532L49.5742 14.0835C49.627 14.0996 49.6797 14.1177 49.7324 14.1382C49.9434 14.2207 50.1348 14.3374 50.3027 14.4814C50.7285 14.8481 51 15.3926 51 16Z" fill="#2D5F3A" fill-opacity="0.4"/>
<path d="M63 4C63 5.10449 62.1055 6 61 6C59.8945 6 59 5.10449 59 4C59 2.89551 59.8945 2 61 2C62.1055 2 63 2.89551 63 4Z" fill="#2D5F3A" fill-opacity="0.4"/>
<path d="M63 16C63 17.1045 62.1055 18 61 18C59.8945 18 59 17.1045 59 16C59 14.8955 59.8945 14 61 14C62.1055 14 63 14.8955 63 16Z" fill="#2D5F3A" fill-opacity="0.4"/>
<path d="M75 4C75 5.10449 74.1055 6 73 6C72.3652 6 71.7988 5.7041 71.4336 5.24268C71.1621 4.90137 71 4.46973 71 4C71 2.89551 71.8945 2 73 2C74.1055 2 75 2.89551 75 4Z" fill="#2D5F3A" fill-opacity="0.4"/>
<path d="M75 16C75 17.1045 74.1055 18 73 18C71.8945 18 71 17.1045 71 16C71 14.8955 71.8945 14 73 14C74.1055 14 75 14.8955 75 16Z" fill="#2D5F3A" fill-opacity="0.4"/>
<path d="M87 4C87 5.10449 86.1055 6 85 6C84.6504 6 84.3203 5.90967 84.0332 5.75146C83.418 5.41113 83 4.75439 83 4C83 3.73975 83.0488 3.49121 83.1387 3.26318C83.4336 2.52344 84.1543 2 85 2C85.5176 2 85.9883 2.1958 86.3438 2.51758C86.7461 2.88379 87 3.41211 87 4Z" fill="#2D5F3A" fill-opacity="0.4"/>
<path d="M87 16C87 17.1045 86.1055 18 85 18C83.8945 18 83 17.1045 83 16C83 14.8955 83.8945 14 85 14C86.1055 14 87 14.8955 87 16Z" fill="#2D5F3A" fill-opacity="0.4"/>
<path d="M99 4C99 5.10449 98.1055 6 97 6C96.334 6 95.7441 5.67432 95.3809 5.17383C95.291 5.0498 95.2148 4.91504 95.1543 4.77148C95.1133 4.6748 95.0801 4.57422 95.0547 4.4707C95.0195 4.31982 95 4.16211 95 4C95 2.89551 95.8945 2 97 2C97.4395 2 97.8457 2.14111 98.1758 2.38037C98.6758 2.74414 99 3.33398 99 4Z" fill="#2D5F3A" fill-opacity="0.4"/>
<path d="M99 16C99 17.1045 98.1055 18 97 18C96.7246 18 96.4629 17.9438 96.2227 17.8428C96.0293 17.7612 95.8516 17.6504 95.6953 17.5156C95.5977 17.4316 95.5078 17.3384 95.4297 17.2373C95.375 17.168 95.3242 17.0947 95.2793 17.0181C95.1016 16.7197 95 16.3716 95 16C95 14.8955 95.8945 14 97 14C98.1055 14 99 14.8955 99 16Z" fill="#2D5F3A" fill-opacity="0.4"/>
<path d="M111 4C111 5.10449 110.105 6 109 6C107.895 6 107 5.10449 107 4C107 2.89551 107.895 2 109 2C109.605 2 110.148 2.26953 110.516 2.69531C110.818 3.04541 111 3.50146 111 4Z" fill="#2D5F3A" fill-opacity="0.4"/>
<path d="M111 16C111 17.1045 110.105 18 109 18C107.895 18 107 17.1045 107 16C107 14.8955 107.895 14 109 14C110.105 14 111 14.8955 111 16Z" fill="#2D5F3A" fill-opacity="0.4"/>
<path d="M123 4C123 5.10449 122.105 6 121 6C119.895 6 119 5.10449 119 4C119 2.89551 119.895 2 121 2C121.391 2 121.756 2.11182 122.064 2.30518C122.234 2.41162 122.387 2.54297 122.516 2.69385L122.566 2.75537C122.617 2.81836 122.662 2.88428 122.705 2.95264C122.893 3.25732 123 3.61572 123 4Z" fill="#2D5F3A" fill-opacity="0.4"/>
<path d="M123 16C123 17.1045 122.105 18 121 18C119.895 18 119 17.1045 119 16C119 14.8955 119.895 14 121 14C121.471 14 121.904 14.1626 122.246 14.4351C122.705 14.8018 123 15.3667 123 16Z" fill="#2D5F3A" fill-opacity="0.4"/>
<path d="M135 4C135 5.10449 134.105 6 133 6C131.895 6 131 5.10449 131 4C131 2.89551 131.895 2 133 2C134.105 2 135 2.89551 135 4Z" fill="#2D5F3A" fill-opacity="0.4"/>
<path d="M135 16C135 17.1045 134.105 18 133 18C131.895 18 131 17.1045 131 16C131 14.8955 131.895 14 133 14C134.105 14 135 14.8955 135 16Z" fill="#2D5F3A" fill-opacity="0.4"/>
<path d="M147 4C147 5.10449 146.105 6 145 6C143.895 6 143 5.10449 143 4C143 2.89551 143.895 2 145 2C146.105 2 147 2.89551 147 4Z" fill="#2D5F3A" fill-opacity="0.4"/>
<path d="M147 16C147 17.1045 146.105 18 145 18C143.895 18 143 17.1045 143 16C143 14.8955 143.895 14 145 14C146.105 14 147 14.8955 147 16Z" fill="#2D5F3A" fill-opacity="0.4"/>
<path d="M159 4C159 5.10449 158.105 6 157 6C156.623 6 156.271 5.89551 155.971 5.71436C155.389 5.36475 155 4.72754 155 4C155 3.36914 155.293 2.80664 155.748 2.44043C156.09 2.16504 156.525 2 157 2C157.504 2 157.963 2.18555 158.314 2.4917C158.572 2.71582 158.771 3.00488 158.887 3.3335C158.959 3.54199 159 3.76611 159 4Z" fill="#2D5F3A" fill-opacity="0.4"/>
<path d="M159 16C159 17.1045 158.105 18 157 18C155.895 18 155 17.1045 155 16C155 14.8955 155.895 14 157 14C158.105 14 159 14.8955 159 16Z" fill="#2D5F3A" fill-opacity="0.4"/>
<path d="M171 4C171 5.10449 170.105 6 169 6C168.342 6 167.758 5.68213 167.393 5.19141C167.146 4.8584 167 4.44629 167 4C167 2.89551 167.895 2 169 2C169.158 2 169.312 2.01855 169.461 2.05322C169.561 2.07715 169.658 2.1084 169.752 2.14648C169.912 2.21143 170.061 2.29639 170.197 2.39844C170.686 2.76318 171 3.34473 171 4Z" fill="#2D5F3A" fill-opacity="0.4"/>
<path d="M171 16C171 17.1045 170.105 18 169 18C168.508 18 168.057 17.8218 167.709 17.5264C167.275 17.1597 167 16.6118 167 16C167 15.4038 167.26 14.8682 167.674 14.5015C168.027 14.1895 168.492 14 169 14C170.105 14 171 14.8955 171 16Z" fill="#2D5F3A" fill-opacity="0.4"/>
<path d="M183 4C183 5.10449 182.105 6 181 6C179.895 6 179 5.10449 179 4C179 3.47217 179.205 2.99219 179.539 2.63477C179.902 2.24414 180.422 2 181 2C181.588 2 182.115 2.25244 182.48 2.65479C182.803 3.01025 183 3.48193 183 4Z" fill="#2D5F3A" fill-opacity="0.4"/>
<path d="M183 16C183 17.1045 182.105 18 181 18C179.895 18 179 17.1045 179 16C179 14.8955 179.895 14 181 14C182.105 14 183 14.8955 183 16Z" fill="#2D5F3A" fill-opacity="0.4"/>
<path d="M195 4C195 5.10449 194.105 6 193 6C191.895 6 191 5.10449 191 4C191 2.89551 191.895 2 193 2C193.398 2 193.77 2.1167 194.082 2.31738C194.291 2.45166 194.473 2.62354 194.617 2.82324C194.857 3.15332 195 3.56006 195 4Z" fill="#2D5F3A" fill-opacity="0.4"/>
<path d="M195 16C195 17.1045 194.105 18 193 18C191.895 18 191 17.1045 191 16C191 14.8955 191.895 14 193 14C193.447 14 193.861 14.147 194.195 14.3955C194.684 14.7603 195 15.3433 195 16Z" fill="#2D5F3A" fill-opacity="0.4"/>
<path d="M207 4C207 5.10449 206.105 6 205 6C203.895 6 203 5.10449 203 4C203 2.89551 203.895 2 205 2C205.554 2 206.055 2.22504 206.417 2.58864C206.465 2.63637 206.51 2.68647 206.553 2.73877C206.65 2.85889 206.734 2.99072 206.803 3.13135C206.825 3.1773 206.845 3.22422 206.863 3.27201C206.952 3.49761 207 3.74316 207 4Z" fill="#2D5F3A" fill-opacity="0.4"/>
<path d="M207 16C207 17.1045 206.105 18 205 18C204.431 18 203.918 17.7627 203.554 17.3817C203.277 17.092 203.086 16.7192 203.023 16.3046C203.008 16.2053 203 16.1035 203 16C203 14.8955 203.895 14 205 14C206.105 14 207 14.8955 207 16Z" fill="#2D5F3A" fill-opacity="0.4"/>
<path d="M218.934 4.51562C218.844 4.85156 218.668 5.15283 218.434 5.39502C218.07 5.76807 217.562 6 217 6C215.895 6 215 5.10449 215 4C215 2.89551 215.895 2 217 2C218.105 2 219 2.89551 219 4C219 4.17822 218.977 4.35107 218.934 4.51562Z" fill="#2D5F3A" fill-opacity="0.4"/>
<path d="M219 16C219 17.1045 218.105 18 217 18C215.895 18 215 17.1045 215 16C215 14.8955 215.895 14 217 14C217.08 14 217.158 14.0044 217.234 14.0132C217.312 14.022 217.389 14.0356 217.463 14.0532L217.574 14.0835C217.627 14.0996 217.68 14.1177 217.732 14.1382C217.943 14.2207 218.135 14.3374 218.303 14.4814C218.729 14.8481 219 15.3926 219 16Z" fill="#2D5F3A" fill-opacity="0.4"/>
<path d="M231 4C231 5.10449 230.105 6 229 6C227.895 6 227 5.10449 227 4C227 2.89551 227.895 2 229 2C230.105 2 231 2.89551 231 4Z" fill="#2D5F3A" fill-opacity="0.4"/>
<path d="M231 16C231 17.1045 230.105 18 229 18C227.895 18 227 17.1045 227 16C227 14.8955 227.895 14 229 14C230.105 14 231 14.8955 231 16Z" fill="#2D5F3A" fill-opacity="0.4"/>
<path d="M243 4C243 5.10449 242.105 6 241 6C240.365 6 239.799 5.7041 239.434 5.24268C239.162 4.90137 239 4.46973 239 4C239 2.89551 239.895 2 241 2C242.105 2 243 2.89551 243 4Z" fill="#2D5F3A" fill-opacity="0.4"/>
<path d="M243 16C243 17.1045 242.105 18 241 18C239.895 18 239 17.1045 239 16C239 14.8955 239.895 14 241 14C242.105 14 243 14.8955 243 16Z" fill="#2D5F3A" fill-opacity="0.4"/>
<path d="M255 4C255 5.10449 254.105 6 253 6C252.65 6 252.32 5.90967 252.033 5.75146C251.418 5.41113 251 4.75439 251 4C251 3.73975 251.049 3.49121 251.139 3.26318C251.434 2.52344 252.154 2 253 2C253.518 2 253.988 2.1958 254.344 2.51758C254.746 2.88379 255 3.41211 255 4Z" fill="#2D5F3A" fill-opacity="0.4"/>
<path d="M255 16C255 17.1045 254.105 18 253 18C251.895 18 251 17.1045 251 16C251 14.8955 251.895 14 253 14C254.105 14 255 14.8955 255 16Z" fill="#2D5F3A" fill-opacity="0.4"/>
<path d="M267 4C267 5.10449 266.105 6 265 6C264.334 6 263.744 5.67432 263.381 5.17383C263.291 5.0498 263.215 4.91504 263.154 4.77148C263.113 4.6748 263.08 4.57422 263.055 4.4707C263.02 4.31982 263 4.16211 263 4C263 2.89551 263.895 2 265 2C265.439 2 265.846 2.14111 266.176 2.38037C266.676 2.74414 267 3.33398 267 4Z" fill="#2D5F3A" fill-opacity="0.4"/>
<path d="M267 16C267 17.1045 266.105 18 265 18C264.725 18 264.463 17.9438 264.223 17.8428C264.029 17.7612 263.852 17.6504 263.695 17.5156C263.598 17.4316 263.508 17.3384 263.43 17.2373C263.375 17.168 263.324 17.0947 263.279 17.0181C263.102 16.7197 263 16.3716 263 16C263 14.8955 263.895 14 265 14C266.105 14 267 14.8955 267 16Z" fill="#2D5F3A" fill-opacity="0.4"/>
<path d="M279 4C279 5.10449 278.105 6 277 6C275.895 6 275 5.10449 275 4C275 2.89551 275.895 2 277 2C277.605 2 278.148 2.26953 278.516 2.69531C278.818 3.04541 279 3.50146 279 4Z" fill="#2D5F3A" fill-opacity="0.4"/>
<path d="M279 16C279 17.1045 278.105 18 277 18C275.895 18 275 17.1045 275 16C275 14.8955 275.895 14 277 14C278.105 14 279 14.8955 279 16Z" fill="#2D5F3A" fill-opacity="0.4"/>
<path d="M291 4C291 5.10449 290.105 6 289 6C287.895 6 287 5.10449 287 4C287 2.89551 287.895 2 289 2C289.391 2 289.756 2.11182 290.064 2.30518C290.234 2.41162 290.387 2.54297 290.516 2.69385L290.566 2.75537C290.617 2.81836 290.662 2.88428 290.705 2.95264C290.893 3.25732 291 3.61572 291 4Z" fill="#2D5F3A" fill-opacity="0.4"/>
<path d="M291 16C291 17.1045 290.105 18 289 18C287.895 18 287 17.1045 287 16C287 14.8955 287.895 14 289 14C289.471 14 289.904 14.1626 290.246 14.4351C290.705 14.8018 291 15.3667 291 16Z" fill="#2D5F3A" fill-opacity="0.4"/>
<path d="M303 4C303 5.10449 302.105 6 301 6C299.895 6 299 5.10449 299 4C299 2.89551 299.895 2 301 2C302.105 2 303 2.89551 303 4Z" fill="#2D5F3A" fill-opacity="0.4"/>
<path d="M303 16C303 17.1045 302.105 18 301 18C299.895 18 299 17.1045 299 16C299 14.8955 299.895 14 301 14C302.105 14 303 14.8955 303 16Z" fill="#2D5F3A" fill-opacity="0.4"/>
<path d="M315 4C315 5.10449 314.105 6 313 6C311.895 6 311 5.10449 311 4C311 2.89551 311.895 2 313 2C314.105 2 315 2.89551 315 4Z" fill="#2D5F3A" fill-opacity="0.4"/>
<path d="M315 16C315 17.1045 314.105 18 313 18C311.895 18 311 17.1045 311 16C311 14.8955 311.895 14 313 14C314.105 14 315 14.8955 315 16Z" fill="#2D5F3A" fill-opacity="0.4"/>
<path d="M327 4C327 5.10449 326.105 6 325 6C324.623 6 324.271 5.89551 323.971 5.71436C323.389 5.36475 323 4.72754 323 4C323 3.36914 323.293 2.80664 323.748 2.44043C324.09 2.16504 324.525 2 325 2C325.504 2 325.963 2.18555 326.314 2.4917C326.572 2.71582 326.771 3.00488 326.887 3.3335C326.959 3.54199 327 3.76611 327 4Z" fill="#2D5F3A" fill-opacity="0.4"/>
<path d="M327 16C327 17.1045 326.105 18 325 18C323.895 18 323 17.1045 323 16C323 14.8955 323.895 14 325 14C326.105 14 327 14.8955 327 16Z" fill="#2D5F3A" fill-opacity="0.4"/>
<path d="M339 4C339 5.10449 338.105 6 337 6C336.342 6 335.758 5.68213 335.393 5.19141C335.146 4.8584 335 4.44629 335 4C335 2.89551 335.895 2 337 2C337.158 2 337.312 2.01855 337.461 2.05322C337.561 2.07715 337.658 2.1084 337.752 2.14648C337.912 2.21143 338.061 2.29639 338.197 2.39844C338.686 2.76318 339 3.34473 339 4Z" fill="#2D5F3A" fill-opacity="0.4"/>
<path d="M339 16C339 17.1045 338.105 18 337 18C336.508 18 336.057 17.8218 335.709 17.5264C335.275 17.1597 335 16.6118 335 16C335 15.4038 335.26 14.8682 335.674 14.5015C336.027 14.1895 336.492 14 337 14C338.105 14 339 14.8955 339 16Z" fill="#2D5F3A" fill-opacity="0.4"/>
<path d="M351 4C351 5.10449 350.105 6 349 6C347.895 6 347 5.10449 347 4C347 3.47217 347.205 2.99219 347.539 2.63477C347.902 2.24414 348.422 2 349 2C349.588 2 350.115 2.25244 350.48 2.65479C350.803 3.01025 351 3.48193 351 4Z" fill="#2D5F3A" fill-opacity="0.4"/>
<path d="M351 16C351 17.1045 350.105 18 349 18C347.895 18 347 17.1045 347 16C347 14.8955 347.895 14 349 14C350.105 14 351 14.8955 351 16Z" fill="#2D5F3A" fill-opacity="0.4"/>
<path d="M363 4C363 5.10449 362.105 6 361 6C359.895 6 359 5.10449 359 4C359 2.89551 359.895 2 361 2C361.398 2 361.77 2.1167 362.082 2.31738C362.291 2.45166 362.473 2.62354 362.617 2.82324C362.857 3.15332 363 3.56006 363 4Z" fill="#2D5F3A" fill-opacity="0.4"/>
<path d="M363 16C363 17.1045 362.105 18 361 18C359.895 18 359 17.1045 359 16C359 14.8955 359.895 14 361 14C361.447 14 361.861 14.147 362.195 14.3955C362.684 14.7603 363 15.3433 363 16Z" fill="#2D5F3A" fill-opacity="0.4"/>
<path d="M375 4C375 5.10449 374.105 6 373 6C371.895 6 371 5.10449 371 4C371 2.89551 371.895 2 373 2C374.105 2 375 2.89551 375 4Z" fill="#2D5F3A" fill-opacity="0.4"/>
<path d="M375 16C375 17.1045 374.105 18 373 18C371.895 18 371 17.1045 371 16C371 14.8955 371.895 14 373 14C374.105 14 375 14.8955 375 16Z" fill="#2D5F3A" fill-opacity="0.4"/>
<path d="M205 30C206.105 30 207 29.1045 207 28C207 27.7432 206.952 27.4976 206.863 27.272C206.845 27.2242 206.825 27.1773 206.803 27.1313C206.734 26.9907 206.65 26.8589 206.553 26.7388C206.51 26.6865 206.465 26.6364 206.417 26.5886C206.055 26.2251 205.554 26 205 26C203.895 26 203 26.8955 203 28C203 29.1045 203.895 30 205 30Z" fill="#2D5F3A" fill-opacity="0.4"/>
<path d="M205 42C206.105 42 207 41.1045 207 40C207 38.8955 206.105 38 205 38C203.895 38 203 38.8955 203 40C203 40.1214 203.011 40.2403 203.032 40.3558C203.112 40.8042 203.342 41.2007 203.668 41.4919C204.021 41.8078 204.487 42 205 42Z" fill="#2D5F3A" fill-opacity="0.4"/>
<path d="M218.434 29.395C218.668 29.1528 218.844 28.8516 218.934 28.5156C218.977 28.3511 219 28.1782 219 28C219 26.8955 218.105 26 217 26C215.895 26 215 26.8955 215 28C215 29.1045 215.895 30 217 30C217.562 30 218.07 29.7681 218.434 29.395Z" fill="#2D5F3A" fill-opacity="0.4"/>
<path d="M217 42C218.105 42 219 41.1045 219 40C219 39.3926 218.729 38.8481 218.303 38.4814C218.135 38.3374 217.943 38.2207 217.732 38.1382C217.707 38.1285 217.682 38.1193 217.658 38.1106C217.63 38.101 217.602 38.092 217.574 38.0835L217.463 38.0532C217.389 38.0356 217.312 38.022 217.234 38.0132C217.158 38.0044 217.08 38 217 38C215.895 38 215 38.8955 215 40C215 41.1045 215.895 42 217 42Z" fill="#2D5F3A" fill-opacity="0.4"/>
<path d="M229 30C230.105 30 231 29.1045 231 28C231 26.8955 230.105 26 229 26C227.895 26 227 26.8955 227 28C227 29.1045 227.895 30 229 30Z" fill="#2D5F3A" fill-opacity="0.4"/>
<path d="M229 42C230.105 42 231 41.1045 231 40C231 38.8955 230.105 38 229 38C227.895 38 227 38.8955 227 40C227 41.1045 227.895 42 229 42Z" fill="#2D5F3A" fill-opacity="0.4"/>
<path d="M241 30C242.105 30 243 29.1045 243 28C243 26.8955 242.105 26 241 26C239.895 26 239 26.8955 239 28C239 28.4697 239.162 28.9014 239.434 29.2427C239.799 29.7041 240.365 30 241 30Z" fill="#2D5F3A" fill-opacity="0.4"/>
<path d="M241 42C242.105 42 243 41.1045 243 40C243 38.8955 242.105 38 241 38C239.895 38 239 38.8955 239 40C239 41.1045 239.895 42 241 42Z" fill="#2D5F3A" fill-opacity="0.4"/>
<path d="M253 30C254.105 30 255 29.1045 255 28C255 27.4121 254.746 26.8838 254.344 26.5176C253.988 26.1958 253.518 26 253 26C252.154 26 251.434 26.5234 251.139 27.2632C251.049 27.4912 251 27.7397 251 28C251 28.7544 251.418 29.4111 252.033 29.7515C252.32 29.9097 252.65 30 253 30Z" fill="#2D5F3A" fill-opacity="0.4"/>
<path d="M253 42C254.105 42 255 41.1045 255 40C255 38.8955 254.105 38 253 38C251.895 38 251 38.8955 251 40C251 41.1045 251.895 42 253 42Z" fill="#2D5F3A" fill-opacity="0.4"/>
<path d="M265 30C266.105 30 267 29.1045 267 28C267 27.334 266.676 26.7441 266.176 26.3804C265.846 26.1411 265.439 26 265 26C263.895 26 263 26.8955 263 28C263 28.1621 263.02 28.3198 263.055 28.4707C263.08 28.5742 263.113 28.6748 263.154 28.7715C263.215 28.915 263.291 29.0498 263.381 29.1738C263.744 29.6743 264.334 30 265 30Z" fill="#2D5F3A" fill-opacity="0.4"/>
<path d="M265 42C266.105 42 267 41.1045 267 40C267 38.8955 266.105 38 265 38C263.895 38 263 38.8955 263 40C263 40.3716 263.102 40.7197 263.279 41.0181C263.324 41.0947 263.375 41.168 263.43 41.2373C263.508 41.3384 263.598 41.4316 263.695 41.5156C263.852 41.6504 264.029 41.7612 264.223 41.8428C264.463 41.9438 264.725 42 265 42Z" fill="#2D5F3A" fill-opacity="0.4"/>
<path d="M277 30C278.105 30 279 29.1045 279 28C279 27.5015 278.818 27.0454 278.516 26.6953C278.148 26.2695 277.605 26 277 26C275.895 26 275 26.8955 275 28C275 29.1045 275.895 30 277 30Z" fill="#2D5F3A" fill-opacity="0.4"/>
<path d="M277 42C278.105 42 279 41.1045 279 40C279 38.8955 278.105 38 277 38C275.895 38 275 38.8955 275 40C275 41.1045 275.895 42 277 42Z" fill="#2D5F3A" fill-opacity="0.4"/>
<path d="M289 30C290.105 30 291 29.1045 291 28C291 27.6157 290.893 27.2573 290.705 26.9526C290.662 26.8843 290.617 26.8184 290.566 26.7554L290.516 26.6938C290.387 26.543 290.234 26.4116 290.064 26.3052C289.756 26.1118 289.391 26 289 26C287.895 26 287 26.8955 287 28C287 29.1045 287.895 30 289 30Z" fill="#2D5F3A" fill-opacity="0.4"/>
<path d="M289 42C290.105 42 291 41.1045 291 40C291 39.3667 290.705 38.8018 290.246 38.4351C289.904 38.1626 289.471 38 289 38C287.895 38 287 38.8955 287 40C287 41.1045 287.895 42 289 42Z" fill="#2D5F3A" fill-opacity="0.4"/>
<path d="M301 30C302.105 30 303 29.1045 303 28C303 26.8955 302.105 26 301 26C299.895 26 299 26.8955 299 28C299 29.1045 299.895 30 301 30Z" fill="#2D5F3A" fill-opacity="0.4"/>
<path d="M301 42C302.105 42 303 41.1045 303 40C303 38.8955 302.105 38 301 38C299.895 38 299 38.8955 299 40C299 41.1045 299.895 42 301 42Z" fill="#2D5F3A" fill-opacity="0.4"/>
<path d="M313 30C314.105 30 315 29.1045 315 28C315 26.8955 314.105 26 313 26C311.895 26 311 26.8955 311 28C311 29.1045 311.895 30 313 30Z" fill="#2D5F3A" fill-opacity="0.4"/>
<path d="M313 42C314.105 42 315 41.1045 315 40C315 38.8955 314.105 38 313 38C311.895 38 311 38.8955 311 40C311 41.1045 311.895 42 313 42Z" fill="#2D5F3A" fill-opacity="0.4"/>
<path d="M325 30C326.105 30 327 29.1045 327 28C327 27.7661 326.959 27.542 326.887 27.3335C326.771 27.0049 326.572 26.7158 326.314 26.4917C325.963 26.1855 325.504 26 325 26C324.525 26 324.09 26.165 323.748 26.4404C323.293 26.8066 323 27.3691 323 28C323 28.7275 323.389 29.3647 323.971 29.7144C324.271 29.8955 324.623 30 325 30Z" fill="#2D5F3A" fill-opacity="0.4"/>
<path d="M325 42C326.105 42 327 41.1045 327 40C327 38.8955 326.105 38 325 38C323.895 38 323 38.8955 323 40C323 41.1045 323.895 42 325 42Z" fill="#2D5F3A" fill-opacity="0.4"/>
<path d="M337 30C338.105 30 339 29.1045 339 28C339 27.3447 338.686 26.7632 338.197 26.3984C338.061 26.2964 337.912 26.2114 337.752 26.1465C337.658 26.1084 337.561 26.0771 337.461 26.0532C337.312 26.0186 337.158 26 337 26C335.895 26 335 26.8955 335 28C335 28.4463 335.146 28.8584 335.393 29.1914C335.758 29.6821 336.342 30 337 30Z" fill="#2D5F3A" fill-opacity="0.4"/>
<path d="M337 42C338.105 42 339 41.1045 339 40C339 38.8955 338.105 38 337 38C336.492 38 336.027 38.1895 335.674 38.5015C335.26 38.8682 335 39.4038 335 40C335 40.6118 335.275 41.1597 335.709 41.5264C336.057 41.8218 336.508 42 337 42Z" fill="#2D5F3A" fill-opacity="0.4"/>
<path d="M349 30C350.105 30 351 29.1045 351 28C351 27.4819 350.803 27.0103 350.48 26.6548C350.115 26.2524 349.588 26 349 26C348.422 26 347.902 26.2441 347.539 26.6348C347.205 26.9922 347 27.4722 347 28C347 29.1045 347.895 30 349 30Z" fill="#2D5F3A" fill-opacity="0.4"/>
<path d="M349 42C350.105 42 351 41.1045 351 40C351 38.8955 350.105 38 349 38C347.895 38 347 38.8955 347 40C347 41.1045 347.895 42 349 42Z" fill="#2D5F3A" fill-opacity="0.4"/>
<path d="M361 30C362.105 30 363 29.1045 363 28C363 27.5601 362.857 27.1533 362.617 26.8232C362.473 26.6235 362.291 26.4517 362.082 26.3174C361.77 26.1167 361.398 26 361 26C359.895 26 359 26.8955 359 28C359 29.1045 359.895 30 361 30Z" fill="#2D5F3A" fill-opacity="0.4"/>
<path d="M361 42C362.105 42 363 41.1045 363 40C363 39.3433 362.684 38.7603 362.195 38.3955C361.861 38.147 361.447 38 361 38C359.895 38 359 38.8955 359 40C359 41.1045 359.895 42 361 42Z" fill="#2D5F3A" fill-opacity="0.4"/>
<path d="M373 30C374.105 30 375 29.1045 375 28C375 26.8955 374.105 26 373 26C371.895 26 371 26.8955 371 28C371 29.1045 371.895 30 373 30Z" fill="#2D5F3A" fill-opacity="0.4"/>
<path d="M373 42C374.105 42 375 41.1045 375 40C375 38.8955 374.105 38 373 38C371.895 38 371 38.8955 371 40C371 41.1045 371.895 42 373 42Z" fill="#2D5F3A" fill-opacity="0.4"/>
<path d="M39 28C39 29.1045 38.1055 30 37 30C35.8945 30 35 29.1045 35 28C35 26.8955 35.8945 26 37 26C37.627 26 38.1855 26.2881 38.5527 26.7388C38.6504 26.8589 38.7344 26.9907 38.8027 27.1313C38.873 27.2783 38.9258 27.4351 38.959 27.5991L38.9785 27.7119C38.9922 27.8057 39 27.9019 39 28Z" fill="#2D5F3A" fill-opacity="0.4"/>
<path d="M39 40C39 41.1045 38.1055 42 37 42C36.4141 42 35.8887 41.749 35.5234 41.3491C35.1992 40.9937 35 40.52 35 40C35 38.8955 35.8945 38 37 38C38.1055 38 39 38.8955 39 40Z" fill="#2D5F3A" fill-opacity="0.4"/>
<path d="M50.9336 28.5156C50.8438 28.8516 50.668 29.1528 50.4336 29.395C50.0703 29.7681 49.5625 30 49 30C47.8945 30 47 29.1045 47 28C47 26.8955 47.8945 26 49 26C50.1055 26 51 26.8955 51 28C51 28.1782 50.9766 28.3511 50.9336 28.5156Z" fill="#2D5F3A" fill-opacity="0.4"/>
<path d="M51 40C51 41.1045 50.1055 42 49 42C47.8945 42 47 41.1045 47 40C47 38.8955 47.8945 38 49 38C49.0801 38 49.1582 38.0044 49.2344 38.0132C49.3125 38.022 49.3887 38.0356 49.4629 38.0532L49.5742 38.0835C49.627 38.0996 49.6797 38.1177 49.7324 38.1382C49.9434 38.2207 50.1348 38.3374 50.3027 38.4814C50.7285 38.8481 51 39.3926 51 40Z" fill="#2D5F3A" fill-opacity="0.4"/>
<path d="M63 28C63 29.1045 62.1055 30 61 30C59.8945 30 59 29.1045 59 28C59 26.8955 59.8945 26 61 26C62.1055 26 63 26.8955 63 28Z" fill="#2D5F3A" fill-opacity="0.4"/>
<path d="M63 40C63 41.1045 62.1055 42 61 42C59.8945 42 59 41.1045 59 40C59 38.8955 59.8945 38 61 38C62.1055 38 63 38.8955 63 40Z" fill="#2D5F3A" fill-opacity="0.4"/>
<path d="M75 28C75 29.1045 74.1055 30 73 30C72.3652 30 71.7988 29.7041 71.4336 29.2427C71.1621 28.9014 71 28.4697 71 28C71 26.8955 71.8945 26 73 26C74.1055 26 75 26.8955 75 28Z" fill="#2D5F3A" fill-opacity="0.4"/>
<path d="M75 40C75 41.1045 74.1055 42 73 42C71.8945 42 71 41.1045 71 40C71 38.8955 71.8945 38 73 38C74.1055 38 75 38.8955 75 40Z" fill="#2D5F3A" fill-opacity="0.4"/>
<path d="M87 28C87 29.1045 86.1055 30 85 30C84.6504 30 84.3203 29.9097 84.0332 29.7515C83.418 29.4111 83 28.7544 83 28C83 27.7397 83.0488 27.4912 83.1387 27.2632C83.4336 26.5234 84.1543 26 85 26C85.5176 26 85.9883 26.1958 86.3438 26.5176C86.7461 26.8838 87 27.4121 87 28Z" fill="#2D5F3A" fill-opacity="0.4"/>
<path d="M87 40C87 41.1045 86.1055 42 85 42C83.8945 42 83 41.1045 83 40C83 38.8955 83.8945 38 85 38C86.1055 38 87 38.8955 87 40Z" fill="#2D5F3A" fill-opacity="0.4"/>
<path d="M99 28C99 29.1045 98.1055 30 97 30C96.334 30 95.7441 29.6743 95.3809 29.1738C95.291 29.0498 95.2148 28.915 95.1543 28.7715C95.1133 28.6748 95.0801 28.5742 95.0547 28.4707C95.0195 28.3198 95 28.1621 95 28C95 26.8955 95.8945 26 97 26C97.4395 26 97.8457 26.1411 98.1758 26.3804C98.6758 26.7441 99 27.334 99 28Z" fill="#2D5F3A" fill-opacity="0.4"/>
<path d="M99 40C99 41.1045 98.1055 42 97 42C96.7246 42 96.4629 41.9438 96.2227 41.8428C96.0293 41.7612 95.8516 41.6504 95.6953 41.5156C95.5977 41.4316 95.5078 41.3384 95.4297 41.2373C95.375 41.168 95.3242 41.0947 95.2793 41.0181C95.1016 40.7197 95 40.3716 95 40C95 38.8955 95.8945 38 97 38C98.1055 38 99 38.8955 99 40Z" fill="#2D5F3A" fill-opacity="0.4"/>
<path d="M111 28C111 29.1045 110.105 30 109 30C107.895 30 107 29.1045 107 28C107 26.8955 107.895 26 109 26C109.605 26 110.148 26.2695 110.516 26.6953C110.818 27.0454 111 27.5015 111 28Z" fill="#2D5F3A" fill-opacity="0.4"/>
<path d="M111 40C111 41.1045 110.105 42 109 42C107.895 42 107 41.1045 107 40C107 38.8955 107.895 38 109 38C110.105 38 111 38.8955 111 40Z" fill="#2D5F3A" fill-opacity="0.4"/>
<path d="M123 28C123 29.1045 122.105 30 121 30C119.895 30 119 29.1045 119 28C119 26.8955 119.895 26 121 26C121.391 26 121.756 26.1118 122.064 26.3052C122.234 26.4116 122.387 26.543 122.516 26.6938L122.566 26.7554C122.617 26.8184 122.662 26.8843 122.705 26.9526C122.893 27.2573 123 27.6157 123 28Z" fill="#2D5F3A" fill-opacity="0.4"/>
<path d="M123 40C123 41.1045 122.105 42 121 42C119.895 42 119 41.1045 119 40C119 38.8955 119.895 38 121 38C121.471 38 121.904 38.1626 122.246 38.4351C122.705 38.8018 123 39.3667 123 40Z" fill="#2D5F3A" fill-opacity="0.4"/>
<path d="M135 28C135 29.1045 134.105 30 133 30C131.895 30 131 29.1045 131 28C131 26.8955 131.895 26 133 26C134.105 26 135 26.8955 135 28Z" fill="#2D5F3A" fill-opacity="0.4"/>
<path d="M135 40C135 41.1045 134.105 42 133 42C131.895 42 131 41.1045 131 40C131 38.8955 131.895 38 133 38C134.105 38 135 38.8955 135 40Z" fill="#2D5F3A" fill-opacity="0.4"/>
<path d="M147 28C147 29.1045 146.105 30 145 30C143.895 30 143 29.1045 143 28C143 26.8955 143.895 26 145 26C146.105 26 147 26.8955 147 28Z" fill="#2D5F3A" fill-opacity="0.4"/>
<path d="M147 40C147 41.1045 146.105 42 145 42C143.895 42 143 41.1045 143 40C143 38.8955 143.895 38 145 38C146.105 38 147 38.8955 147 40Z" fill="#2D5F3A" fill-opacity="0.4"/>
<path d="M159 28C159 29.1045 158.105 30 157 30C156.623 30 156.271 29.8955 155.971 29.7144C155.389 29.3647 155 28.7275 155 28C155 27.3691 155.293 26.8066 155.748 26.4404C156.09 26.165 156.525 26 157 26C157.504 26 157.963 26.1855 158.314 26.4917C158.572 26.7158 158.771 27.0049 158.887 27.3335C158.959 27.542 159 27.7661 159 28Z" fill="#2D5F3A" fill-opacity="0.4"/>
<path d="M159 40C159 41.1045 158.105 42 157 42C155.895 42 155 41.1045 155 40C155 38.8955 155.895 38 157 38C158.105 38 159 38.8955 159 40Z" fill="#2D5F3A" fill-opacity="0.4"/>
<path d="M171 28C171 29.1045 170.105 30 169 30C168.342 30 167.758 29.6821 167.393 29.1914C167.146 28.8584 167 28.4463 167 28C167 26.8955 167.895 26 169 26C169.158 26 169.312 26.0186 169.461 26.0532C169.561 26.0771 169.658 26.1084 169.752 26.1465C169.912 26.2114 170.061 26.2964 170.197 26.3984C170.686 26.7632 171 27.3447 171 28Z" fill="#2D5F3A" fill-opacity="0.4"/>
<path d="M171 40C171 41.1045 170.105 42 169 42C168.508 42 168.057 41.8218 167.709 41.5264C167.275 41.1597 167 40.6118 167 40C167 39.4038 167.26 38.8682 167.674 38.5015C168.027 38.1895 168.492 38 169 38C170.105 38 171 38.8955 171 40Z" fill="#2D5F3A" fill-opacity="0.4"/>
<path d="M183 28C183 29.1045 182.105 30 181 30C179.895 30 179 29.1045 179 28C179 27.4722 179.205 26.9922 179.539 26.6348C179.902 26.2441 180.422 26 181 26C181.588 26 182.115 26.2524 182.48 26.6548C182.803 27.0103 183 27.4819 183 28Z" fill="#2D5F3A" fill-opacity="0.4"/>
<path d="M183 40C183 41.1045 182.105 42 181 42C179.895 42 179 41.1045 179 40C179 38.8955 179.895 38 181 38C182.105 38 183 38.8955 183 40Z" fill="#2D5F3A" fill-opacity="0.4"/>
<path d="M195 28C195 29.1045 194.105 30 193 30C191.895 30 191 29.1045 191 28C191 26.8955 191.895 26 193 26C193.398 26 193.77 26.1167 194.082 26.3174C194.291 26.4517 194.473 26.6235 194.617 26.8232C194.857 27.1533 195 27.5601 195 28Z" fill="#2D5F3A" fill-opacity="0.4"/>
<path d="M195 40C195 41.1045 194.105 42 193 42C191.895 42 191 41.1045 191 40C191 38.8955 191.895 38 193 38C193.447 38 193.861 38.147 194.195 38.3955C194.684 38.7603 195 39.3433 195 40Z" fill="#2D5F3A" fill-opacity="0.4"/>
<path d="M39 52C39 53.1045 38.1055 54 37 54C35.8945 54 35 53.1045 35 52C35 50.8955 35.8945 50 37 50C37.627 50 38.1855 50.2881 38.5527 50.7388C38.6504 50.8589 38.7344 50.9907 38.8027 51.1313C38.873 51.2783 38.9258 51.4351 38.959 51.5991L38.9785 51.7119C38.9922 51.8057 39 51.9019 39 52Z" fill="#2D5F3A" fill-opacity="0.4"/>
<path d="M39 64C39 65.1045 38.1055 66 37 66C36.4141 66 35.8887 65.749 35.5234 65.3491C35.1992 64.9937 35 64.52 35 64C35 62.8955 35.8945 62 37 62C38.1055 62 39 62.8955 39 64Z" fill="#2D5F3A" fill-opacity="0.4"/>
<path d="M50.9336 52.5156C50.8438 52.8516 50.668 53.1528 50.4336 53.395C50.0703 53.7681 49.5625 54 49 54C47.8945 54 47 53.1045 47 52C47 50.8955 47.8945 50 49 50C50.1055 50 51 50.8955 51 52C51 52.1782 50.9766 52.3511 50.9336 52.5156Z" fill="#2D5F3A" fill-opacity="0.4"/>
<path d="M51 64C51 65.1045 50.1055 66 49 66C47.8945 66 47 65.1045 47 64C47 62.8955 47.8945 62 49 62C49.0801 62 49.1582 62.0044 49.2344 62.0132C49.3125 62.022 49.3887 62.0356 49.4629 62.0532L49.5742 62.0835C49.627 62.0996 49.6797 62.1177 49.7324 62.1382C49.9434 62.2207 50.1348 62.3374 50.3027 62.4814C50.7285 62.8481 51 63.3926 51 64Z" fill="#2D5F3A" fill-opacity="0.4"/>
<path d="M63 52C63 53.1045 62.1055 54 61 54C59.8945 54 59 53.1045 59 52C59 50.8955 59.8945 50 61 50C62.1055 50 63 50.8955 63 52Z" fill="#2D5F3A" fill-opacity="0.4"/>
<path d="M63 64C63 65.1045 62.1055 66 61 66C59.8945 66 59 65.1045 59 64C59 62.8955 59.8945 62 61 62C62.1055 62 63 62.8955 63 64Z" fill="#2D5F3A" fill-opacity="0.4"/>
<path d="M75 52C75 53.1045 74.1055 54 73 54C72.3652 54 71.7988 53.7041 71.4336 53.2427C71.1621 52.9014 71 52.4697 71 52C71 50.8955 71.8945 50 73 50C74.1055 50 75 50.8955 75 52Z" fill="#2D5F3A" fill-opacity="0.4"/>
<path d="M75 64C75 65.1045 74.1055 66 73 66C71.8945 66 71 65.1045 71 64C71 62.8955 71.8945 62 73 62C74.1055 62 75 62.8955 75 64Z" fill="#2D5F3A" fill-opacity="0.4"/>
<path d="M87 52C87 53.1045 86.1055 54 85 54C84.6504 54 84.3203 53.9097 84.0332 53.7515C83.418 53.4111 83 52.7544 83 52C83 51.7397 83.0488 51.4912 83.1387 51.2632C83.4336 50.5234 84.1543 50 85 50C85.5176 50 85.9883 50.1958 86.3438 50.5176C86.7461 50.8838 87 51.4121 87 52Z" fill="#2D5F3A" fill-opacity="0.4"/>
<path d="M87 64C87 65.1045 86.1055 66 85 66C83.8945 66 83 65.1045 83 64C83 62.8955 83.8945 62 85 62C86.1055 62 87 62.8955 87 64Z" fill="#2D5F3A" fill-opacity="0.4"/>
<path d="M99 52C99 53.1045 98.1055 54 97 54C96.334 54 95.7441 53.6743 95.3809 53.1738C95.291 53.0498 95.2148 52.915 95.1543 52.7715C95.1133 52.6748 95.0801 52.5742 95.0547 52.4707C95.0195 52.3198 95 52.1621 95 52C95 50.8955 95.8945 50 97 50C97.4395 50 97.8457 50.1411 98.1758 50.3804C98.6758 50.7441 99 51.334 99 52Z" fill="#2D5F3A" fill-opacity="0.4"/>
<path d="M99 64C99 65.1045 98.1055 66 97 66C96.7246 66 96.4629 65.9438 96.2227 65.8428C96.0293 65.7612 95.8516 65.6504 95.6953 65.5156C95.5977 65.4316 95.5078 65.3384 95.4297 65.2373C95.375 65.168 95.3242 65.0947 95.2793 65.0181C95.1016 64.7197 95 64.3716 95 64C95 62.8955 95.8945 62 97 62C98.1055 62 99 62.8955 99 64Z" fill="#2D5F3A" fill-opacity="0.4"/>
<path d="M111 52C111 53.1045 110.105 54 109 54C107.895 54 107 53.1045 107 52C107 50.8955 107.895 50 109 50C109.605 50 110.148 50.2695 110.516 50.6953C110.818 51.0454 111 51.5015 111 52Z" fill="#2D5F3A" fill-opacity="0.4"/>
<path d="M111 64C111 65.1045 110.105 66 109 66C107.895 66 107 65.1045 107 64C107 62.8955 107.895 62 109 62C110.105 62 111 62.8955 111 64Z" fill="#2D5F3A" fill-opacity="0.4"/>
<path d="M123 52C123 53.1045 122.105 54 121 54C119.895 54 119 53.1045 119 52C119 50.8955 119.895 50 121 50C121.391 50 121.756 50.1118 122.064 50.3052C122.234 50.4116 122.387 50.543 122.516 50.6938L122.566 50.7554C122.617 50.8184 122.662 50.8843 122.705 50.9526C122.893 51.2573 123 51.6157 123 52Z" fill="#2D5F3A" fill-opacity="0.4"/>
<path d="M123 64C123 65.1045 122.105 66 121 66C119.895 66 119 65.1045 119 64C119 62.8955 119.895 62 121 62C121.471 62 121.904 62.1626 122.246 62.4351C122.705 62.8018 123 63.3667 123 64Z" fill="#2D5F3A" fill-opacity="0.4"/>
<path d="M135 52C135 53.1045 134.105 54 133 54C131.895 54 131 53.1045 131 52C131 50.8955 131.895 50 133 50C134.105 50 135 50.8955 135 52Z" fill="#2D5F3A" fill-opacity="0.4"/>
<path d="M135 64C135 65.1045 134.105 66 133 66C131.895 66 131 65.1045 131 64C131 62.8955 131.895 62 133 62C134.105 62 135 62.8955 135 64Z" fill="#2D5F3A" fill-opacity="0.4"/>
<path d="M147 52C147 53.1045 146.105 54 145 54C143.895 54 143 53.1045 143 52C143 50.8955 143.895 50 145 50C146.105 50 147 50.8955 147 52Z" fill="#2D5F3A" fill-opacity="0.4"/>
<path d="M147 64C147 65.1045 146.105 66 145 66C143.895 66 143 65.1045 143 64C143 62.8955 143.895 62 145 62C146.105 62 147 62.8955 147 64Z" fill="#2D5F3A" fill-opacity="0.4"/>
<path d="M159 52C159 53.1045 158.105 54 157 54C156.623 54 156.271 53.8955 155.971 53.7144C155.389 53.3647 155 52.7275 155 52C155 51.3691 155.293 50.8066 155.748 50.4404C156.09 50.165 156.525 50 157 50C157.504 50 157.963 50.1855 158.314 50.4917C158.572 50.7158 158.771 51.0049 158.887 51.3335C158.959 51.542 159 51.7661 159 52Z" fill="#2D5F3A" fill-opacity="0.4"/>
<path d="M159 64C159 65.1045 158.105 66 157 66C155.895 66 155 65.1045 155 64C155 62.8955 155.895 62 157 62C158.105 62 159 62.8955 159 64Z" fill="#2D5F3A" fill-opacity="0.4"/>
<path d="M171 52C171 53.1045 170.105 54 169 54C168.342 54 167.758 53.6821 167.393 53.1914C167.146 52.8584 167 52.4463 167 52C167 50.8955 167.895 50 169 50C169.158 50 169.312 50.0186 169.461 50.0532C169.561 50.0771 169.658 50.1084 169.752 50.1465C169.912 50.2114 170.061 50.2964 170.197 50.3984C170.686 50.7632 171 51.3447 171 52Z" fill="#2D5F3A" fill-opacity="0.4"/>
<path d="M171 64C171 65.1045 170.105 66 169 66C168.508 66 168.057 65.8218 167.709 65.5264C167.275 65.1597 167 64.6118 167 64C167 63.4038 167.26 62.8682 167.674 62.5015C168.027 62.1895 168.492 62 169 62C170.105 62 171 62.8955 171 64Z" fill="#2D5F3A" fill-opacity="0.4"/>
<path d="M183 52C183 53.1045 182.105 54 181 54C179.895 54 179 53.1045 179 52C179 51.4722 179.205 50.9922 179.539 50.6348C179.902 50.2441 180.422 50 181 50C181.588 50 182.115 50.2524 182.48 50.6548C182.803 51.0103 183 51.4819 183 52Z" fill="#2D5F3A" fill-opacity="0.4"/>
<path d="M183 64C183 65.1045 182.105 66 181 66C179.895 66 179 65.1045 179 64C179 62.8955 179.895 62 181 62C182.105 62 183 62.8955 183 64Z" fill="#2D5F3A" fill-opacity="0.4"/>
<path d="M195 52C195 53.1045 194.105 54 193 54C191.895 54 191 53.1045 191 52C191 50.8955 191.895 50 193 50C193.398 50 193.77 50.1167 194.082 50.3174C194.291 50.4517 194.473 50.6235 194.617 50.8232C194.857 51.1533 195 51.5601 195 52Z" fill="#2D5F3A" fill-opacity="0.4"/>
<path d="M195 64C195 65.1045 194.105 66 193 66C191.895 66 191 65.1045 191 64C191 62.8955 191.895 62 193 62C193.447 62 193.861 62.147 194.195 62.3955C194.684 62.7603 195 63.3433 195 64Z" fill="#2D5F3A" fill-opacity="0.4"/>
<path d="M207 52C207 53.1045 206.105 54 205 54C203.895 54 203 53.1045 203 52C203 50.8955 203.895 50 205 50C205.554 50 206.055 50.225 206.417 50.5886C206.465 50.6364 206.51 50.6865 206.553 50.7388C206.65 50.8589 206.734 50.9907 206.803 51.1313C206.825 51.1773 206.845 51.2242 206.863 51.272C206.952 51.4976 207 51.7432 207 52Z" fill="#2D5F3A" fill-opacity="0.4"/>
<path d="M207 64C207 65.1045 206.105 66 205 66C204.431 66 203.918 65.7627 203.554 65.3817C203.277 65.092 203.086 64.7192 203.023 64.3046C203.008 64.2053 203 64.1035 203 64C203 62.8955 203.895 62 205 62C206.105 62 207 62.8955 207 64Z" fill="#2D5F3A" fill-opacity="0.4"/>
<path d="M218.934 52.5156C218.844 52.8516 218.668 53.1528 218.434 53.395C218.07 53.7681 217.562 54 217 54C215.895 54 215 53.1045 215 52C215 50.8955 215.895 50 217 50C218.105 50 219 50.8955 219 52C219 52.1782 218.977 52.3511 218.934 52.5156Z" fill="#2D5F3A" fill-opacity="0.4"/>
<path d="M219 64C219 65.1045 218.105 66 217 66C215.895 66 215 65.1045 215 64C215 62.8955 215.895 62 217 62C217.08 62 217.158 62.0044 217.234 62.0132C217.312 62.022 217.389 62.0356 217.463 62.0532L217.574 62.0835C217.627 62.0996 217.68 62.1177 217.732 62.1382C217.943 62.2207 218.135 62.3374 218.303 62.4814C218.729 62.8481 219 63.3926 219 64Z" fill="#2D5F3A" fill-opacity="0.4"/>
<path d="M231 52C231 53.1045 230.105 54 229 54C227.895 54 227 53.1045 227 52C227 50.8955 227.895 50 229 50C230.105 50 231 50.8955 231 52Z" fill="#2D5F3A" fill-opacity="0.4"/>
<path d="M231 64C231 65.1045 230.105 66 229 66C227.895 66 227 65.1045 227 64C227 62.8955 227.895 62 229 62C230.105 62 231 62.8955 231 64Z" fill="#2D5F3A" fill-opacity="0.4"/>
<path d="M243 52C243 53.1045 242.105 54 241 54C240.365 54 239.799 53.7041 239.434 53.2427C239.162 52.9014 239 52.4697 239 52C239 50.8955 239.895 50 241 50C242.105 50 243 50.8955 243 52Z" fill="#2D5F3A" fill-opacity="0.4"/>
<path d="M243 64C243 65.1045 242.105 66 241 66C239.895 66 239 65.1045 239 64C239 62.8955 239.895 62 241 62C242.105 62 243 62.8955 243 64Z" fill="#2D5F3A" fill-opacity="0.4"/>
<path d="M255 52C255 53.1045 254.105 54 253 54C252.65 54 252.32 53.9097 252.033 53.7515C251.418 53.4111 251 52.7544 251 52C251 51.7397 251.049 51.4912 251.139 51.2632C251.434 50.5234 252.154 50 253 50C253.518 50 253.988 50.1958 254.344 50.5176C254.746 50.8838 255 51.4121 255 52Z" fill="#2D5F3A" fill-opacity="0.4"/>
<path d="M255 64C255 65.1045 254.105 66 253 66C251.895 66 251 65.1045 251 64C251 62.8955 251.895 62 253 62C254.105 62 255 62.8955 255 64Z" fill="#2D5F3A" fill-opacity="0.4"/>
<path d="M267 52C267 53.1045 266.105 54 265 54C264.334 54 263.744 53.6743 263.381 53.1738C263.291 53.0498 263.215 52.915 263.154 52.7715C263.113 52.6748 263.08 52.5742 263.055 52.4707C263.02 52.3198 263 52.1621 263 52C263 50.8955 263.895 50 265 50C265.439 50 265.846 50.1411 266.176 50.3804C266.676 50.7441 267 51.334 267 52Z" fill="#2D5F3A" fill-opacity="0.4"/>
<path d="M267 64C267 65.1045 266.105 66 265 66C264.725 66 264.463 65.9438 264.223 65.8428C264.029 65.7612 263.852 65.6504 263.695 65.5156C263.598 65.4316 263.508 65.3384 263.43 65.2373C263.375 65.168 263.324 65.0947 263.279 65.0181C263.102 64.7197 263 64.3716 263 64C263 62.8955 263.895 62 265 62C266.105 62 267 62.8955 267 64Z" fill="#2D5F3A" fill-opacity="0.4"/>
<path d="M279 52C279 53.1045 278.105 54 277 54C275.895 54 275 53.1045 275 52C275 50.8955 275.895 50 277 50C277.605 50 278.148 50.2695 278.516 50.6953C278.818 51.0454 279 51.5015 279 52Z" fill="#2D5F3A" fill-opacity="0.4"/>
<path d="M279 64C279 65.1045 278.105 66 277 66C275.895 66 275 65.1045 275 64C275 62.8955 275.895 62 277 62C278.105 62 279 62.8955 279 64Z" fill="#2D5F3A" fill-opacity="0.4"/>
<path d="M291 52C291 53.1045 290.105 54 289 54C287.895 54 287 53.1045 287 52C287 50.8955 287.895 50 289 50C289.391 50 289.756 50.1118 290.064 50.3052C290.234 50.4116 290.387 50.543 290.516 50.6938L290.566 50.7554C290.617 50.8184 290.662 50.8843 290.705 50.9526C290.893 51.2573 291 51.6157 291 52Z" fill="#2D5F3A" fill-opacity="0.4"/>
<path d="M291 64C291 65.1045 290.105 66 289 66C287.895 66 287 65.1045 287 64C287 62.8955 287.895 62 289 62C289.471 62 289.904 62.1626 290.246 62.4351C290.705 62.8018 291 63.3667 291 64Z" fill="#2D5F3A" fill-opacity="0.4"/>
<path d="M303 52C303 53.1045 302.105 54 301 54C299.895 54 299 53.1045 299 52C299 50.8955 299.895 50 301 50C302.105 50 303 50.8955 303 52Z" fill="#2D5F3A" fill-opacity="0.4"/>
<path d="M303 64C303 65.1045 302.105 66 301 66C299.895 66 299 65.1045 299 64C299 62.8955 299.895 62 301 62C302.105 62 303 62.8955 303 64Z" fill="#2D5F3A" fill-opacity="0.4"/>
<path d="M315 52C315 53.1045 314.105 54 313 54C311.895 54 311 53.1045 311 52C311 50.8955 311.895 50 313 50C314.105 50 315 50.8955 315 52Z" fill="#2D5F3A" fill-opacity="0.4"/>
<path d="M315 64C315 65.1045 314.105 66 313 66C311.895 66 311 65.1045 311 64C311 62.8955 311.895 62 313 62C314.105 62 315 62.8955 315 64Z" fill="#2D5F3A" fill-opacity="0.4"/>
<path d="M327 52C327 53.1045 326.105 54 325 54C324.623 54 324.271 53.8955 323.971 53.7144C323.389 53.3647 323 52.7275 323 52C323 51.3691 323.293 50.8066 323.748 50.4404C324.09 50.165 324.525 50 325 50C325.504 50 325.963 50.1855 326.314 50.4917C326.572 50.7158 326.771 51.0049 326.887 51.3335C326.959 51.542 327 51.7661 327 52Z" fill="#2D5F3A" fill-opacity="0.4"/>
<path d="M327 64C327 65.1045 326.105 66 325 66C323.895 66 323 65.1045 323 64C323 62.8955 323.895 62 325 62C326.105 62 327 62.8955 327 64Z" fill="#2D5F3A" fill-opacity="0.4"/>
<path d="M339 52C339 53.1045 338.105 54 337 54C336.342 54 335.758 53.6821 335.393 53.1914C335.146 52.8584 335 52.4463 335 52C335 50.8955 335.895 50 337 50C337.158 50 337.312 50.0186 337.461 50.0532C337.561 50.0771 337.658 50.1084 337.752 50.1465C337.912 50.2114 338.061 50.2964 338.197 50.3984C338.686 50.7632 339 51.3447 339 52Z" fill="#2D5F3A" fill-opacity="0.4"/>
<path d="M339 64C339 65.1045 338.105 66 337 66C336.508 66 336.057 65.8218 335.709 65.5264C335.275 65.1597 335 64.6118 335 64C335 63.4038 335.26 62.8682 335.674 62.5015C336.027 62.1895 336.492 62 337 62C338.105 62 339 62.8955 339 64Z" fill="#2D5F3A" fill-opacity="0.4"/>
<path d="M351 52C351 53.1045 350.105 54 349 54C347.895 54 347 53.1045 347 52C347 51.4722 347.205 50.9922 347.539 50.6348C347.902 50.2441 348.422 50 349 50C349.588 50 350.115 50.2524 350.48 50.6548C350.803 51.0103 351 51.4819 351 52Z" fill="#2D5F3A" fill-opacity="0.4"/>
<path d="M351 64C351 65.1045 350.105 66 349 66C347.895 66 347 65.1045 347 64C347 62.8955 347.895 62 349 62C350.105 62 351 62.8955 351 64Z" fill="#2D5F3A" fill-opacity="0.4"/>
<path d="M363 52C363 53.1045 362.105 54 361 54C359.895 54 359 53.1045 359 52C359 50.8955 359.895 50 361 50C361.398 50 361.77 50.1167 362.082 50.3174C362.291 50.4517 362.473 50.6235 362.617 50.8232C362.857 51.1533 363 51.5601 363 52Z" fill="#2D5F3A" fill-opacity="0.4"/>
<path d="M363 64C363 65.1045 362.105 66 361 66C359.895 66 359 65.1045 359 64C359 62.8955 359.895 62 361 62C361.447 62 361.861 62.147 362.195 62.3955C362.684 62.7603 363 63.3433 363 64Z" fill="#2D5F3A" fill-opacity="0.4"/>
<path d="M375 52C375 53.1045 374.105 54 373 54C371.895 54 371 53.1045 371 52C371 50.8955 371.895 50 373 50C374.105 50 375 50.8955 375 52Z" fill="#2D5F3A" fill-opacity="0.4"/>
<path d="M375 64C375 65.1045 374.105 66 373 66C371.895 66 371 65.1045 371 64C371 62.8955 371.895 62 373 62C374.105 62 375 62.8955 375 64Z" fill="#2D5F3A" fill-opacity="0.4"/>
<path d="M205 78C206.105 78 207 77.1045 207 76C207 75.7432 206.952 75.4976 206.863 75.272C206.845 75.2242 206.825 75.1773 206.803 75.1313C206.734 74.9907 206.65 74.8589 206.553 74.7388C206.51 74.6865 206.465 74.6364 206.417 74.5886C206.055 74.2251 205.554 74 205 74C203.895 74 203 74.8955 203 76C203 77.1045 203.895 78 205 78Z" fill="#2D5F3A" fill-opacity="0.4"/>
<path d="M205 90C206.105 90 207 89.1045 207 88C207 86.8955 206.105 86 205 86C203.895 86 203 86.8955 203 88C203 88.1214 203.011 88.2403 203.032 88.3558C203.112 88.8042 203.342 89.2007 203.668 89.4919C204.021 89.8078 204.487 90 205 90Z" fill="#2D5F3A" fill-opacity="0.4"/>
<path d="M218.434 77.395C218.668 77.1528 218.844 76.8516 218.934 76.5156C218.977 76.3511 219 76.1782 219 76C219 74.8955 218.105 74 217 74C215.895 74 215 74.8955 215 76C215 77.1045 215.895 78 217 78C217.562 78 218.07 77.7681 218.434 77.395Z" fill="#2D5F3A" fill-opacity="0.4"/>
<path d="M217 90C218.105 90 219 89.1045 219 88C219 87.3926 218.729 86.8481 218.303 86.4814C218.135 86.3374 217.943 86.2207 217.732 86.1382C217.707 86.1285 217.682 86.1193 217.658 86.1106C217.63 86.101 217.602 86.092 217.574 86.0835L217.463 86.0532C217.389 86.0356 217.312 86.022 217.234 86.0132C217.158 86.0044 217.08 86 217 86C215.895 86 215 86.8955 215 88C215 89.1045 215.895 90 217 90Z" fill="#2D5F3A" fill-opacity="0.4"/>
<path d="M229 78C230.105 78 231 77.1045 231 76C231 74.8955 230.105 74 229 74C227.895 74 227 74.8955 227 76C227 77.1045 227.895 78 229 78Z" fill="#2D5F3A" fill-opacity="0.4"/>
<path d="M229 90C230.105 90 231 89.1045 231 88C231 86.8955 230.105 86 229 86C227.895 86 227 86.8955 227 88C227 89.1045 227.895 90 229 90Z" fill="#2D5F3A" fill-opacity="0.4"/>
<path d="M241 78C242.105 78 243 77.1045 243 76C243 74.8955 242.105 74 241 74C239.895 74 239 74.8955 239 76C239 76.4697 239.162 76.9014 239.434 77.2427C239.799 77.7041 240.365 78 241 78Z" fill="#2D5F3A" fill-opacity="0.4"/>
<path d="M241 90C242.105 90 243 89.1045 243 88C243 86.8955 242.105 86 241 86C239.895 86 239 86.8955 239 88C239 89.1045 239.895 90 241 90Z" fill="#2D5F3A" fill-opacity="0.4"/>
<path d="M253 78C254.105 78 255 77.1045 255 76C255 75.4121 254.746 74.8838 254.344 74.5176C253.988 74.1958 253.518 74 253 74C252.154 74 251.434 74.5234 251.139 75.2632C251.049 75.4912 251 75.7397 251 76C251 76.7544 251.418 77.4111 252.033 77.7515C252.32 77.9097 252.65 78 253 78Z" fill="#2D5F3A" fill-opacity="0.4"/>
<path d="M253 90C254.105 90 255 89.1045 255 88C255 86.8955 254.105 86 253 86C251.895 86 251 86.8955 251 88C251 89.1045 251.895 90 253 90Z" fill="#2D5F3A" fill-opacity="0.4"/>
<path d="M265 78C266.105 78 267 77.1045 267 76C267 75.334 266.676 74.7441 266.176 74.3804C265.846 74.1411 265.439 74 265 74C263.895 74 263 74.8955 263 76C263 76.1621 263.02 76.3198 263.055 76.4707C263.08 76.5742 263.113 76.6748 263.154 76.7715C263.215 76.915 263.291 77.0498 263.381 77.1738C263.744 77.6743 264.334 78 265 78Z" fill="#2D5F3A" fill-opacity="0.4"/>
<path d="M265 90C266.105 90 267 89.1045 267 88C267 86.8955 266.105 86 265 86C263.895 86 263 86.8955 263 88C263 88.3716 263.102 88.7197 263.279 89.0181C263.324 89.0947 263.375 89.168 263.43 89.2373C263.508 89.3384 263.598 89.4316 263.695 89.5156C263.852 89.6504 264.029 89.7612 264.223 89.8428C264.463 89.9438 264.725 90 265 90Z" fill="#2D5F3A" fill-opacity="0.4"/>
<path d="M277 78C278.105 78 279 77.1045 279 76C279 75.5015 278.818 75.0454 278.516 74.6953C278.148 74.2695 277.605 74 277 74C275.895 74 275 74.8955 275 76C275 77.1045 275.895 78 277 78Z" fill="#2D5F3A" fill-opacity="0.4"/>
<path d="M277 90C278.105 90 279 89.1045 279 88C279 86.8955 278.105 86 277 86C275.895 86 275 86.8955 275 88C275 89.1045 275.895 90 277 90Z" fill="#2D5F3A" fill-opacity="0.4"/>
<path d="M289 78C290.105 78 291 77.1045 291 76C291 75.6157 290.893 75.2573 290.705 74.9526C290.662 74.8843 290.617 74.8184 290.566 74.7554L290.516 74.6938C290.387 74.543 290.234 74.4116 290.064 74.3052C289.756 74.1118 289.391 74 289 74C287.895 74 287 74.8955 287 76C287 77.1045 287.895 78 289 78Z" fill="#2D5F3A" fill-opacity="0.4"/>
<path d="M289 90C290.105 90 291 89.1045 291 88C291 87.3667 290.705 86.8018 290.246 86.4351C289.904 86.1626 289.471 86 289 86C287.895 86 287 86.8955 287 88C287 89.1045 287.895 90 289 90Z" fill="#2D5F3A" fill-opacity="0.4"/>
<path d="M301 78C302.105 78 303 77.1045 303 76C303 74.8955 302.105 74 301 74C299.895 74 299 74.8955 299 76C299 77.1045 299.895 78 301 78Z" fill="#2D5F3A" fill-opacity="0.4"/>
<path d="M301 90C302.105 90 303 89.1045 303 88C303 86.8955 302.105 86 301 86C299.895 86 299 86.8955 299 88C299 89.1045 299.895 90 301 90Z" fill="#2D5F3A" fill-opacity="0.4"/>
<path d="M313 78C314.105 78 315 77.1045 315 76C315 74.8955 314.105 74 313 74C311.895 74 311 74.8955 311 76C311 77.1045 311.895 78 313 78Z" fill="#2D5F3A" fill-opacity="0.4"/>
<path d="M313 90C314.105 90 315 89.1045 315 88C315 86.8955 314.105 86 313 86C311.895 86 311 86.8955 311 88C311 89.1045 311.895 90 313 90Z" fill="#2D5F3A" fill-opacity="0.4"/>
<path d="M325 78C326.105 78 327 77.1045 327 76C327 75.7661 326.959 75.542 326.887 75.3335C326.771 75.0049 326.572 74.7158 326.314 74.4917C325.963 74.1855 325.504 74 325 74C324.525 74 324.09 74.165 323.748 74.4404C323.293 74.8066 323 75.3691 323 76C323 76.7275 323.389 77.3647 323.971 77.7144C324.271 77.8955 324.623 78 325 78Z" fill="#2D5F3A" fill-opacity="0.4"/>
<path d="M325 90C326.105 90 327 89.1045 327 88C327 86.8955 326.105 86 325 86C323.895 86 323 86.8955 323 88C323 89.1045 323.895 90 325 90Z" fill="#2D5F3A" fill-opacity="0.4"/>
<path d="M337 78C338.105 78 339 77.1045 339 76C339 75.3447 338.686 74.7632 338.197 74.3984C338.061 74.2964 337.912 74.2114 337.752 74.1465C337.658 74.1084 337.561 74.0771 337.461 74.0532C337.312 74.0186 337.158 74 337 74C335.895 74 335 74.8955 335 76C335 76.4463 335.146 76.8584 335.393 77.1914C335.758 77.6821 336.342 78 337 78Z" fill="#2D5F3A" fill-opacity="0.4"/>
<path d="M337 90C338.105 90 339 89.1045 339 88C339 86.8955 338.105 86 337 86C336.492 86 336.027 86.1895 335.674 86.5015C335.26 86.8682 335 87.4038 335 88C335 88.6118 335.275 89.1597 335.709 89.5264C336.057 89.8218 336.508 90 337 90Z" fill="#2D5F3A" fill-opacity="0.4"/>
<path d="M349 78C350.105 78 351 77.1045 351 76C351 75.4819 350.803 75.0103 350.48 74.6548C350.115 74.2524 349.588 74 349 74C348.422 74 347.902 74.2441 347.539 74.6348C347.205 74.9922 347 75.4722 347 76C347 77.1045 347.895 78 349 78Z" fill="#2D5F3A" fill-opacity="0.4"/>
<path d="M349 90C350.105 90 351 89.1045 351 88C351 86.8955 350.105 86 349 86C347.895 86 347 86.8955 347 88C347 89.1045 347.895 90 349 90Z" fill="#2D5F3A" fill-opacity="0.4"/>
<path d="M361 78C362.105 78 363 77.1045 363 76C363 75.5601 362.857 75.1533 362.617 74.8232C362.473 74.6235 362.291 74.4517 362.082 74.3174C361.77 74.1167 361.398 74 361 74C359.895 74 359 74.8955 359 76C359 77.1045 359.895 78 361 78Z" fill="#2D5F3A" fill-opacity="0.4"/>
<path d="M361 90C362.105 90 363 89.1045 363 88C363 87.3433 362.684 86.7603 362.195 86.3955C361.861 86.147 361.447 86 361 86C359.895 86 359 86.8955 359 88C359 89.1045 359.895 90 361 90Z" fill="#2D5F3A" fill-opacity="0.4"/>
<path d="M373 78C374.105 78 375 77.1045 375 76C375 74.8955 374.105 74 373 74C371.895 74 371 74.8955 371 76C371 77.1045 371.895 78 373 78Z" fill="#2D5F3A" fill-opacity="0.4"/>
<path d="M373 90C374.105 90 375 89.1045 375 88C375 86.8955 374.105 86 373 86C371.895 86 371 86.8955 371 88C371 89.1045 371.895 90 373 90Z" fill="#2D5F3A" fill-opacity="0.4"/>
<path d="M39 76C39 77.1045 38.1055 78 37 78C35.8945 78 35 77.1045 35 76C35 74.8955 35.8945 74 37 74C37.627 74 38.1855 74.2881 38.5527 74.7388C38.6504 74.8589 38.7344 74.9907 38.8027 75.1313C38.873 75.2783 38.9258 75.4351 38.959 75.5991L38.9785 75.7119C38.9922 75.8057 39 75.9019 39 76Z" fill="#2D5F3A" fill-opacity="0.4"/>
<path d="M39 88C39 89.1045 38.1055 90 37 90C36.4141 90 35.8887 89.749 35.5234 89.3491C35.1992 88.9937 35 88.52 35 88C35 86.8955 35.8945 86 37 86C38.1055 86 39 86.8955 39 88Z" fill="#2D5F3A" fill-opacity="0.4"/>
<path d="M50.9336 76.5156C50.8438 76.8516 50.668 77.1528 50.4336 77.395C50.0703 77.7681 49.5625 78 49 78C47.8945 78 47 77.1045 47 76C47 74.8955 47.8945 74 49 74C50.1055 74 51 74.8955 51 76C51 76.1782 50.9766 76.3511 50.9336 76.5156Z" fill="#2D5F3A" fill-opacity="0.4"/>
<path d="M51 88C51 89.1045 50.1055 90 49 90C47.8945 90 47 89.1045 47 88C47 86.8955 47.8945 86 49 86C49.0801 86 49.1582 86.0044 49.2344 86.0132C49.3125 86.022 49.3887 86.0356 49.4629 86.0532L49.5742 86.0835C49.627 86.0996 49.6797 86.1177 49.7324 86.1382C49.9434 86.2207 50.1348 86.3374 50.3027 86.4814C50.7285 86.8481 51 87.3926 51 88Z" fill="#2D5F3A" fill-opacity="0.4"/>
<path d="M63 76C63 77.1045 62.1055 78 61 78C59.8945 78 59 77.1045 59 76C59 74.8955 59.8945 74 61 74C62.1055 74 63 74.8955 63 76Z" fill="#2D5F3A" fill-opacity="0.4"/>
<path d="M63 88C63 89.1045 62.1055 90 61 90C59.8945 90 59 89.1045 59 88C59 86.8955 59.8945 86 61 86C62.1055 86 63 86.8955 63 88Z" fill="#2D5F3A" fill-opacity="0.4"/>
<path d="M75 76C75 77.1045 74.1055 78 73 78C72.3652 78 71.7988 77.7041 71.4336 77.2427C71.1621 76.9014 71 76.4697 71 76C71 74.8955 71.8945 74 73 74C74.1055 74 75 74.8955 75 76Z" fill="#2D5F3A" fill-opacity="0.4"/>
<path d="M75 88C75 89.1045 74.1055 90 73 90C71.8945 90 71 89.1045 71 88C71 86.8955 71.8945 86 73 86C74.1055 86 75 86.8955 75 88Z" fill="#2D5F3A" fill-opacity="0.4"/>
<path d="M87 76C87 77.1045 86.1055 78 85 78C84.6504 78 84.3203 77.9097 84.0332 77.7515C83.418 77.4111 83 76.7544 83 76C83 75.7397 83.0488 75.4912 83.1387 75.2632C83.4336 74.5234 84.1543 74 85 74C85.5176 74 85.9883 74.1958 86.3438 74.5176C86.7461 74.8838 87 75.4121 87 76Z" fill="#2D5F3A" fill-opacity="0.4"/>
<path d="M87 88C87 89.1045 86.1055 90 85 90C83.8945 90 83 89.1045 83 88C83 86.8955 83.8945 86 85 86C86.1055 86 87 86.8955 87 88Z" fill="#2D5F3A" fill-opacity="0.4"/>
<path d="M99 76C99 77.1045 98.1055 78 97 78C96.334 78 95.7441 77.6743 95.3809 77.1738C95.291 77.0498 95.2148 76.915 95.1543 76.7715C95.1133 76.6748 95.0801 76.5742 95.0547 76.4707C95.0195 76.3198 95 76.1621 95 76C95 74.8955 95.8945 74 97 74C97.4395 74 97.8457 74.1411 98.1758 74.3804C98.6758 74.7441 99 75.334 99 76Z" fill="#2D5F3A" fill-opacity="0.4"/>
<path d="M99 88C99 89.1045 98.1055 90 97 90C96.7246 90 96.4629 89.9438 96.2227 89.8428C96.0293 89.7612 95.8516 89.6504 95.6953 89.5156C95.5977 89.4316 95.5078 89.3384 95.4297 89.2373C95.375 89.168 95.3242 89.0947 95.2793 89.0181C95.1016 88.7197 95 88.3716 95 88C95 86.8955 95.8945 86 97 86C98.1055 86 99 86.8955 99 88Z" fill="#2D5F3A" fill-opacity="0.4"/>
<path d="M111 76C111 77.1045 110.105 78 109 78C107.895 78 107 77.1045 107 76C107 74.8955 107.895 74 109 74C109.605 74 110.148 74.2695 110.516 74.6953C110.818 75.0454 111 75.5015 111 76Z" fill="#2D5F3A" fill-opacity="0.4"/>
<path d="M111 88C111 89.1045 110.105 90 109 90C107.895 90 107 89.1045 107 88C107 86.8955 107.895 86 109 86C110.105 86 111 86.8955 111 88Z" fill="#2D5F3A" fill-opacity="0.4"/>
<path d="M123 76C123 77.1045 122.105 78 121 78C119.895 78 119 77.1045 119 76C119 74.8955 119.895 74 121 74C121.391 74 121.756 74.1118 122.064 74.3052C122.234 74.4116 122.387 74.543 122.516 74.6938L122.566 74.7554C122.617 74.8184 122.662 74.8843 122.705 74.9526C122.893 75.2573 123 75.6157 123 76Z" fill="#2D5F3A" fill-opacity="0.4"/>
<path d="M123 88C123 89.1045 122.105 90 121 90C119.895 90 119 89.1045 119 88C119 86.8955 119.895 86 121 86C121.471 86 121.904 86.1626 122.246 86.4351C122.705 86.8018 123 87.3667 123 88Z" fill="#2D5F3A" fill-opacity="0.4"/>
<path d="M135 76C135 77.1045 134.105 78 133 78C131.895 78 131 77.1045 131 76C131 74.8955 131.895 74 133 74C134.105 74 135 74.8955 135 76Z" fill="#2D5F3A" fill-opacity="0.4"/>
<path d="M135 88C135 89.1045 134.105 90 133 90C131.895 90 131 89.1045 131 88C131 86.8955 131.895 86 133 86C134.105 86 135 86.8955 135 88Z" fill="#2D5F3A" fill-opacity="0.4"/>
<path d="M147 76C147 77.1045 146.105 78 145 78C143.895 78 143 77.1045 143 76C143 74.8955 143.895 74 145 74C146.105 74 147 74.8955 147 76Z" fill="#2D5F3A" fill-opacity="0.4"/>
<path d="M147 88C147 89.1045 146.105 90 145 90C143.895 90 143 89.1045 143 88C143 86.8955 143.895 86 145 86C146.105 86 147 86.8955 147 88Z" fill="#2D5F3A" fill-opacity="0.4"/>
<path d="M159 76C159 77.1045 158.105 78 157 78C156.623 78 156.271 77.8955 155.971 77.7144C155.389 77.3647 155 76.7275 155 76C155 75.3691 155.293 74.8066 155.748 74.4404C156.09 74.165 156.525 74 157 74C157.504 74 157.963 74.1855 158.314 74.4917C158.572 74.7158 158.771 75.0049 158.887 75.3335C158.959 75.542 159 75.7661 159 76Z" fill="#2D5F3A" fill-opacity="0.4"/>
<path d="M159 88C159 89.1045 158.105 90 157 90C155.895 90 155 89.1045 155 88C155 86.8955 155.895 86 157 86C158.105 86 159 86.8955 159 88Z" fill="#2D5F3A" fill-opacity="0.4"/>
<path d="M171 76C171 77.1045 170.105 78 169 78C168.342 78 167.758 77.6821 167.393 77.1914C167.146 76.8584 167 76.4463 167 76C167 74.8955 167.895 74 169 74C169.158 74 169.312 74.0186 169.461 74.0532C169.561 74.0771 169.658 74.1084 169.752 74.1465C169.912 74.2114 170.061 74.2964 170.197 74.3984C170.686 74.7632 171 75.3447 171 76Z" fill="#2D5F3A" fill-opacity="0.4"/>
<path d="M171 88C171 89.1045 170.105 90 169 90C168.508 90 168.057 89.8218 167.709 89.5264C167.275 89.1597 167 88.6118 167 88C167 87.4038 167.26 86.8682 167.674 86.5015C168.027 86.1895 168.492 86 169 86C170.105 86 171 86.8955 171 88Z" fill="#2D5F3A" fill-opacity="0.4"/>
<path d="M183 76C183 77.1045 182.105 78 181 78C179.895 78 179 77.1045 179 76C179 75.4722 179.205 74.9922 179.539 74.6348C179.902 74.2441 180.422 74 181 74C181.588 74 182.115 74.2524 182.48 74.6548C182.803 75.0103 183 75.4819 183 76Z" fill="#2D5F3A" fill-opacity="0.4"/>
<path d="M183 88C183 89.1045 182.105 90 181 90C179.895 90 179 89.1045 179 88C179 86.8955 179.895 86 181 86C182.105 86 183 86.8955 183 88Z" fill="#2D5F3A" fill-opacity="0.4"/>
<path d="M195 76C195 77.1045 194.105 78 193 78C191.895 78 191 77.1045 191 76C191 74.8955 191.895 74 193 74C193.398 74 193.77 74.1167 194.082 74.3174C194.291 74.4517 194.473 74.6235 194.617 74.8232C194.857 75.1533 195 75.5601 195 76Z" fill="#2D5F3A" fill-opacity="0.4"/>
<path d="M195 88C195 89.1045 194.105 90 193 90C191.895 90 191 89.1045 191 88C191 86.8955 191.895 86 193 86C193.447 86 193.861 86.147 194.195 86.3955C194.684 86.7603 195 87.3433 195 88Z" fill="#2D5F3A" fill-opacity="0.4"/>
</g>
<g clip-path="url(#clip1_22_597)">
<path fill-rule="evenodd" clip-rule="evenodd" d="M326.89 46.4637C328.602 50.4209 326.782 55.0167 322.825 56.7288L269.323 79.8768C265.366 81.5889 260.77 79.7689 259.058 75.8118C257.346 71.8546 259.166 67.2588 263.123 65.5467L316.625 42.3986C320.582 40.6865 325.178 42.5065 326.89 46.4637Z" fill="#194099"/>
<path d="M352.603 58.515C345.691 75.969 325.939 84.515 308.485 77.6031C291.031 70.6912 282.485 50.9389 289.397 33.485C296.309 16.031 316.061 7.48502 333.515 14.3969C350.969 21.3088 359.515 41.0611 352.603 58.515Z" fill="#194099"/>
<path d="M346.113 55.945C340.621 69.8146 324.925 76.6056 311.055 71.1132C297.185 65.6207 290.394 49.9246 295.887 36.055C301.379 22.1854 317.075 15.3943 330.945 20.8868C344.815 26.3793 351.606 42.0753 346.113 55.945Z" fill="#D2D5D7"/>
<path d="M342.726 56.916C343.01 56.3382 343.273 55.7445 343.514 55.1356C348.426 42.7325 342.364 28.7007 329.976 23.7947C320.991 20.2365 311.145 22.4558 304.539 28.6755C310.342 27.6015 316.505 28.0929 322.393 30.425C333.915 34.9875 341.377 45.404 342.726 56.916Z" fill="white"/>
</g>
</g>
<defs>
<linearGradient id="paint0_linear_22_597" x1="79" y1="30" x2="375" y2="30" gradientUnits="userSpaceOnUse">
<stop stop-opacity="0"/>
<stop offset="0.942308"/>
</linearGradient>
<clipPath id="clip0_22_597">
<rect width="375" height="60" fill="white"/>
</clipPath>
<clipPath id="clip1_22_597">
<rect width="80" height="80" fill="white" transform="translate(275 12)"/>
</clipPath>
</defs>
</svg>
