<svg width="20" height="20" viewBox="0 0 20 20" fill="none" xmlns="http://www.w3.org/2000/svg">
<mask id="mask0_21_11543" style="mask-type:luminance" maskUnits="userSpaceOnUse" x="0" y="0" width="20" height="20">
<path d="M10 20C15.5229 20 20 15.5229 20 10C20 4.47716 15.5229 0 10 0C4.47717 0 0 4.47716 0 10C0 15.5229 4.47717 20 10 20Z" fill="white"/>
</mask>
<g mask="url(#mask0_21_11543)">
<path d="M10 20C15.5229 20 20 15.5229 20 10C20 4.47716 15.5229 0 10 0C4.47717 0 0 4.47716 0 10C0 15.5229 4.47717 20 10 20Z" fill="#EAEAEA"/>
</g>
<mask id="mask1_21_11543" style="mask-type:luminance" maskUnits="userSpaceOnUse" x="0" y="0" width="20" height="20">
<path d="M10 20C15.5229 20 20 15.5229 20 10C20 4.47716 15.5229 0 10 0C4.47717 0 0 4.47716 0 10C0 15.5229 4.47717 20 10 20Z" fill="white"/>
</mask>
<g mask="url(#mask1_21_11543)">
<path d="M-0.121913 8.26265C-0.121913 8.26265 1.79881 5.76265 3.41467 5.1529C3.41467 5.1529 4.39029 3.1407 5.94517 2.04314C5.94517 2.04314 5.6098 0.488255 5.82321 0.305328L0.762241 3.68948L-0.304832 7.01264L-0.121913 8.26265Z" fill="#999999"/>
</g>
<mask id="mask2_21_11543" style="mask-type:luminance" maskUnits="userSpaceOnUse" x="0" y="0" width="20" height="20">
<path d="M10 20C15.5229 20 20 15.5229 20 10C20 4.47716 15.5229 0 10 0C4.47717 0 0 4.47716 0 10C0 15.5229 4.47717 20 10 20Z" fill="white"/>
</mask>
<g mask="url(#mask2_21_11543)">
<path d="M12.8659 13.2626C12.7744 13.2321 13.4147 9.39068 13.3232 8.81141C13.3232 8.81141 16.7379 7.8053 17.1037 7.62238C17.1037 7.62238 18.6586 10.2748 18.6891 11.4638C18.6891 11.4638 16.494 14.7565 15.9147 15.1834C15.9147 15.1834 14.0854 13.6894 12.8659 13.2626Z" fill="#161616"/>
</g>
<mask id="mask3_21_11543" style="mask-type:luminance" maskUnits="userSpaceOnUse" x="0" y="0" width="20" height="20">
<path d="M10 20C15.5229 20 20 15.5229 20 10C20 4.47716 15.5229 0 10 0C4.47717 0 0 4.47716 0 10C0 15.5229 4.47717 20 10 20Z" fill="white"/>
</mask>
<g mask="url(#mask3_21_11543)">
<path d="M13.3231 0.396484L13.628 1.64649C13.628 1.64649 16.4633 2.95745 16.9816 4.11599L18.0487 3.96355C18.0182 3.96355 16.2194 1.12819 13.3231 0.396484Z" fill="#161616"/>
</g>
<mask id="mask4_21_11543" style="mask-type:luminance" maskUnits="userSpaceOnUse" x="0" y="0" width="20" height="20">
<path d="M10 20C15.5229 20 20 15.5229 20 10C20 4.47716 15.5229 0 10 0C4.47717 0 0 4.47716 0 10C0 15.5229 4.47717 20 10 20Z" fill="white"/>
</mask>
<g mask="url(#mask4_21_11543)">
<path d="M11.0366 19.4817C11.0366 19.4817 13.9635 18.872 15.3659 17.683L16.0671 17.9574C16.0671 17.9574 14.9696 19.2988 11.555 19.8781L11.0366 19.4817Z" fill="#161616"/>
</g>
<mask id="mask5_21_11543" style="mask-type:luminance" maskUnits="userSpaceOnUse" x="0" y="0" width="20" height="20">
<path d="M10 20C15.5229 20 20 15.5229 20 10C20 4.47716 15.5229 0 10 0C4.47717 0 0 4.47716 0 10C0 15.5229 4.47717 20 10 20Z" fill="white"/>
</mask>
<g mask="url(#mask5_21_11543)">
<path d="M4.93898 12.5303C4.93898 12.5303 5.03045 8.74979 5.67069 7.98759C5.67069 7.98759 8.68901 6.2193 9.54267 6.18881C9.54267 6.18881 12.9573 8.10954 13.3536 8.87174C13.3536 8.87174 12.9878 12.3778 12.8658 13.14C12.8658 13.14 12.1951 14.1461 8.68899 15.1522C8.65851 15.1827 6.49386 14.2986 4.93898 12.5303Z" fill="#BDBDBD"/>
</g>
<mask id="mask6_21_11543" style="mask-type:luminance" maskUnits="userSpaceOnUse" x="0" y="0" width="20" height="20">
<path d="M10 20C15.5229 20 20 15.5229 20 10C20 4.47716 15.5229 0 10 0C4.47717 0 0 4.47716 0 10C0 15.5229 4.47717 20 10 20Z" fill="white"/>
</mask>
<g mask="url(#mask6_21_11543)">
<path d="M-0.487785 15.4268L1.18904 17.3475L3.75003 18.0182L4.20735 17.378C2.86588 16.0975 2.43904 14.0548 2.43904 14.0548C1.06709 12.6828 -0.0609485 10.7011 -0.0609485 10.7011L-0.487785 15.4268Z" fill="#BDBDBD"/>
</g>
<mask id="mask7_21_11543" style="mask-type:luminance" maskUnits="userSpaceOnUse" x="0" y="0" width="20" height="20">
<path d="M10 20C15.5229 20 20 15.5229 20 10C20 4.47716 15.5229 0 10 0C4.47717 0 0 4.47716 0 10C0 15.5229 4.47717 20 10 20Z" fill="white"/>
</mask>
<g mask="url(#mask7_21_11543)">
<path d="M15.9452 15.061C15.9452 15.061 18.0488 12.4695 18.6586 11.433L20.244 11.6159L20.6708 13.3232L19.7562 16.4634L17.5915 18.6281L16.494 18.1403L15.4574 17.683" fill="#999999"/>
</g>
<mask id="mask8_21_11543" style="mask-type:luminance" maskUnits="userSpaceOnUse" x="0" y="0" width="20" height="20">
<path d="M10 20C15.5229 20 20 15.5229 20 10C20 4.47716 15.5229 0 10 0C4.47717 0 0 4.47716 0 10C0 15.5229 4.47717 20 10 20Z" fill="white"/>
</mask>
<g mask="url(#mask8_21_11543)">
<path d="M5.5488 8.1396C5.5488 8.1396 7.89638 6.55424 9.60369 6.21887C9.60369 6.21887 9.81709 3.13961 9.81709 2.52985C9.81709 2.52985 7.50003 1.76765 5.97564 1.98106C5.97564 1.98106 4.0854 3.47497 3.35369 5.24326C3.35369 5.24326 4.7866 7.71277 5.5488 8.1396Z" fill="#161616"/>
</g>
<mask id="mask9_21_11543" style="mask-type:luminance" maskUnits="userSpaceOnUse" x="0" y="0" width="20" height="20">
<path d="M10 20C15.5229 20 20 15.5229 20 10C20 4.47716 15.5229 0 10 0C4.47717 0 0 4.47716 0 10C0 15.5229 4.47717 20 10 20Z" fill="white"/>
</mask>
<g mask="url(#mask9_21_11543)">
<path d="M9.54266 6.18896C9.54266 6.18896 12.8353 8.01823 13.3231 8.81091L17.1036 7.62188C17.1036 7.62188 17.1951 4.51212 16.9512 3.96334C16.9512 3.96334 15.3963 2.0731 13.75 1.5853C13.75 1.5853 10.5792 2.01213 9.87801 2.53042L9.54266 6.18896Z" fill="#999999"/>
</g>
<mask id="mask10_21_11543" style="mask-type:luminance" maskUnits="userSpaceOnUse" x="0" y="0" width="20" height="20">
<path d="M10 20C15.5229 20 20 15.5229 20 10C20 4.47716 15.5229 0 10 0C4.47717 0 0 4.47716 0 10C0 15.5229 4.47717 20 10 20Z" fill="white"/>
</mask>
<g mask="url(#mask10_21_11543)">
<path d="M4.1463 17.469L3.68898 18.1093L5.15241 19.2983L7.1646 20.152L10.3049 20.3044L11.4634 20.1215L11.7682 20.03L11.0671 19.5117C11.0671 19.5117 8.78045 18.9324 8.07923 18.2617C8.07923 18.2617 5.30485 17.9873 4.20729 17.3776" fill="#999999"/>
</g>
<mask id="mask11_21_11543" style="mask-type:luminance" maskUnits="userSpaceOnUse" x="0" y="0" width="20" height="20">
<path d="M10 20C15.5229 20 20 15.5229 20 10C20 4.47716 15.5229 0 10 0C4.47717 0 0 4.47716 0 10C0 15.5229 4.47717 20 10 20Z" fill="white"/>
</mask>
<g mask="url(#mask11_21_11543)">
<path d="M2.40854 14.0544C2.40854 14.0544 3.96339 12.9873 4.939 12.3776C4.939 12.3776 7.68291 14.9081 8.74998 15.152L8.04878 18.2617C8.04878 18.2617 6.67681 18.841 4.17681 17.4995C4.17681 17.53 2.62195 15.6398 2.40854 14.0544Z" fill="#161616"/>
<g opacity="0.36" filter="url(#filter0_f_21_11543)">
<path d="M0.920491 6.26698C1.08959 6.42198 10.7658 22.1105 22.1423 20.5974C22.1423 20.5974 13.4095 27.2328 9.0819 26.896C4.75429 26.5593 -1.06449 25.3453 -3.1088 21.4532C-5.15312 17.5611 -4.72974 11.1186 -2.78479 8.96072C-0.847518 6.77193 0.920491 6.26698 0.920491 6.26698Z" fill="#999999" fill-opacity="0.6"/>
</g>
</g>
<defs>
<filter id="filter0_f_21_11543" x="-6.40702" y="4.31575" width="30.5006" height="24.5439" filterUnits="userSpaceOnUse" color-interpolation-filters="sRGB">
<feFlood flood-opacity="0" result="BackgroundImageFix"/>
<feBlend mode="normal" in="SourceGraphic" in2="BackgroundImageFix" result="shape"/>
<feGaussianBlur stdDeviation="0.97561" result="effect1_foregroundBlur_21_11543"/>
</filter>
</defs>
</svg>
