<svg width="20" height="20" viewBox="0 0 20 20" fill="none" xmlns="http://www.w3.org/2000/svg">
<mask id="mask0_21_11159" style="mask-type:alpha" maskUnits="userSpaceOnUse" x="0" y="0" width="20" height="20">
<path d="M10 20C15.5228 20 20 15.5228 20 10C20 4.47715 15.5228 0 10 0C4.47715 0 0 4.47715 0 10C0 15.5228 4.47715 20 10 20Z" fill="#FAEE3A"/>
</mask>
<g mask="url(#mask0_21_11159)">
<path d="M10 20C15.5228 20 20 15.5228 20 10C20 4.47715 15.5228 0 10 0C4.47715 0 0 4.47715 0 10C0 15.5228 4.47715 20 10 20Z" fill="#FAEE3A"/>
<path fill-rule="evenodd" clip-rule="evenodd" d="M11.9306 24.3256C11.9306 24.3259 11.9307 24.3262 11.4688 24.406C11.0069 24.4859 11.0069 24.486 11.0069 24.4861L11.0066 24.4844L11.0053 24.4769L10.9993 24.4442C10.9938 24.4147 10.9852 24.3698 10.9733 24.3105C10.9494 24.1919 10.9122 24.0155 10.8594 23.7882C10.7537 23.3336 10.5856 22.6758 10.3372 21.8698C9.84022 20.257 9.02321 18.0556 7.74447 15.7042C5.18612 10.9998 0.797365 5.72415 -6.55196 3.32031L-6.26051 2.42926C1.39017 4.93167 5.93892 10.4217 8.56806 15.2563C9.88308 17.6744 10.7223 19.936 11.2331 21.5937C11.4887 22.4229 11.6624 23.1022 11.7725 23.576C11.8276 23.8128 11.8668 23.9984 11.8924 24.1258C11.9052 24.1894 11.9146 24.2385 11.9209 24.2722L11.928 24.3111L11.9299 24.3216L11.9306 24.3256Z" fill="#182154"/>
<path fill-rule="evenodd" clip-rule="evenodd" d="M6.22567 -7.60696C6.22562 -7.60727 6.22558 -7.60752 6.68747 -7.6874C7.14937 -7.76727 7.14934 -7.7674 7.14933 -7.76746L7.14937 -7.76726L7.14963 -7.76574L7.15097 -7.75822L7.15697 -7.72554C7.16248 -7.69602 7.17106 -7.65117 7.18298 -7.59188C7.20682 -7.47327 7.24404 -7.29688 7.29688 -7.0696C7.40257 -6.61497 7.57066 -5.95711 7.81903 -5.15112C8.31601 -3.53831 9.13303 -1.33697 10.4118 1.01445C12.9701 5.71889 17.3589 10.9945 24.7082 13.3983L24.4167 14.2894C16.7661 11.787 12.2173 6.29695 9.58817 1.46233C8.27316 -0.955789 7.43392 -3.21733 6.9231 -4.87504C6.66756 -5.7043 6.49386 -6.3836 6.38373 -6.85732C6.32866 -7.0942 6.28946 -7.27978 6.26387 -7.40711C6.25107 -7.47077 6.24167 -7.51988 6.23538 -7.55357L6.22825 -7.59243L6.22637 -7.60299L6.22584 -7.60601L6.22567 -7.60696Z" fill="#182154"/>
<g opacity="0.36" filter="url(#filter0_f_21_11159)">
<path d="M1.80795 2.17306C1.98127 2.33194 11.8993 18.4127 23.5603 16.8617C23.5603 16.8617 14.6092 23.663 10.1734 23.3178C5.73759 22.9727 -0.22665 21.7283 -2.32207 17.7389C-4.41749 13.7495 -3.98353 7.14595 -1.98996 4.93414C-0.0042578 2.69063 1.80795 2.17306 1.80795 2.17306Z" fill="#8A831A" fill-opacity="0.45"/>
</g>
</g>
<defs>
<filter id="filter0_f_21_11159" x="-5.70275" y="0.173035" width="31.2631" height="25.1575" filterUnits="userSpaceOnUse" color-interpolation-filters="sRGB">
<feFlood flood-opacity="0" result="BackgroundImageFix"/>
<feBlend mode="normal" in="SourceGraphic" in2="BackgroundImageFix" result="shape"/>
<feGaussianBlur stdDeviation="1" result="effect1_foregroundBlur_21_11159"/>
</filter>
</defs>
</svg>
