<svg width="20" height="20" viewBox="0 0 20 20" fill="none" xmlns="http://www.w3.org/2000/svg">
<path d="M11.0233 16.8391C9.77653 16.8391 8.77905 16.4651 8.15567 16.2157C5.92039 15.0981 3.88775 17.9901 2.54518 19.3327C2.42051 19.4573 2.17115 19.582 1.9218 19.4573C1.42309 19.208 1.04915 18.834 0.924468 18.7093C0.799791 18.5846 0.425637 18.2105 0.176282 17.7118C0.0516048 17.4624 0.176404 17.3378 0.301081 17.0884L2.91928 14.8442C3.41799 14.4702 3.66725 13.9715 3.9166 13.3481C4.04128 12.8494 4.04128 12.226 3.9166 11.7273C2.13543 7.27437 5.64574 3.30821 9.40244 1.37909C12.27 -0.117035 15.761 0.506321 17.8806 2.75051C17.8806 2.75051 17.8805 2.75056 18.0052 2.87524C18.0052 2.87524 18.0052 2.87521 18.1299 2.99988C19.3766 4.37134 20 6.1168 20 7.73761C20 9.10906 19.626 10.3559 18.8779 11.6027C17.0821 14.4596 14.5005 16.8391 11.0233 16.8391Z" fill="#3B67E2"/>
<path opacity="0.3" d="M13.3923 16.4651C6.85735 18.6419 1.87019 10.5379 3.91665 6.98962C8.52971 8.36108 15.6364 9.85722 20.0001 7.86238C20.0001 9.23383 19.626 10.4806 18.8779 11.7274C16.135 15.9664 13.3923 16.4651 13.3923 16.4651Z" fill="#194099"/>
<path d="M10.8987 16.8391C9.65193 16.8391 8.65445 16.4651 8.03106 16.2157C5.61051 15.5249 3.80789 18.0418 2.49357 19.4573C2.3689 19.582 2.04654 19.582 1.79719 19.4573C1.29848 19.208 0.924387 18.834 0.79971 18.7093C0.675033 18.5846 0.301031 18.2105 0.0516761 17.7118C-0.0730013 17.4625 0.0516456 17.3378 0.176323 17.0884C1.79543 15.7007 4.4198 14.2385 3.792 11.7273C3.54264 11.1039 3.29338 10.1065 3.41806 8.85974L10.8987 16.8391Z" fill="#D8B48F"/>
<path d="M14.9072 9.25332C14.9072 10.6159 13.8055 11.6886 12.4719 11.6886C11.3122 11.6886 10.3555 10.8769 10.0945 9.80416C10.0365 9.63021 10.0366 9.42727 10.0366 9.22432C10.0366 7.8617 11.1382 6.789 12.4719 6.789C13.4286 6.789 14.2404 7.33985 14.6462 8.12263C14.8202 8.47054 14.9072 8.84743 14.9072 9.25332Z" fill="white"/>
<path opacity="0.33" d="M10.1235 10.0361C10.0366 9.77516 9.97856 9.48524 10.0076 9.22431C10.0655 9.31129 10.1525 9.39827 10.2105 9.45625C10.8483 10.0941 11.8051 10.326 12.7038 10.0361C13.7185 9.68819 14.3564 8.76045 14.3854 7.74573C14.4434 7.80371 14.4723 7.89068 14.5303 7.94867C14.6173 8.12262 14.7042 8.29657 14.7912 8.47053C15.2261 9.74617 14.5303 11.1378 13.2547 11.5727C12.3559 11.8626 11.3992 11.6306 10.7614 10.9928C10.4715 10.7319 10.2685 10.413 10.1235 10.0361Z" fill="#B7B7B7"/>
</svg>
