<svg width="20" height="20" viewBox="0 0 20 20" fill="none" xmlns="http://www.w3.org/2000/svg">
<mask id="mask0_21_12170" style="mask-type:luminance" maskUnits="userSpaceOnUse" x="0" y="0" width="20" height="20">
<path d="M10.0001 19.9991C15.4539 19.9991 19.8751 15.5779 19.8751 10.1241C19.8751 4.67024 15.4539 0.249023 10.0001 0.249023C4.54628 0.249023 0.125135 4.67024 0.125135 10.1241C0.125135 15.5779 4.54628 19.9991 10.0001 19.9991Z" fill="white"/>
</mask>
<g mask="url(#mask0_21_12170)">
<path d="M10.0001 19.9991C15.4539 19.9991 19.8751 15.5779 19.8751 10.1241C19.8751 4.67024 15.4539 0.249023 10.0001 0.249023C4.54628 0.249023 0.125135 4.67024 0.125135 10.1241C0.125135 15.5779 4.54628 19.9991 10.0001 19.9991Z" fill="#E1E1E1"/>
</g>
<mask id="mask1_21_12170" style="mask-type:luminance" maskUnits="userSpaceOnUse" x="0" y="0" width="20" height="20">
<path d="M10.0001 19.9991C15.4539 19.9991 19.8751 15.5779 19.8751 10.1241C19.8751 4.67024 15.4539 0.249023 10.0001 0.249023C4.54628 0.249023 0.125135 4.67024 0.125135 10.1241C0.125135 15.5779 4.54628 19.9991 10.0001 19.9991Z" fill="white"/>
</mask>
<g mask="url(#mask1_21_12170)">
<path fill-rule="evenodd" clip-rule="evenodd" d="M16.0383 23.1616C16.0384 23.1619 16.0385 23.1621 15.6251 23.374C15.2117 23.5859 15.2118 23.586 15.2118 23.5861L15.211 23.5846L15.2075 23.5778L15.1922 23.5487C15.1783 23.5224 15.1569 23.4825 15.1281 23.4299C15.0706 23.3248 14.9833 23.1689 14.8663 22.9695C14.6322 22.5707 14.2791 21.9979 13.8064 21.3086C12.8606 19.9294 11.4385 18.0873 9.53576 16.2385C5.72885 12.5394 0.023356 8.83604 -7.63229 8.71355L-7.61743 7.78455C0.351921 7.91206 6.27141 11.7711 10.1832 15.5721C12.1398 17.4732 13.6006 19.3656 14.5727 20.7832C15.059 21.4923 15.4237 22.0836 15.6676 22.4992C15.7896 22.707 15.8814 22.871 15.9432 22.9839C15.9741 23.0403 15.9974 23.084 16.0133 23.114L16.0315 23.1486L16.0364 23.1581L16.0383 23.1616Z" fill="#E53D0A"/>
</g>
<mask id="mask2_21_12170" style="mask-type:luminance" maskUnits="userSpaceOnUse" x="0" y="0" width="20" height="20">
<path d="M10.0001 19.9991C15.4539 19.9991 19.8751 15.5779 19.8751 10.1241C19.8751 4.67024 15.4539 0.249023 10.0001 0.249023C4.54628 0.249023 0.125135 4.67024 0.125135 10.1241C0.125135 15.5779 4.54628 19.9991 10.0001 19.9991Z" fill="white"/>
</mask>
<g mask="url(#mask2_21_12170)">
<path fill-rule="evenodd" clip-rule="evenodd" d="M1.21201 -5.41351C1.21187 -5.41379 1.21175 -5.41402 1.62516 -5.62593C2.03858 -5.83785 2.03852 -5.83796 2.03849 -5.83801L2.03858 -5.83784L2.03928 -5.83648L2.04277 -5.82976L2.05809 -5.80061C2.07201 -5.77431 2.09336 -5.73443 2.12213 -5.68186C2.17968 -5.57671 2.26693 -5.42085 2.38397 -5.22144C2.61808 -4.82257 2.97116 -4.24984 3.44384 -3.56055C4.38968 -2.18127 5.81174 -0.339226 7.71451 1.50962C11.5214 5.20864 17.2269 8.91204 24.8826 9.03453L24.8677 9.96354C16.8984 9.83603 10.9789 5.97695 7.06703 2.17599C5.11044 0.274838 3.6497 -1.61749 2.67758 -3.03508C2.19128 -3.74422 1.82658 -4.33555 1.58267 -4.75113C1.46069 -4.95895 1.36887 -5.12291 1.30709 -5.23578C1.2762 -5.29222 1.25282 -5.33589 1.23694 -5.36589L1.21873 -5.40054L1.21384 -5.40997L1.21244 -5.41267L1.21201 -5.41351Z" fill="#E53D0A"/>
</g>
<mask id="mask3_21_12170" style="mask-type:luminance" maskUnits="userSpaceOnUse" x="0" y="0" width="20" height="20">
<path d="M10.0001 19.9991C15.4539 19.9991 19.8751 15.5779 19.8751 10.1241C19.8751 4.67024 15.4539 0.249023 10.0001 0.249023C4.54628 0.249023 0.125135 4.67024 0.125135 10.1241C0.125135 15.5779 4.54628 19.9991 10.0001 19.9991Z" fill="white"/>
</mask>
<g mask="url(#mask3_21_12170)">
<path opacity="0.13" d="M-1.74985 13.7488C-1.74985 13.7488 17.8751 20.7488 21.1251 1.87378L24.2501 7.49878L24.0001 18.3737L18.3751 24.1238L9.12516 25.2487L1.37515 22.9987L-1.12485 18.6237L-1.74985 13.7488Z" fill="#494949"/>
</g>
</svg>
