<svg width="20" height="20" viewBox="0 0 20 20" fill="none" xmlns="http://www.w3.org/2000/svg">
<path d="M19.9943 12.2685L19.9055 13.5714C19.7574 15.2888 18.3953 16.6805 16.6483 16.7397C16.5003 16.7397 16.4115 16.7397 16.4115 16.7397C15.0198 16.6213 14.2499 15.3776 13.9242 14.667C13.7169 14.2228 13.3616 13.8675 12.8878 13.749C11.6441 13.3641 10.0156 13.5121 10.0156 13.5121C10.0156 13.5121 8.38696 13.3937 7.14332 13.749C6.66955 13.8971 6.31422 14.2228 6.10694 14.667C5.78123 15.3776 5.01134 16.6509 3.61964 16.7397C3.61964 16.7397 3.53083 16.7397 3.38278 16.7397C1.66536 16.6509 0.273664 15.2888 0.125611 13.5714L0.0663683 12.9495L0.00716146 12.2981C-0.0224492 11.7651 0.0367866 11.2617 0.244061 10.7584L2.13911 5.96143C2.43522 5.22117 2.99784 4.59935 3.70849 4.24402C4.53759 3.82947 5.69241 3.38531 6.93606 3.38531C7.0545 3.38531 7.26177 4.30324 7.26177 4.30324C7.32099 4.51051 7.40981 4.68818 7.76513 4.59934C7.9428 4.56973 8.17971 4.54013 8.53504 4.51052C8.86075 4.4809 9.27528 4.45129 9.80827 4.45129H9.86752C9.92674 4.45129 9.95635 4.45129 10.0156 4.45129C11.0816 4.45129 11.9106 4.54012 12.266 4.59934C12.6213 4.65856 12.6805 4.51051 12.7693 4.30324C12.7693 4.30324 12.9766 3.38531 13.095 3.38531C14.013 3.38531 14.9013 3.6222 15.6416 3.94792C15.8785 4.03675 16.1153 4.15519 16.3226 4.24402C17.0333 4.59935 17.5959 5.22117 17.892 5.96143L19.7871 10.7584C19.9351 11.2321 20.024 11.7651 19.9943 12.2685Z" fill="#444444"/>
<path opacity="0.56" d="M19.9944 12.2685L19.9055 13.5713C19.7575 15.2888 18.3954 16.6805 16.6484 16.7397C16.5003 16.7397 16.4115 16.7397 16.4115 16.7397C15.0198 16.6212 14.2499 15.3776 13.9242 14.6669C13.7169 14.2228 13.3616 13.8675 12.8878 13.749C11.6442 13.3641 10.0156 13.5121 10.0156 13.5121C10.0156 13.5121 8.387 13.3937 7.14335 13.749C6.66958 13.8971 6.31425 14.2228 6.10698 14.6669C5.78126 15.3776 5.01138 16.6508 3.61968 16.7397C3.61968 16.7397 3.53087 16.7397 3.38282 16.7397C1.6654 16.6508 0.273699 15.2888 0.125645 13.5713L0.0664024 12.9495C3.23474 12.5942 11.4961 10.9656 15.5824 3.91827C15.8193 4.00711 16.0562 4.12555 16.2634 4.21438C16.9741 4.56971 17.5367 5.19153 17.8328 5.93179L19.7279 10.7287C19.9351 11.2321 20.024 11.7651 19.9944 12.2685Z" fill="#212121"/>
<path d="M7.67635 12.8311C8.41225 12.8311 9.00882 12.2345 9.00882 11.4986C9.00882 10.7627 8.41225 10.1661 7.67635 10.1661C6.94044 10.1661 6.34387 10.7627 6.34387 11.4986C6.34387 12.2345 6.94044 12.8311 7.67635 12.8311Z" fill="#A0A0A0"/>
<path d="M12.4141 12.8311C13.15 12.8311 13.7466 12.2345 13.7466 11.4986C13.7466 10.7627 13.15 10.1661 12.4141 10.1661C11.6782 10.1661 11.0816 10.7627 11.0816 11.4986C11.0816 12.2345 11.6782 12.8311 12.4141 12.8311Z" fill="#A0A0A0"/>
<path d="M14.2795 8.00457C14.5739 8.00457 14.8125 7.76595 14.8125 7.47159C14.8125 7.17722 14.5739 6.9386 14.2795 6.9386C13.9852 6.9386 13.7466 7.17722 13.7466 7.47159C13.7466 7.76595 13.9852 8.00457 14.2795 8.00457Z" fill="#A0A0A0"/>
<path d="M15.5824 6.70167C15.8768 6.70167 16.1154 6.46304 16.1154 6.16868C16.1154 5.87431 15.8768 5.63568 15.5824 5.63568C15.288 5.63568 15.0494 5.87431 15.0494 6.16868C15.0494 6.46304 15.288 6.70167 15.5824 6.70167Z" fill="#A0A0A0"/>
<path d="M15.5824 9.33703C15.8768 9.33703 16.1154 9.09841 16.1154 8.80405C16.1154 8.50968 15.8768 8.27106 15.5824 8.27106C15.288 8.27106 15.0494 8.50968 15.0494 8.80405C15.0494 9.09841 15.288 9.33703 15.5824 9.33703Z" fill="#A0A0A0"/>
<path d="M16.9149 8.00457C17.2092 8.00457 17.4479 7.76595 17.4479 7.47159C17.4479 7.17722 17.2092 6.9386 16.9149 6.9386C16.6205 6.9386 16.3819 7.17722 16.3819 7.47159C16.3819 7.76595 16.6205 8.00457 16.9149 8.00457Z" fill="#A0A0A0"/>
<path d="M5.45557 7.58997H4.59685V6.73126C4.59685 6.49437 4.41918 6.31671 4.1823 6.31671C3.94541 6.31671 3.76774 6.49437 3.76774 6.73126V7.58997H2.90906C2.67218 7.58997 2.49451 7.76763 2.49451 8.00451C2.49451 8.2414 2.67218 8.41907 2.90906 8.41907H3.76774V9.27778C3.76774 9.51466 3.94541 9.69232 4.1823 9.69232C4.41918 9.69232 4.59685 9.51466 4.59685 9.27778V8.41907H5.45557C5.69246 8.41907 5.87013 8.2414 5.87013 8.00451C5.87013 7.76763 5.69246 7.58997 5.45557 7.58997Z" fill="#A0A0A0"/>
</svg>
