<svg width="20" height="20" viewBox="0 0 20 20" fill="none" xmlns="http://www.w3.org/2000/svg">
<path d="M3.75028 19.2307L5.03056 16.6958V3.3041L3.75028 0.769165H10.1772V14.5705H17.3468L16.0921 19.2307H3.75028Z" fill="#98670B"/>
<path fill-rule="evenodd" clip-rule="evenodd" d="M2.50001 20L4.26133 16.5126V3.4874L2.50001 0H10.9465V13.8013H18.3505L16.6816 20H2.50001ZM10.1773 14.5706V0.769231H3.75029L5.03056 3.30417V16.6958L3.75029 19.2308H16.0921L17.3468 14.5706H10.1773Z" fill="#98670B"/>
<path d="M16.7065 15.0828L16.2456 16.7728L15.7079 18.7444H4.54394L5.51695 16.7984V3.20188L4.54394 1.25586H9.69064V15.0828H16.7065Z" fill="#C28F2C"/>
<path d="M8.92248 16.7728L7.36054 15.2364V1.25586H4.54394L5.51695 3.20188V16.7984L4.54394 18.7444H15.7079L16.2456 16.7728H8.92248Z" fill="#98670B"/>
</svg>
