<svg width="20" height="20" viewBox="0 0 20 20" fill="none" xmlns="http://www.w3.org/2000/svg">
<path d="M9.25866 17.4114L6.62232 19.2707C6.09505 19.6592 5.37353 19.5759 4.92951 19.1319C4.87401 19.0764 4.81851 19.0209 4.79076 18.9654L4.37449 18.3826L3.70847 18.8544C3.62522 18.9099 3.54197 18.9654 3.43096 18.9654C3.15345 19.0209 2.8482 18.9099 2.68169 18.6601L0.128599 15.0248C-0.0379065 14.775 -0.0379082 14.4697 0.100847 14.22C0.156349 14.1367 0.211854 14.0535 0.295107 13.998L0.961128 13.5262L0.877878 13.4152C0.850127 13.3597 0.822371 13.332 0.79462 13.2765C0.711368 13.0267 0.794626 12.7492 1.01663 12.5827L4.84626 9.89083C4.98502 9.77983 5.15153 9.75208 5.31803 9.80758L5.42903 9.72433L5.70654 9.50233L5.7343 9.47457L6.42807 8.91955H6.45581C6.42806 8.86405 6.51132 8.11477 6.84433 7.06023C7.12184 6.2277 7.56585 5.22867 8.25963 4.25739C9.0644 3.14735 10.23 2.06506 11.895 1.34354C12.3945 1.12153 12.9495 1.31579 13.2271 1.7043C13.3381 1.8708 13.4213 2.06507 13.4491 2.28708C13.4491 2.39808 13.4491 2.50908 13.4491 2.64784L14.9476 1.95406C15.9466 1.51005 17.1122 1.84305 17.7227 2.75883C18.472 3.89662 19.3878 5.53393 19.7763 7.11574C19.8595 7.50425 19.915 7.86502 19.9428 8.25353C19.9705 9.11381 19.6653 9.94634 19.1103 10.5569C18.8883 10.8066 18.6107 11.0841 18.2777 11.4171C16.8624 12.7492 14.4203 14.553 10.8682 15.4965L10.785 15.5243L10.1189 15.774L10.0634 15.8018L9.73043 15.9405L9.67493 15.9683C9.95244 16.4401 9.75818 17.0783 9.25866 17.4114Z" fill="#3B67E2"/>
<path opacity="0.3" d="M4.92958 19.1317C4.87408 19.0762 4.81858 19.0207 4.79083 18.9652L4.37456 18.3824L3.98605 18.6599L0.572689 13.8312L0.961201 13.5537L0.877951 13.4427C0.8502 13.3872 0.822444 13.3595 0.794693 13.304L4.92958 19.1317Z" fill="#194099"/>
<path opacity="0.3" d="M10.2022 15.7185L10.1189 15.7462L9.81367 15.885L5.45677 9.72425L5.73428 9.50225L5.76203 9.47449L10.2022 15.7185Z" fill="#194099"/>
<path opacity="0.3" d="M10.9238 15.4411L10.8405 15.4689L10.1745 15.7186L5.76208 9.44693L6.45585 8.89191H6.4836C6.45585 8.83641 6.5391 8.08713 6.87211 7.03259C9.73046 7.89287 15.6692 9.19717 19.8318 7.0881C19.9151 7.47661 19.9706 7.83737 19.9983 8.22588C20.0261 9.08616 19.7208 9.91868 19.1658 10.5292C18.9438 10.779 18.6663 11.0565 18.3333 11.3895C16.8902 12.6938 14.4481 14.5253 10.9238 15.4411Z" fill="#194099"/>
<path d="M3.53181 10.844L2.19381 11.7877L7.20045 18.886L8.53846 17.9422L3.53181 10.844Z" fill="#221D24"/>
<path d="M3.43097 18.9653C3.15346 19.0208 2.84821 18.9098 2.6817 18.66L0.128613 15.0246C-0.0378931 14.7749 -0.0378948 14.4696 0.10086 14.2198L3.43097 18.9653Z" fill="#221D24"/>
<path opacity="0.3" d="M13.5601 2.64783C13.5601 2.64783 11.562 3.11959 10.4797 4.72915L13.5601 2.64783Z" fill="#194099"/>
</svg>
