<svg width="20" height="20" viewBox="0 0 20 20" fill="none" xmlns="http://www.w3.org/2000/svg">
<path d="M16.3261 5.23627V7.09936H8.36478L8.34557 7.08016L7.51006 5.66843L7.24116 5.23627H16.3261Z" fill="#646464"/>
<path d="M19.9902 6.04302L19.8942 6.37914L19.7021 7.0802H17.282V5.67808H19.7117C19.9038 5.66848 20.0383 5.86055 19.9902 6.04302Z" fill="#646464"/>
<path d="M3.91843 14.5903L7.38532 10.1438H4.33139L3.24618 13.1689L3.91843 14.5903Z" fill="#646464"/>
<path d="M15.9901 8.31903L13.5316 11.2961C13.3876 11.469 13.1763 11.565 12.9554 11.565H9.25803C9.02755 11.565 8.79706 11.4498 8.66261 11.2673L8.56657 11.1329L8.16322 10.5855L8.77785 9.47146L9.28684 10.1917L9.48852 10.4702H12.2351L13.8581 8.31903H15.9901Z" fill="#646464"/>
<path d="M10.8907 8.31903V10.0093C10.8907 10.0861 10.8235 10.1533 10.7466 10.1533C10.7082 10.1533 10.6698 10.1341 10.641 10.1053L9.92073 9.28899V8.31903H10.8907Z" fill="#646464"/>
<path opacity="0.35" d="M19.8942 6.37915L19.7021 7.08021H17.839V6.37915H19.8942Z" fill="#646464"/>
<path opacity="0.35" d="M15.0012 8.31903L13.407 10.4702H12.2257L13.8488 8.31903H15.0012Z" fill="#646464"/>
<path opacity="0.35" d="M9.22921 10.1149L8.52815 11.0753L8.15361 10.5855L8.76824 9.4715L9.22921 10.1149Z" fill="#646464"/>
<path d="M9.61321 8.31907L9.60361 8.32868L8.15346 10.5855H5.24358L4.06234 12.0453V15.7522C4.06234 16.1172 3.76463 16.4149 3.39969 16.4245C2.64101 16.4341 1.42136 16.4341 0.662673 16.4341C0.297737 16.4341 2.67029e-05 16.1364 2.67029e-05 15.7618V13.3321C2.67029e-05 12.9768 0.134477 12.6311 0.38417 12.3814L3.79344 8.86647V6.68646L4.81142 8.30947H9.61321V8.31907Z" fill="#464646"/>
<path opacity="0.61" d="M10.8907 8.31903H9.92073V8.72238H10.8907V8.31903Z" fill="#646464"/>
<path opacity="0.61" d="M9.6133 8.31907L9.6037 8.32868L9.354 8.72242H3.78393V6.68646L4.80191 8.31907H9.6133Z" fill="#646464"/>
<path d="M16.326 6.48482V8.3191H4.80174L2.98666 5.94702L2.33362 5.0923C2.17996 4.89063 2.32402 4.58331 2.58331 4.58331H6.97215C7.24105 4.58331 7.49074 4.71776 7.6444 4.94825L7.79806 5.17873L8.30705 5.94702L8.66238 6.48482H16.326Z" fill="#464646"/>
<path d="M18.9676 5.26509V7.64677C18.9676 8.02131 18.6698 8.31902 18.2953 8.31902H16.3266V4.59283H18.2953C18.6698 4.59283 18.9676 4.89055 18.9676 5.26509Z" fill="#464646"/>
<path d="M18.9674 5.9469V7.64673C18.9674 8.02127 18.6697 8.31898 18.2952 8.31898H4.80216L2.98709 5.9469H8.30747L8.6628 6.4847H16.3265V5.9469H18.9674Z" fill="#464646"/>
</svg>
