<svg width="20" height="20" viewBox="0 0 20 20" fill="none" xmlns="http://www.w3.org/2000/svg">
<g clip-path="url(#clip0_21_11601)">
<path d="M6.45206 0.355347H13.5827C13.5827 0.355347 13.0001 3.99556 10.0174 3.99556C7.026 3.99556 6.45206 0.355347 6.45206 0.355347Z" fill="#588FC5"/>
<path d="M6.45206 0.355347H13.5827C13.5827 0.355347 13.0001 3.99556 10.0174 3.99556C7.026 3.99556 6.45206 0.355347 6.45206 0.355347Z" fill="#997A03"/>
<path d="M13.4262 0.00869751H6.47814V0.381386H13.4262V0.00869751Z" fill="#32A866"/>
<path d="M19.9655 7.74852V8.0432C19.9655 8.06054 19.9655 8.07787 19.9568 8.08654C19.9568 8.08654 19.9568 8.08654 19.9568 8.0952C19.9568 8.10387 19.9481 8.11254 19.9481 8.11254C19.9481 8.11254 19.9481 8.11254 19.9394 8.12121C19.9307 8.12987 19.9307 8.13854 19.922 8.13854L19.9134 8.14721C19.9047 8.15588 19.896 8.15588 19.8873 8.16454C19.8786 8.17321 19.8612 8.18188 19.8438 8.18188C19.8351 8.18188 19.8177 8.19054 19.809 8.19054H16.9306V8.22521L16.9219 10.4873V10.496L16.8698 22.4914H3.14761L3.13022 18.8945L3.11282 14.4482L3.09544 10.496L3.08674 8.92725V8.19054H0.190997C0.0953416 8.19054 0.0257721 8.12121 0.0257721 8.03453V7.74852C0.0257721 7.54917 0.0344659 7.30649 0.0779455 7.11581C0.0866414 7.08114 0.0953416 7.03781 0.104038 7.01181C0.147517 6.83846 0.190995 6.67379 0.199691 6.49178C0.225778 5.85907 0.330134 4.42032 0.704058 3.51027C0.782322 3.31092 0.904062 3.12891 1.06059 2.9729C1.17364 2.85156 1.31277 2.76489 1.45191 2.67822L6.26075 0.0347294L6.28684 0.017395H6.60859C6.60859 0.017395 6.60859 0.0347294 6.60859 0.0607309C6.60859 0.0867324 6.61728 0.147403 6.62598 0.208073C6.62598 0.234075 6.63467 0.268743 6.64337 0.312079C6.7912 1.2048 7.426 3.78762 9.9913 3.78762H10.0174C10.0957 3.78762 10.1826 3.78762 10.2609 3.77895C13.1131 3.57094 13.374 0.017395 13.374 0.017395H13.7044L15.7045 1.11813L18.4872 2.65222L18.5307 2.66955C18.8611 2.85156 19.1307 3.13758 19.2785 3.49293C19.6177 4.31632 19.7394 5.58172 19.7742 6.28376C19.7742 6.3531 19.7829 6.41377 19.7829 6.47444C19.7829 6.49178 19.7829 6.50911 19.7829 6.52645C19.7829 6.55245 19.7916 6.58712 19.7916 6.61312C19.809 6.74313 19.8351 6.87313 19.8699 6.99447C19.8786 7.02914 19.8873 7.05514 19.896 7.09848C19.9047 7.14181 19.9047 7.17648 19.9134 7.21982C19.9134 7.22849 19.9133 7.24582 19.922 7.25449V7.26315C19.922 7.26315 19.922 7.26316 19.922 7.27182C19.922 7.28916 19.922 7.29782 19.922 7.31516C19.922 7.34116 19.9307 7.37583 19.9307 7.40183C19.9307 7.41916 19.9307 7.44517 19.9394 7.4625C19.9394 7.47117 19.9394 7.47117 19.9394 7.47983C19.9394 7.5145 19.9481 7.54917 19.9481 7.57517C19.9655 7.65318 19.9655 7.70518 19.9655 7.74852Z" fill="#FFCB05"/>
<path opacity="0.25" d="M19.9568 8.03447C19.9568 8.12981 19.8872 8.19048 19.7916 8.19048H16.9219V8.22515L16.9132 10.4873L16.8611 22.5H10.0348V3.80489C10.1217 3.80489 10.2 3.80489 10.2783 3.79622C13.1305 3.58821 13.3914 0.034668 13.3914 0.034668H13.7131H13.7219L18.5481 2.68682C18.8785 2.86883 19.1481 3.15485 19.2959 3.51021C19.6698 4.42026 19.7742 5.85034 19.8003 6.49171C19.809 6.66506 19.8438 6.8384 19.896 7.01175C19.9742 7.32376 19.9655 7.80046 19.9568 8.03447Z" fill="#CCA204"/>
<path d="M13.7132 0.00866737C13.6175 0.892719 13.4175 1.57743 13.1479 2.12346C12.3305 3.77889 10.8957 4.04757 10.2609 4.08224C10.1391 4.09091 10.0522 4.08224 9.99131 4.08224C9.74782 4.09091 8.86954 4.08224 8.00864 3.50154C7.22601 2.96417 6.46946 1.95011 6.27815 0.00866737H6.64338C6.64338 0.00866737 6.88686 3.70955 9.99131 3.77889C10.087 3.77889 10.1652 3.77022 10.2609 3.76155C13.1218 3.50154 13.3479 0 13.3479 0H13.7045V0.00866737H13.7132Z" fill="#32A866"/>
<g opacity="0.61">
<path d="M4.06069 6.25769L3.08675 9.8979L3.07805 9.92391L3.06935 7.59244V7.37576V7.15908L4.06069 6.25769Z" fill="#727272"/>
</g>
<path d="M3.06065 7.12442V8.19915H0.190997C0.0953416 8.19915 0.0257721 8.12981 0.0257721 8.04314V7.74846C0.0257721 7.67045 0.02577 7.58378 0.0344659 7.50578C0.0431618 7.37577 0.0605621 7.24576 0.0866499 7.12442H3.06065Z" fill="#32A866"/>
<g opacity="0.61">
<path d="M16.9394 7.15041L15.9306 6.25769L16.9133 9.92391L16.9394 7.15041Z" fill="#727272"/>
</g>
<path d="M19.9655 7.74846V8.04314C19.9655 8.06048 19.9655 8.07781 19.9568 8.08648C19.9568 8.08648 19.9568 8.08648 19.9568 8.09514C19.9568 8.10381 19.9481 8.11248 19.9481 8.11248C19.9481 8.11248 19.9482 8.11248 19.9395 8.12115C19.9308 8.12981 19.9307 8.13848 19.922 8.13848L19.9134 8.14715C19.9047 8.15582 19.896 8.15581 19.8873 8.16448C19.8786 8.17315 19.8612 8.18182 19.8438 8.18182C19.8351 8.18182 19.8177 8.19048 19.809 8.19048H16.9394V7.11575H19.922C19.9307 7.15042 19.9308 7.18509 19.9395 7.22843C19.9395 7.23709 19.9394 7.25443 19.9481 7.26309C19.9481 7.27176 19.9481 7.27176 19.9481 7.28043C19.9481 7.29776 19.9481 7.30643 19.9481 7.32377C19.9481 7.34977 19.9568 7.38444 19.9568 7.41044C19.9568 7.42777 19.9568 7.45377 19.9655 7.47111C19.9655 7.47978 19.9655 7.47977 19.9655 7.48844C19.9655 7.52311 19.9742 7.55778 19.9742 7.58378C19.9655 7.65312 19.9655 7.70512 19.9655 7.74846Z" fill="#32A866"/>
<path d="M3.10413 7.5058V7.74848H0.0257721C0.0257721 7.67047 0.02577 7.5838 0.0344659 7.5058H3.10413Z" fill="#FFCB05"/>
<path d="M19.9655 7.74848H16.9394V7.5058H19.9568C19.9568 7.54047 19.9655 7.57514 19.9655 7.60114C19.9655 7.65314 19.9655 7.70514 19.9655 7.74848Z" fill="#FFCB05"/>
</g>
<defs>
<clipPath id="clip0_21_11601">
<rect width="20" height="20" fill="white"/>
</clipPath>
</defs>
</svg>
