<svg width="24" height="24" viewBox="0 0 24 24" fill="none" xmlns="http://www.w3.org/2000/svg">
<path d="M11.9893 8.97472V7.99988" stroke="#32A866" stroke-width="1.8" stroke-linecap="round" stroke-linejoin="round"/>
<path d="M11.9893 15V16" stroke="#32A866" stroke-width="1.8" stroke-linecap="round" stroke-linejoin="round"/>
<path d="M10.2774 14.2856C10.5286 14.7226 10.9921 14.9942 11.4961 14.9995H12.5825C13.2973 15.0078 13.9037 14.4768 13.9899 13.7671C14.076 13.0575 13.6143 12.3968 12.9183 12.2338L11.0675 11.7628C10.3202 11.5802 9.86007 10.8291 10.0368 10.0804C10.1803 9.44549 10.7464 8.99598 11.3974 9.00003H12.4837C12.9882 9.00462 13.4524 9.27635 13.7034 9.71396" stroke="#32A866" stroke-width="1.8" stroke-linecap="round" stroke-linejoin="round"/>
<path d="M20.7676 14C20.9207 13.3443 20.9987 12.6733 21 12C21 7.02944 16.9706 3 12 3C7.02944 3 3 7.02944 3 12C3 16.9706 7.02944 21 12 21" stroke="#32A866" stroke-width="1.8" stroke-linecap="round" stroke-linejoin="round"/>
<path d="M19.6006 18.6001L17.6006 20.6001L15.6006 18.6001" stroke="#32A866" stroke-width="1.8" stroke-linecap="round" stroke-linejoin="round"/>
<path d="M17.6006 15.6001L17.6006 20.6001" stroke="#32A866" stroke-width="1.8" stroke-linecap="round" stroke-linejoin="round"/>
</svg>
