<svg width="20" height="20" viewBox="0 0 20 20" fill="none" xmlns="http://www.w3.org/2000/svg">
<mask id="mask0_21_11129" style="mask-type:luminance" maskUnits="userSpaceOnUse" x="0" y="0" width="20" height="20">
<path d="M10 20C15.5229 20 20 15.5228 20 10C20 4.47715 15.5229 0 10 0C4.47716 0 0 4.47715 0 10C0 15.5228 4.47716 20 10 20Z" fill="white"/>
</mask>
<g mask="url(#mask0_21_11129)">
<path d="M10 20C15.5229 20 20 15.5228 20 10C20 4.47715 15.5229 0 10 0C4.47716 0 0 4.47715 0 10C0 15.5228 4.47716 20 10 20Z" fill="#FF9829"/>
</g>
<mask id="mask1_21_11129" style="mask-type:luminance" maskUnits="userSpaceOnUse" x="0" y="0" width="20" height="20">
<path d="M10 20C15.5229 20 20 15.5228 20 10C20 4.47715 15.5229 0 10 0C4.47716 0 0 4.47715 0 10C0 15.5228 4.47716 20 10 20Z" fill="white"/>
</mask>
<g mask="url(#mask1_21_11129)">
<path fill-rule="evenodd" clip-rule="evenodd" d="M12.5829 0.00840271C12.4352 0.662546 12.0731 1.38504 11.6864 2.03461L11.6849 2.03721C10.7207 3.62956 10.4598 5.20362 10.7853 6.47433C11.1056 7.72519 12.0054 8.73213 13.483 9.21371C13.6069 9.23838 13.7659 9.28978 13.8853 9.32851L13.913 9.33749C14.0558 9.38381 14.1509 9.4147 14.1946 9.42343L14.204 9.4253L14.2132 9.42762C14.481 9.49457 14.7782 9.52343 15.1077 9.54616C15.1696 9.55043 15.2331 9.55449 15.2976 9.55863C15.5643 9.57571 15.8497 9.59399 16.1224 9.63287C17.6362 9.83806 18.829 10.2957 19.646 10.7042C20.0547 10.9086 20.37 11.1009 20.5852 11.2438C20.6928 11.3153 20.7754 11.3745 20.8323 11.4167C20.8608 11.4379 20.8828 11.4548 20.8982 11.4668C20.906 11.4729 20.9121 11.4777 20.9165 11.4813L20.922 11.4857L20.9238 11.4871L20.9247 11.4879C20.9249 11.488 20.925 11.4881 20.6708 11.7988C20.4165 12.1095 20.4166 12.1096 20.4167 12.1097L20.4152 12.1084C20.4131 12.1067 20.4094 12.1038 20.4042 12.0997C20.3937 12.0915 20.3768 12.0785 20.3537 12.0614C20.3074 12.027 20.2362 11.9759 20.1409 11.9126C19.9502 11.7859 19.6633 11.6105 19.287 11.4223C18.5341 11.0459 17.4255 10.6196 16.0132 10.4283L16.0103 10.4279C15.7712 10.3938 15.5252 10.3779 15.2612 10.3609C15.1929 10.3565 15.1234 10.352 15.0524 10.3471C14.7214 10.3243 14.3661 10.2925 14.0265 10.2085C13.9329 10.1885 13.7959 10.1438 13.6827 10.1069C13.6672 10.1019 13.6521 10.0969 13.6376 10.0922C13.4858 10.043 13.3735 10.0089 13.3182 9.99965L13.2894 9.99485L13.2616 9.98593C11.5216 9.42783 10.4018 8.21324 10.0075 6.67355C9.61657 5.1474 9.94988 3.35311 10.9973 1.62271C11.3725 0.992197 11.6808 0.358467 11.7997 -0.168448C11.9208 -0.704342 11.8221 -0.983155 11.6039 -1.13122L12.0547 -1.79559C12.6902 -1.36439 12.7287 -0.637103 12.5829 0.00840271Z" fill="#A04900"/>
</g>
<mask id="mask2_21_11129" style="mask-type:luminance" maskUnits="userSpaceOnUse" x="0" y="0" width="20" height="20">
<path d="M10 20C15.5229 20 20 15.5228 20 10C20 4.47715 15.5229 0 10 0C4.47716 0 0 4.47715 0 10C0 15.5228 4.47716 20 10 20Z" fill="white"/>
</mask>
<g mask="url(#mask2_21_11129)">
<path fill-rule="evenodd" clip-rule="evenodd" d="M21.2153 4.23376C21.2155 4.23375 21.2157 4.23374 21.2328 4.5278C21.2498 4.82185 21.25 4.82185 21.25 4.82184L21.2499 4.82185L21.249 4.82191L21.2439 4.82224C21.2391 4.82256 21.2314 4.82309 21.2211 4.82387C21.2003 4.82543 21.1686 4.82801 21.1262 4.83198C21.0413 4.83992 20.9138 4.85341 20.7465 4.87541C20.4119 4.91941 19.9182 4.99747 19.2884 5.13329C18.0288 5.40495 16.2252 5.90766 14.0613 6.83114C9.73479 8.67756 3.96346 12.2081 -1.78058 18.9459L-2.22889 18.5638C3.57809 11.7521 9.42552 8.16904 13.83 6.28932C16.0317 5.34973 17.8716 4.83623 19.1642 4.55743C19.8105 4.41804 20.3201 4.33731 20.6697 4.29133C20.8445 4.26835 20.9793 4.25404 21.0713 4.24544C21.1173 4.24114 21.1526 4.23826 21.1767 4.23644C21.1888 4.23552 21.1982 4.23487 21.2047 4.23444L21.2123 4.23394L21.2146 4.23381L21.2153 4.23376Z" fill="#A04900"/>
</g>
<mask id="mask3_21_11129" style="mask-type:luminance" maskUnits="userSpaceOnUse" x="0" y="0" width="20" height="20">
<path d="M10 20C15.5229 20 20 15.5228 20 10C20 4.47715 15.5229 0 10 0C4.47716 0 0 4.47715 0 10C0 15.5228 4.47716 20 10 20Z" fill="white"/>
</mask>
<g mask="url(#mask3_21_11129)">
<path fill-rule="evenodd" clip-rule="evenodd" d="M19.7517 20.0075C20.6378 20.2106 21.2813 20.1109 21.7015 19.7771L22.201 20.4057C21.5084 20.956 20.5723 21.0193 19.5723 20.7901C18.5671 20.5597 17.4269 20.0202 16.237 19.2586C13.8537 17.7332 11.1914 15.2651 8.88925 12.3686C6.58731 9.47247 4.62486 6.12223 3.66605 2.82252C2.70732 -0.476907 2.74023 -3.7751 4.51097 -6.49933L5.18416 -6.06176C3.586 -3.60306 3.51602 -0.571223 4.43705 2.59848C5.35801 5.7679 7.25798 9.02589 9.51779 11.8691C11.7773 14.7119 14.3762 17.1143 16.6698 18.5824C17.8184 19.3175 18.8707 19.8056 19.7517 20.0075Z" fill="#A04900"/>
</g>
<mask id="mask4_21_11129" style="mask-type:luminance" maskUnits="userSpaceOnUse" x="0" y="0" width="20" height="20">
<path d="M10 20C15.5229 20 20 15.5228 20 10C20 4.47715 15.5229 0 10 0C4.47716 0 0 4.47715 0 10C0 15.5228 4.47716 20 10 20Z" fill="white"/>
</mask>
<g mask="url(#mask4_21_11129)">
<path fill-rule="evenodd" clip-rule="evenodd" d="M-2.9403 9.84351C-2.40278 9.92856 -1.69927 9.87616 -0.98063 9.75638C1.02039 9.42288 2.82044 9.78093 4.10045 10.7119C5.39147 11.6508 6.11114 13.1438 5.97968 14.9678L5.97834 14.9865L5.97526 15.005C5.96477 15.0679 5.95796 15.1912 5.94971 15.3521C5.94937 15.3587 5.94902 15.3654 5.94867 15.3723C5.94251 15.4932 5.93456 15.6494 5.9162 15.7569C5.87975 16.1168 5.77809 16.4656 5.67564 16.7844C5.64967 16.8652 5.62387 16.9434 5.59868 17.0199C5.51875 17.2625 5.44485 17.4867 5.39053 17.7149L5.38995 17.7173C5.05138 19.101 5.03713 20.2916 5.10664 21.133C5.14139 21.5537 5.19702 21.8864 5.2432 22.1115C5.26629 22.224 5.28699 22.3095 5.30151 22.3655C5.30876 22.3935 5.31447 22.4142 5.31814 22.4271C5.31998 22.4336 5.32131 22.4381 5.32207 22.4407L5.32268 22.4427C5.32264 22.4426 5.3226 22.4425 4.93903 22.5609C4.55546 22.6794 4.55541 22.6792 4.55537 22.6791L4.55502 22.6779L4.55435 22.6757L4.55236 22.6691C4.55074 22.6636 4.54856 22.6562 4.54588 22.6468C4.54052 22.6279 4.53315 22.6012 4.52427 22.5669C4.50651 22.4984 4.48267 22.3995 4.45669 22.2729C4.40475 22.0197 4.34414 21.655 4.30647 21.1991C4.23119 20.2878 4.2474 19.0093 4.60976 17.5277C4.67273 17.2635 4.76118 16.9954 4.84316 16.7468C4.86664 16.6757 4.88959 16.6061 4.91126 16.5387C5.01292 16.2224 5.09255 15.9372 5.11866 15.6631L5.12061 15.6426L5.12464 15.6224C5.13258 15.5828 5.13938 15.4763 5.14787 15.3109C5.14825 15.3034 5.14865 15.2957 5.14904 15.2878C5.15543 15.1625 5.16339 15.0063 5.18001 14.8939C5.28709 13.3415 4.6811 12.1269 3.62821 11.3612C2.56067 10.5848 0.991813 10.2416 -0.848634 10.5484C-1.5934 10.6725 -2.39904 10.742 -3.06578 10.6365C-3.72322 10.5325 -4.38687 10.2277 -4.56697 9.48476L-3.78667 9.29559C-3.72287 9.55878 -3.48714 9.75698 -2.9403 9.84351Z" fill="#A04900"/>
</g>
<mask id="mask5_21_11129" style="mask-type:luminance" maskUnits="userSpaceOnUse" x="0" y="0" width="20" height="20">
<path d="M10 20C15.5229 20 20 15.5228 20 10C20 4.47715 15.5229 0 10 0C4.47716 0 0 4.47715 0 10C0 15.5228 4.47716 20 10 20Z" fill="white"/>
</mask>
<g mask="url(#mask5_21_11129)">
<path opacity="0.36" d="M3.10977 0.975525C3.35368 3.20115 10.6707 19.2072 20.4268 20.2743C20.4268 20.2743 9.90855 23.3231 5.94513 22.0121C1.98172 20.7011 -3.17072 18.2316 -4.17681 14.1462C-5.2134 10.0609 -3.29267 4.17674 -0.975594 2.62186C1.31099 1.0365 3.10977 0.975525 3.10977 0.975525Z" fill="#7C4614"/>
</g>
</svg>
