<svg width="20" height="20" viewBox="0 0 20 20" fill="none" xmlns="http://www.w3.org/2000/svg">
<mask id="mask0_21_11762" style="mask-type:luminance" maskUnits="userSpaceOnUse" x="0" y="0" width="20" height="20">
<path d="M9.99998 20C15.5228 20 20 15.5228 20 10C20 4.47716 15.5228 0 9.99998 0C4.47714 0 0 4.47716 0 10C0 15.5228 4.47714 20 9.99998 20Z" fill="white"/>
</mask>
<g mask="url(#mask0_21_11762)">
<path d="M9.99998 20C15.5228 20 20 15.5228 20 10C20 4.47716 15.5228 0 9.99998 0C4.47714 0 0 4.47716 0 10C0 15.5228 4.47714 20 9.99998 20Z" fill="#5B92F4"/>
</g>
<mask id="mask1_21_11762" style="mask-type:luminance" maskUnits="userSpaceOnUse" x="0" y="0" width="20" height="20">
<path d="M9.99998 20C15.5228 20 20 15.5228 20 10C20 4.47716 15.5228 0 9.99998 0C4.47714 0 0 4.47716 0 10C0 15.5228 4.47714 20 9.99998 20Z" fill="white"/>
</mask>
<g mask="url(#mask1_21_11762)">
<path d="M-0.121938 8.23171C-0.121938 8.23171 1.79879 5.73173 3.41464 5.12198C3.41464 5.12198 4.39026 3.1098 5.94513 2.01224C5.94513 2.01224 5.60976 0.457341 5.82318 0.274414L0.762214 3.65855L-0.304857 6.98172L-0.121938 8.23171Z" fill="#9BC6F9"/>
</g>
<mask id="mask2_21_11762" style="mask-type:luminance" maskUnits="userSpaceOnUse" x="0" y="0" width="20" height="20">
<path d="M9.99998 20C15.5228 20 20 15.5228 20 10C20 4.47716 15.5228 0 9.99998 0C4.47714 0 0 4.47716 0 10C0 15.5228 4.47714 20 9.99998 20Z" fill="white"/>
</mask>
<g mask="url(#mask2_21_11762)">
<path d="M12.8659 13.2317C12.7744 13.2012 13.4146 9.35973 13.3232 8.78046C13.3232 8.78046 16.7378 7.77436 17.1036 7.59143C17.1036 7.59143 18.6585 10.2439 18.689 11.4329C18.689 11.4329 16.4939 14.7256 15.9146 15.1524C15.9146 15.1524 14.0854 13.6585 12.8659 13.2317Z" fill="#194099"/>
</g>
<mask id="mask3_21_11762" style="mask-type:luminance" maskUnits="userSpaceOnUse" x="0" y="0" width="20" height="20">
<path d="M9.99998 20C15.5228 20 20 15.5228 20 10C20 4.47716 15.5228 0 9.99998 0C4.47714 0 0 4.47716 0 10C0 15.5228 4.47714 20 9.99998 20Z" fill="white"/>
</mask>
<g mask="url(#mask3_21_11762)">
<path d="M13.2926 0.365723L13.5975 1.61571C13.5975 1.61571 16.4329 2.92668 16.9512 4.08521L18.0182 3.93278C18.0182 3.93278 16.2195 1.09743 13.2926 0.365723Z" fill="#194099"/>
</g>
<mask id="mask4_21_11762" style="mask-type:luminance" maskUnits="userSpaceOnUse" x="0" y="0" width="20" height="20">
<path d="M9.99998 20C15.5228 20 20 15.5228 20 10C20 4.47716 15.5228 0 9.99998 0C4.47714 0 0 4.47716 0 10C0 15.5228 4.47714 20 9.99998 20Z" fill="white"/>
</mask>
<g mask="url(#mask4_21_11762)">
<path d="M11.0366 19.4511C11.0366 19.4511 13.9634 18.8414 15.3658 17.6523L16.067 17.9267C16.067 17.9267 14.9695 19.2682 11.5548 19.8475L11.0366 19.4511Z" fill="#194099"/>
</g>
<mask id="mask5_21_11762" style="mask-type:luminance" maskUnits="userSpaceOnUse" x="0" y="0" width="20" height="20">
<path d="M9.99998 20C15.5228 20 20 15.5228 20 10C20 4.47716 15.5228 0 9.99998 0C4.47714 0 0 4.47716 0 10C0 15.5228 4.47714 20 9.99998 20Z" fill="white"/>
</mask>
<g mask="url(#mask5_21_11762)">
<path d="M4.939 12.5306C4.939 12.5306 5.03046 8.75007 5.67071 7.98787C5.67071 7.98787 8.689 6.21957 9.54266 6.18909C9.54266 6.18909 12.9573 8.10983 13.3536 8.87202C13.3536 8.87202 12.9878 12.3781 12.8658 13.1403C12.8658 13.1403 12.1951 14.1464 8.689 15.1525C8.65851 15.1525 6.49388 14.2684 4.939 12.5306Z" fill="#9BC6F9"/>
</g>
<mask id="mask6_21_11762" style="mask-type:luminance" maskUnits="userSpaceOnUse" x="0" y="0" width="20" height="20">
<path d="M9.99998 20C15.5228 20 20 15.5228 20 10C20 4.47716 15.5228 0 9.99998 0C4.47714 0 0 4.47716 0 10C0 15.5228 4.47714 20 9.99998 20Z" fill="white"/>
</mask>
<g mask="url(#mask6_21_11762)">
<path d="M-0.487785 15.3964L1.18904 17.3171L3.75001 17.9878L4.20733 17.3476C2.86587 16.0671 2.43904 14.0244 2.43904 14.0244C1.06709 12.6525 -0.0609585 10.6708 -0.0609585 10.6708L-0.487785 15.3964Z" fill="#9BC6F9"/>
</g>
<mask id="mask7_21_11762" style="mask-type:luminance" maskUnits="userSpaceOnUse" x="0" y="0" width="20" height="20">
<path d="M9.99998 20C15.5228 20 20 15.5228 20 10C20 4.47716 15.5228 0 9.99998 0C4.47714 0 0 4.47716 0 10C0 15.5228 4.47714 20 9.99998 20Z" fill="white"/>
</mask>
<g mask="url(#mask7_21_11762)">
<path d="M15.9451 15.061C15.9451 15.061 18.0488 12.4696 18.6585 11.433L20.2439 11.6159L20.6707 13.3232L19.7561 16.4635L17.5915 18.6281L16.4939 18.1403L15.4573 17.683" fill="#9BC6F9"/>
</g>
<mask id="mask8_21_11762" style="mask-type:luminance" maskUnits="userSpaceOnUse" x="0" y="0" width="20" height="20">
<path d="M9.99998 20C15.5228 20 20 15.5228 20 10C20 4.47716 15.5228 0 9.99998 0C4.47714 0 0 4.47716 0 10C0 15.5228 4.47714 20 9.99998 20Z" fill="white"/>
</mask>
<g mask="url(#mask8_21_11762)">
<path d="M5.54875 8.10983C5.54875 8.10983 7.89632 6.52445 9.60363 6.18908C9.60363 6.18908 9.81705 3.10983 9.81705 2.50007C9.81705 2.50007 7.49997 1.73786 5.97558 1.95128C5.97558 1.95128 4.08535 3.4452 3.35364 5.21349C3.35364 5.21349 4.78656 7.71349 5.54875 8.10983Z" fill="#194099"/>
</g>
<mask id="mask9_21_11762" style="mask-type:luminance" maskUnits="userSpaceOnUse" x="0" y="0" width="20" height="20">
<path d="M9.99998 20C15.5228 20 20 15.5228 20 10C20 4.47716 15.5228 0 9.99998 0C4.47714 0 0 4.47716 0 10C0 15.5228 4.47714 20 9.99998 20Z" fill="white"/>
</mask>
<g mask="url(#mask9_21_11762)">
<path opacity="0.45" d="M9.54268 6.18909C9.54268 6.18909 12.8354 8.01835 13.3232 8.81103L17.1036 7.622C17.1036 7.622 17.1951 4.51225 16.9512 3.96347C16.9512 3.96347 15.3963 2.07325 13.75 1.58545C13.75 1.58545 10.5793 2.01227 9.87804 2.53056L9.54268 6.18909Z" fill="#2555B7"/>
</g>
<mask id="mask10_21_11762" style="mask-type:luminance" maskUnits="userSpaceOnUse" x="0" y="0" width="20" height="20">
<path d="M9.99998 20C15.5228 20 20 15.5228 20 10C20 4.47716 15.5228 0 9.99998 0C4.47714 0 0 4.47716 0 10C0 15.5228 4.47714 20 9.99998 20Z" fill="white"/>
</mask>
<g mask="url(#mask10_21_11762)">
<path opacity="0.45" d="M4.14629 17.439L3.68898 18.0792L5.1524 19.2683L7.16459 20.1219L10.3048 20.2744L11.4634 20.0914L11.7682 20L11.067 19.4817C11.067 19.4817 8.78044 18.9024 8.07922 18.2317C8.07922 18.2317 5.30483 17.9573 4.20727 17.3475" fill="#2555B7"/>
</g>
<mask id="mask11_21_11762" style="mask-type:luminance" maskUnits="userSpaceOnUse" x="0" y="0" width="20" height="20">
<path d="M9.99998 20C15.5228 20 20 15.5228 20 10C20 4.47716 15.5228 0 9.99998 0C4.47714 0 0 4.47716 0 10C0 15.5228 4.47714 20 9.99998 20Z" fill="white"/>
</mask>
<g mask="url(#mask11_21_11762)">
<path d="M2.40856 14.0244C2.40856 14.0244 3.96343 12.9573 4.93904 12.3475C4.93904 12.3475 7.68295 14.878 8.75002 15.122L8.04879 18.2317C8.04879 18.2317 6.67684 18.811 4.17685 17.4695C4.17685 17.5 2.62198 15.6097 2.40856 14.0244Z" fill="#194099"/>
</g>
</svg>
