<svg width="20" height="20" viewBox="0 0 20 20" fill="none" xmlns="http://www.w3.org/2000/svg">
<mask id="mask0_21_11750" style="mask-type:alpha" maskUnits="userSpaceOnUse" x="2" y="2" width="16" height="17">
<path d="M17.7032 2.98183C17.7032 2.98183 17.9017 3.89319 17.7624 5.34717C17.7075 5.91437 17.6014 6.55627 17.4131 7.26672C16.9538 8.97558 16.0141 11.0342 14.1337 13.1309C13.9712 13.3091 13.8087 13.4874 13.6348 13.6678C11.5549 15.8073 9.46635 16.9411 7.69633 17.524C6.99269 17.7551 6.34504 17.9048 5.76908 17.9938C4.13391 18.2494 3.0776 18.0482 3.0776 18.0482C2.83681 18.0276 2.67344 17.9453 2.5595 17.842C2.30446 17.6166 2.30334 17.2909 2.30334 17.2909C2.30334 17.2909 2.04663 16.1296 2.31401 14.3437C2.39854 13.7769 2.53653 13.1469 2.74833 12.4677C3.30084 10.7178 4.36605 8.66559 6.37063 6.59924C8.26047 4.64897 10.1694 3.53665 11.8303 2.90881C12.5 2.65432 13.1262 2.48492 13.7026 2.36624C15.6437 1.97093 16.9382 2.21101 16.9382 2.21101C16.9382 2.21101 17.169 2.20971 17.3852 2.35334C17.5263 2.47534 17.6677 2.66248 17.7032 2.98183Z" fill="#EFEFEF"/>
</mask>
<g mask="url(#mask0_21_11750)">
<path d="M17.7032 2.98183C17.7032 2.98183 17.9017 3.89319 17.7624 5.34717C17.7075 5.91437 17.6014 6.55627 17.4131 7.26672C16.9538 8.97558 16.0141 11.0342 14.1337 13.1309C13.9712 13.3091 13.8087 13.4874 13.6348 13.6678C11.5549 15.8073 9.46635 16.9411 7.69633 17.524C6.99269 17.7551 6.34504 17.9048 5.76908 17.9938C4.13391 18.2494 3.0776 18.0482 3.0776 18.0482C2.83681 18.0276 2.67344 17.9453 2.5595 17.842C2.30446 17.6166 2.30334 17.2909 2.30334 17.2909C2.30334 17.2909 2.04663 16.1296 2.31401 14.3437C2.39854 13.7769 2.53653 13.1469 2.74833 12.4677C3.30084 10.7178 4.36605 8.66559 6.37063 6.59924C8.26047 4.64897 10.1694 3.53665 11.8303 2.90881C12.5 2.65432 13.1262 2.48492 13.7026 2.36624C15.6437 1.97093 16.9382 2.21101 16.9382 2.21101C16.9382 2.21101 17.169 2.20971 17.3852 2.35334C17.5263 2.47534 17.6677 2.66248 17.7032 2.98183Z" fill="#CB5826"/>
<path opacity="0.22" d="M17.3702 2.368C8.79321 9.08954 3.8208 15.9845 2.54914 17.8498C2.29409 17.6245 2.29297 17.2988 2.29297 17.2988C2.29297 17.2988 1.13257 11.9968 6.36027 6.60711C11.5937 1.21638 16.9232 2.22567 16.9232 2.22567C16.9232 2.22567 17.1597 2.22331 17.3702 2.368Z" fill="#4D4D4D"/>
<path d="M7.69671 17.5296C6.99307 17.7608 6.34543 17.9105 5.76948 17.9995C5.10784 16.7947 3.61643 15.0445 2.30784 14.3449C2.3924 13.7781 2.53041 13.1481 2.74224 12.4688C4.69364 13.2804 6.73865 15.8761 7.69671 17.5296Z" fill="white"/>
<path d="M17.7028 5.66309C17.8392 6.33644 17.6949 7.02542 17.4273 7.70995C15.712 6.72563 12.8173 4.5202 12.0686 2.57481C12.7628 2.3979 13.4042 2.3006 13.9903 2.24805C14.7061 3.55322 16.4787 5.02418 17.7028 5.66309Z" fill="white"/>
<path d="M7.31949 12.3118C6.4931 11.5287 6.46475 10.2244 7.24303 9.40455L9.2264 7.31832C10.0093 6.49168 11.3134 6.46321 12.133 7.24158C12.9594 8.02462 12.9878 9.32896 12.2095 10.1488L10.2261 12.235C9.44317 13.0617 8.14016 13.0959 7.31949 12.3118Z" fill="#793315"/>
<path d="M9.26716 11.9207L7.58507 10.3245C7.44758 10.19 7.44268 9.97162 7.57144 9.83515C7.70593 9.69763 7.92423 9.6927 8.06066 9.82148L9.74275 11.4177C9.88024 11.5522 9.88514 11.7705 9.75638 11.907C9.62189 12.0445 9.40359 12.0495 9.26716 11.9207Z" fill="white"/>
<path d="M10.3268 10.8294L8.65048 9.23212C8.51299 9.09762 8.50809 8.87927 8.63685 8.74281C8.77134 8.60528 8.98964 8.60036 9.12606 8.72913L10.8082 10.3254C10.9456 10.4599 10.9505 10.6782 10.8218 10.8147C10.6816 10.9533 10.4633 10.9582 10.3268 10.8294Z" fill="white"/>
<path d="M11.3641 9.71262L9.68197 8.1164C9.54448 7.9819 9.53958 7.76355 9.66834 7.62708C9.80283 7.48956 10.0211 7.48463 10.1576 7.61341L11.8396 9.20963C11.9771 9.34413 11.982 9.56248 11.8533 9.69895C11.7188 9.83647 11.5005 9.8414 11.3641 9.71262Z" fill="white"/>
</g>
</svg>
