<svg width="20" height="20" viewBox="0 0 20 20" fill="none" xmlns="http://www.w3.org/2000/svg">
<path d="M10 20C15.5228 20 20 15.5228 20 10C20 4.47715 15.5228 0 10 0C4.47716 0 0 4.47715 0 10C0 15.5228 4.47716 20 10 20Z" fill="#101822"/>
<path d="M16.0582 5.83946L10.0728 13.2847L4.08744 5.83946C4.01445 5.76647 3.86847 5.83946 3.86847 5.91245V10.73C3.86847 10.803 7.66409 15.4015 8.02905 15.8395L8.10204 15.9125H8.17504H11.9707C11.9707 15.9125 12.0436 15.9125 12.0436 15.8395C12.4086 15.4015 16.2042 10.803 16.2042 10.73V5.91245C16.2772 5.76646 16.1312 5.69348 16.0582 5.83946Z" fill="#EE4856"/>
</svg>
