<svg width="20" height="20" viewBox="0 0 20 20" fill="none" xmlns="http://www.w3.org/2000/svg">
<path d="M19.9128 11.7044L19.1535 14.7417C18.5207 17.1463 14.7662 18.3696 10.3368 17.7369C9.91498 17.6947 9.45097 17.6103 8.98693 17.4837C8.77601 17.4416 8.56508 17.3994 8.35416 17.315C8.14323 17.2728 7.93231 17.1885 7.72139 17.1463C2.78575 15.712 -0.589064 12.5481 0.0858949 9.89046L0.845219 6.85314L1.89984 7.73904C3.92472 6.60004 7.29954 6.3891 10.8853 7.27499C13.4164 7.90776 15.5678 9.00458 17.0864 10.2701C17.7192 10.8185 18.2254 11.3669 18.6051 11.9575L18.7316 11.9153L19.9128 11.7044Z" fill="#5B5B5B"/>
<path opacity="0.44" d="M19.7019 12.6324L19.1956 14.6151C18.5629 17.0196 14.8084 18.243 10.379 17.6102C9.95715 17.568 9.49311 17.4837 9.02907 17.3571C8.81815 17.3149 8.60722 17.2727 8.3963 17.1884C8.18537 17.104 7.97445 17.0618 7.76352 17.0196C2.82789 15.5854 -0.5469 12.4215 0.128059 9.76383L0.634258 7.78113C-0.040701 10.4388 3.33411 13.6027 8.26975 15.0369C8.48067 15.0791 8.6916 15.1635 8.90252 15.2057C9.11345 15.2479 9.32437 15.3322 9.5353 15.3744C9.99933 15.4588 10.4212 15.5432 10.8852 15.6275C15.3146 16.2603 19.0691 15.0791 19.7019 12.6324Z" fill="#212121"/>
<path d="M19.9128 11.7044C19.1956 14.4887 14.3444 15.6277 9.07125 14.3199C3.79813 12.97 0.0858631 9.6374 0.803007 6.89538C0.845192 6.76882 0.887372 6.64227 0.929557 6.5579C1.942 4.02681 6.58235 3.01435 11.6445 4.32208C14.1335 4.95486 16.2427 6.00948 17.7614 7.27503C19.4066 8.58276 20.2924 10.228 19.9128 11.7044Z" fill="#444444"/>
<path opacity="0.44" d="M19.9128 11.7046C19.1956 14.4889 14.3444 15.6279 9.07125 14.3201C3.79813 12.9702 0.0858631 9.6376 0.803007 6.89558C0.845192 6.76903 0.887372 6.64248 0.929557 6.55811C4.00906 7.86584 11.7289 10.5657 17.7192 7.23305C19.4066 8.58297 20.2924 10.2282 19.9128 11.7046Z" fill="#212121"/>
<path opacity="0.2" d="M4.34654 5.25C4.30436 5.25 8.01663 3.56261 12.2773 5.08127C12.2773 5.08127 7.63697 2.84545 4.34654 5.25Z" fill="white"/>
</svg>
