<svg width="20" height="20" viewBox="0 0 20 20" fill="none" xmlns="http://www.w3.org/2000/svg">
<mask id="mask0_21_11690" style="mask-type:alpha" maskUnits="userSpaceOnUse" x="0" y="0" width="20" height="20">
<path d="M10 20C15.5228 20 20 15.5228 20 10C20 4.47715 15.5228 0 10 0C4.47715 0 0 4.47715 0 10C0 15.5228 4.47715 20 10 20Z" fill="#FAEE3A"/>
</mask>
<g mask="url(#mask0_21_11690)">
<path d="M10 20C15.5228 20 20 15.5228 20 10C20 4.47715 15.5228 0 10 0C4.47715 0 0 4.47715 0 10C0 15.5228 4.47715 20 10 20Z" fill="#FAEE3A"/>
<path fill-rule="evenodd" clip-rule="evenodd" d="M7.7622 20.2388C7.76068 20.2369 7.75718 20.2325 7.75296 20.2266C7.75061 20.2233 7.74483 20.2148 7.74156 20.2096C7.7364 20.201 7.72304 20.1751 7.71568 20.1576C7.70239 20.1132 7.71671 19.9345 7.7921 19.8232C7.90715 19.7548 8.08537 19.7506 8.12853 19.7661C8.14558 19.7744 8.17064 19.789 8.17892 19.7946C8.18388 19.7981 8.1921 19.8043 8.19526 19.8069C8.20137 19.8118 8.20579 19.8157 8.2073 19.8171L8.21133 19.8208L8.21187 19.8213L8.21025 19.8197L8.20459 19.8139C8.18467 19.7932 8.14262 19.7479 8.08228 19.6788C7.96219 19.5412 7.7737 19.3138 7.54928 19.0073C7.09999 18.3937 6.51016 17.4677 6.03555 16.3145C5.08803 14.0124 4.60272 10.8187 6.59788 7.37378L6.06495 7.06512C3.94768 10.7208 4.4683 14.1247 5.46605 16.5489C5.96407 17.759 6.58172 18.7283 7.05237 19.3711C7.28791 19.6928 7.48751 19.934 7.61832 20.0838C7.68343 20.1584 7.73253 20.2116 7.76132 20.2414C7.76846 20.2488 7.77554 20.256 7.78194 20.2623C7.78487 20.2651 7.78959 20.2697 7.79505 20.2746C7.79754 20.2769 7.80276 20.2815 7.80949 20.2869C7.81297 20.2897 7.82146 20.2961 7.82664 20.2998C7.83515 20.3055 7.86038 20.3202 7.87756 20.3285C7.92085 20.3441 8.09915 20.34 8.21424 20.2716C8.28968 20.1602 8.30399 19.9814 8.29065 19.9369C8.28324 19.9192 8.26978 19.8931 8.26448 19.8843C8.26106 19.8789 8.2551 19.8701 8.25251 19.8665C8.24436 19.8551 8.23665 19.8461 8.23457 19.8437L8.23439 19.8435C8.22805 19.8361 8.22091 19.8282 8.2145 19.8212L7.7622 20.2388Z" fill="#00B2F6"/>
<path fill-rule="evenodd" clip-rule="evenodd" d="M2.88796 17.1345C2.88894 17.1363 2.8894 17.1371 2.8893 17.137L2.37688 17.4786C2.32454 17.4001 1.50228 15.9337 1.10994 13.8249C0.716147 11.7083 0.750526 8.91482 2.46205 6.22528L2.98163 6.55592C1.37955 9.07348 1.33996 11.6942 1.71541 13.7122C1.90309 14.721 2.19383 15.5744 2.44112 16.1804C2.67819 16.7614 2.87011 17.1028 2.88796 17.1345Z" fill="#00B2F6"/>
<path fill-rule="evenodd" clip-rule="evenodd" d="M0.360581 6.94955C0.36068 6.94952 0.3608 6.94948 0.266133 6.65646C0.171466 6.36344 0.171631 6.36339 0.171817 6.36333L0.1723 6.36318L0.173664 6.36274L0.17797 6.36138L0.192816 6.35678C0.205456 6.35292 0.223546 6.3475 0.246853 6.34081C0.293461 6.32742 0.360965 6.30889 0.447498 6.2874C0.62051 6.24443 0.869921 6.18954 1.18075 6.14016C1.80179 6.0415 2.6716 5.96429 3.66901 6.05011C5.66912 6.2222 8.18227 7.05131 10.2133 9.66267L9.72721 10.0408C7.82336 7.59297 5.48445 6.82444 3.61621 6.6637C2.67945 6.5831 1.86102 6.65567 1.27737 6.74839C0.985848 6.7947 0.753796 6.8459 0.595932 6.8851C0.517028 6.9047 0.456741 6.92128 0.416918 6.93272C0.397008 6.93844 0.382222 6.94287 0.37279 6.94576L0.36269 6.94888L0.360708 6.94951L0.360583 6.94955L0.360581 6.94955Z" fill="#00B2F6"/>
<path fill-rule="evenodd" clip-rule="evenodd" d="M10.0223 10.3068C10.0221 10.3068 10.0219 10.3068 10 9.99964C9.97813 9.69345 9.97794 9.69251 9.97784 9.69251L9.978 9.6925L9.98017 9.69233L9.99106 9.69141C10.0012 9.69053 10.017 9.68906 10.0382 9.68685C10.0806 9.68243 10.1445 9.67503 10.2272 9.66336C10.3926 9.64 10.633 9.59959 10.9276 9.53175C11.5175 9.39594 12.3209 9.15107 13.1736 8.71577C14.8739 7.84773 16.7706 6.22401 17.572 3.17578L18.1676 3.33238C17.3122 6.58592 15.274 8.33498 13.4536 9.26428C12.546 9.72764 11.6926 9.98759 11.0658 10.1319C10.752 10.2041 10.4941 10.2476 10.3133 10.2732C10.2228 10.2859 10.1515 10.2942 10.1021 10.2994C10.0774 10.302 10.0582 10.3038 10.0447 10.3049L10.0289 10.3063L10.0243 10.3066L10.0228 10.3067L10.0223 10.3068Z" fill="#00B2F6"/>
<path fill-rule="evenodd" clip-rule="evenodd" d="M9.58806 9.55275C9.58811 9.55258 9.58816 9.55244 9.88177 9.64523C10.1737 9.73749 10.1754 9.73793 10.1754 9.73787L10.1754 9.73788L10.1753 9.73836L10.1744 9.74116L10.1705 9.75403C10.1669 9.76579 10.1615 9.78389 10.1546 9.80801C10.1407 9.85625 10.1206 9.92855 10.0965 10.0225C10.0483 10.2104 9.98418 10.4844 9.9216 10.8251C9.79628 11.5074 9.67808 12.4525 9.70513 13.5057C9.75932 15.6153 10.3931 18.1173 12.6713 19.8436L12.2993 20.3345C9.81424 18.4513 9.14624 15.7314 9.08948 13.5215C9.06106 12.4149 9.18509 11.4258 9.31588 10.7139C9.38134 10.3575 9.4487 10.0694 9.50001 9.86942C9.52566 9.76941 9.54733 9.69136 9.56276 9.63772C9.57047 9.6109 9.57664 9.59018 9.58096 9.57587L9.58604 9.55924L9.58748 9.5546L9.58792 9.55321L9.58806 9.55275Z" fill="#00B2F6"/>
<path fill-rule="evenodd" clip-rule="evenodd" d="M9.44231 14.7756C9.44209 14.7756 9.4419 14.7756 9.43785 14.4677C9.43384 14.1627 9.43367 14.1598 9.43356 14.1598L9.43372 14.1598L9.43607 14.1597L9.44793 14.1594C9.45898 14.1591 9.47628 14.1584 9.49952 14.1573C9.54602 14.1551 9.61627 14.1508 9.70788 14.1427C9.89115 14.1266 10.1597 14.0955 10.4944 14.0356C11.1642 13.9157 12.097 13.6806 13.1414 13.2206C15.2263 12.3024 17.7633 10.4853 19.5464 6.87567L20.0986 7.14843C18.2426 10.9056 15.5873 12.8164 13.3896 13.7842C12.2928 14.2673 11.3117 14.5149 10.603 14.6418C10.2485 14.7053 9.96158 14.7387 9.76174 14.7562C9.6618 14.765 9.58357 14.7698 9.52947 14.7724C9.50242 14.7738 9.4814 14.7745 9.4667 14.775L9.44945 14.7754L9.44445 14.7755L9.44287 14.7756L9.44231 14.7756Z" fill="#00B2F6"/>
<path fill-rule="evenodd" clip-rule="evenodd" d="M10.5603 18.3827C10.5601 18.3827 10.56 18.3827 10.5325 18.076C10.5051 17.7693 10.505 17.7693 10.505 17.7693L10.505 17.7693L10.5056 17.7692L10.5089 17.7689L10.5235 17.7675C10.5368 17.7662 10.5571 17.764 10.5839 17.761C10.6376 17.755 10.7177 17.7453 10.821 17.7309C11.0275 17.7022 11.3265 17.6549 11.6924 17.5809C12.425 17.4329 13.4224 17.1787 14.4825 16.7546C16.6106 15.9034 18.9425 14.3887 19.9486 11.7246L20.5248 11.9422C19.4303 14.8402 16.9101 16.4469 14.7113 17.3264C13.608 17.7677 12.5731 18.0313 11.8144 18.1846C11.4347 18.2613 11.1232 18.3107 10.9058 18.3409C10.797 18.356 10.7117 18.3664 10.653 18.373C10.6236 18.3763 10.6009 18.3787 10.5853 18.3803L10.5672 18.382L10.5622 18.3825L10.5608 18.3826L10.5603 18.3827Z" fill="#00B2F6"/>
<path fill-rule="evenodd" clip-rule="evenodd" d="M2.11878 3.58168C2.11889 3.58165 2.11902 3.58161 2.04135 3.28364C1.96367 2.98567 1.96386 2.98562 1.96407 2.98557L1.96463 2.98542L1.96622 2.98501L1.9713 2.98373L1.98894 2.97938C2.00399 2.97574 2.0256 2.97065 2.0535 2.96444C2.10931 2.95201 2.19031 2.93508 2.29446 2.91618C2.50272 2.87838 2.80378 2.83265 3.1811 2.79939C3.93538 2.73289 4.99674 2.71598 6.23186 2.91299C8.70723 3.30783 11.8709 4.56114 14.647 7.97088L14.1694 8.35972C11.5017 5.08307 8.48197 3.89555 6.13485 3.52116C4.95873 3.33356 3.94909 3.34993 3.23518 3.41287C2.8784 3.44432 2.59606 3.48736 2.40445 3.52213C2.30866 3.53952 2.23562 3.55483 2.18735 3.56558C2.16322 3.57095 2.14529 3.57518 2.13381 3.57796L2.12148 3.58099L2.119 3.58162C2.11889 3.58165 2.1188 3.58167 2.11875 3.58168L2.11878 3.58168Z" fill="#00B2F6"/>
<path fill-rule="evenodd" clip-rule="evenodd" d="M6.67779 0.455455C6.67786 0.455457 6.67796 0.45546 6.68643 0.147648C6.6949 -0.160165 6.69505 -0.160161 6.69522 -0.160156L6.69568 -0.160143L6.69705 -0.160102L6.70154 -0.159957L6.71745 -0.159362C6.7311 -0.158811 6.75081 -0.157927 6.77627 -0.156559C6.8272 -0.153823 6.9012 -0.149148 6.996 -0.141326C7.18556 -0.125683 7.4585 -0.0974357 7.7966 -0.0468745C8.47242 0.0541915 9.41081 0.244736 10.4653 0.603135C12.5727 1.31944 15.1599 2.71215 17.0285 5.41637L16.5219 5.76648C14.7514 3.20443 12.2942 1.87525 10.2671 1.18623C9.25421 0.841971 8.35273 0.658998 7.70551 0.562211C7.3821 0.513845 7.12272 0.487083 6.94535 0.472446C6.85668 0.46513 6.78856 0.460848 6.74323 0.458412C6.72057 0.457195 6.70361 0.456439 6.69264 0.455997L6.6807 0.455549L6.67817 0.455467L6.67779 0.455455Z" fill="#00B2F6"/>
<g opacity="0.36" filter="url(#filter0_f_21_11690)">
<path d="M-0.435982 4.88501C-0.236705 4.9842 12.9958 17.0197 23.1997 12.5568C23.1997 12.5568 16.8354 21.0875 12.7091 21.9344C8.58285 22.7812 2.8306 23.2099 -0.119992 20.1286C-3.07058 17.0472 -4.40395 10.9253 -3.16893 8.39113C-1.94938 5.83019 -0.435982 4.88501 -0.435982 4.88501Z" fill="#8A831A" fill-opacity="0.45"/>
</g>
</g>
<defs>
<filter id="filter0_f_21_11690" x="-4.95988" y="3.55365" width="29.4909" height="20.3298" filterUnits="userSpaceOnUse" color-interpolation-filters="sRGB">
<feFlood flood-opacity="0" result="BackgroundImageFix"/>
<feBlend mode="normal" in="SourceGraphic" in2="BackgroundImageFix" result="shape"/>
<feGaussianBlur stdDeviation="0.665681" result="effect1_foregroundBlur_21_11690"/>
</filter>
</defs>
</svg>
