<svg width="20" height="20" viewBox="0 0 20 20" fill="none" xmlns="http://www.w3.org/2000/svg">
<mask id="mask0_21_12291" style="mask-type:luminance" maskUnits="userSpaceOnUse" x="0" y="0" width="20" height="20">
<path d="M9.99998 20C15.5228 20 20 15.5228 20 10C20 4.47716 15.5228 0 9.99998 0C4.47714 0 0 4.47716 0 10C0 15.5228 4.47714 20 9.99998 20Z" fill="white"/>
</mask>
<g mask="url(#mask0_21_12291)">
<path d="M9.99998 20C15.5228 20 20 15.5228 20 10C20 4.47716 15.5228 0 9.99998 0C4.47714 0 0 4.47716 0 10C0 15.5228 4.47714 20 9.99998 20Z" fill="#E8A745"/>
</g>
<mask id="mask1_21_12291" style="mask-type:luminance" maskUnits="userSpaceOnUse" x="0" y="0" width="20" height="20">
<path d="M9.99998 20C15.5228 20 20 15.5228 20 10C20 4.47716 15.5228 0 9.99998 0C4.47714 0 0 4.47716 0 10C0 15.5228 4.47714 20 9.99998 20Z" fill="white"/>
</mask>
<g mask="url(#mask1_21_12291)">
<path d="M-0.121936 8.23171C-0.121936 8.23171 1.79879 5.73173 3.41465 5.12198C3.41465 5.12198 4.39026 3.1098 5.94514 2.01224C5.94514 2.01224 5.60976 0.457341 5.82318 0.274414L0.762216 3.65855L-0.304855 6.98172L-0.121936 8.23171Z" fill="#F6C06E"/>
</g>
<mask id="mask2_21_12291" style="mask-type:luminance" maskUnits="userSpaceOnUse" x="0" y="0" width="20" height="20">
<path d="M9.99998 20C15.5228 20 20 15.5228 20 10C20 4.47716 15.5228 0 9.99998 0C4.47714 0 0 4.47716 0 10C0 15.5228 4.47714 20 9.99998 20Z" fill="white"/>
</mask>
<g mask="url(#mask2_21_12291)">
<path d="M12.8659 13.2318C12.7744 13.2013 13.4146 9.35985 13.3232 8.78058C13.3232 8.78058 16.7378 7.77448 17.1036 7.59155C17.1036 7.59155 18.6585 10.244 18.689 11.433C18.689 11.433 16.4939 14.7257 15.9146 15.1525C15.9146 15.1525 14.0854 13.6586 12.8659 13.2318Z" fill="#D88201"/>
</g>
<mask id="mask3_21_12291" style="mask-type:luminance" maskUnits="userSpaceOnUse" x="0" y="0" width="20" height="20">
<path d="M9.99998 20C15.5228 20 20 15.5228 20 10C20 4.47716 15.5228 0 9.99998 0C4.47714 0 0 4.47716 0 10C0 15.5228 4.47714 20 9.99998 20Z" fill="white"/>
</mask>
<g mask="url(#mask3_21_12291)">
<path d="M13.2926 0.365723L13.5975 1.61571C13.5975 1.61571 16.4329 2.92668 16.9512 4.08521L18.0182 3.93278C18.0182 3.93278 16.2195 1.09743 13.2926 0.365723Z" fill="#D88201"/>
</g>
<mask id="mask4_21_12291" style="mask-type:luminance" maskUnits="userSpaceOnUse" x="0" y="0" width="20" height="20">
<path d="M9.99998 20C15.5228 20 20 15.5228 20 10C20 4.47716 15.5228 0 9.99998 0C4.47714 0 0 4.47716 0 10C0 15.5228 4.47714 20 9.99998 20Z" fill="white"/>
</mask>
<g mask="url(#mask4_21_12291)">
<path d="M11.0366 19.4513C11.0366 19.4513 13.9634 18.8415 15.3658 17.6525L16.067 17.9269C16.067 17.9269 14.9695 19.2683 11.5548 19.8476L11.0366 19.4513Z" fill="#D88201"/>
</g>
<mask id="mask5_21_12291" style="mask-type:luminance" maskUnits="userSpaceOnUse" x="0" y="0" width="20" height="20">
<path d="M9.99998 20C15.5228 20 20 15.5228 20 10C20 4.47716 15.5228 0 9.99998 0C4.47714 0 0 4.47716 0 10C0 15.5228 4.47714 20 9.99998 20Z" fill="white"/>
</mask>
<g mask="url(#mask5_21_12291)">
<path d="M4.939 12.5306C4.939 12.5306 5.03046 8.75007 5.67071 7.98787C5.67071 7.98787 8.689 6.21957 9.54266 6.18909C9.54266 6.18909 12.9573 8.10983 13.3536 8.87202C13.3536 8.87202 12.9878 12.3781 12.8658 13.1403C12.8658 13.1403 12.1951 14.1464 8.689 15.1525C8.65851 15.1525 6.49388 14.2684 4.939 12.5306Z" fill="#F6C06E"/>
</g>
<mask id="mask6_21_12291" style="mask-type:luminance" maskUnits="userSpaceOnUse" x="0" y="0" width="20" height="20">
<path d="M9.99998 20C15.5228 20 20 15.5228 20 10C20 4.47716 15.5228 0 9.99998 0C4.47714 0 0 4.47716 0 10C0 15.5228 4.47714 20 9.99998 20Z" fill="white"/>
</mask>
<g mask="url(#mask6_21_12291)">
<path d="M-0.487785 15.3964L1.18904 17.3171L3.75001 17.9878L4.20733 17.3476C2.86587 16.0671 2.43904 14.0244 2.43904 14.0244C1.06709 12.6525 -0.0609585 10.6708 -0.0609585 10.6708L-0.487785 15.3964Z" fill="#F6C06E"/>
</g>
<mask id="mask7_21_12291" style="mask-type:luminance" maskUnits="userSpaceOnUse" x="0" y="0" width="20" height="20">
<path d="M9.99998 20C15.5228 20 20 15.5228 20 10C20 4.47716 15.5228 0 9.99998 0C4.47714 0 0 4.47716 0 10C0 15.5228 4.47714 20 9.99998 20Z" fill="white"/>
</mask>
<g mask="url(#mask7_21_12291)">
<path d="M15.9451 15.061C15.9451 15.061 18.0488 12.4696 18.6585 11.433L20.2439 11.6159L20.6707 13.3232L19.7561 16.4635L17.5915 18.6281L16.4939 18.1403L15.4573 17.683" fill="#F6C06E"/>
</g>
<mask id="mask8_21_12291" style="mask-type:luminance" maskUnits="userSpaceOnUse" x="0" y="0" width="20" height="20">
<path d="M9.99998 20C15.5228 20 20 15.5228 20 10C20 4.47716 15.5228 0 9.99998 0C4.47714 0 0 4.47716 0 10C0 15.5228 4.47714 20 9.99998 20Z" fill="white"/>
</mask>
<g mask="url(#mask8_21_12291)">
<path d="M5.54875 8.10971C5.54875 8.10971 7.89631 6.52433 9.60363 6.18896C9.60363 6.18896 9.81705 3.10971 9.81705 2.49995C9.81705 2.49995 7.49997 1.73774 5.97558 1.95116C5.97558 1.95116 4.08534 3.44508 3.35364 5.21337C3.35364 5.21337 4.78656 7.71336 5.54875 8.10971Z" fill="#D88201"/>
</g>
<mask id="mask9_21_12291" style="mask-type:luminance" maskUnits="userSpaceOnUse" x="0" y="0" width="20" height="20">
<path d="M9.99998 20C15.5228 20 20 15.5228 20 10C20 4.47716 15.5228 0 9.99998 0C4.47714 0 0 4.47716 0 10C0 15.5228 4.47714 20 9.99998 20Z" fill="white"/>
</mask>
<g mask="url(#mask9_21_12291)">
<path opacity="0.45" d="M9.54268 6.18909C9.54268 6.18909 12.8354 8.01835 13.3232 8.81103L17.1036 7.622C17.1036 7.622 17.1951 4.51225 16.9512 3.96347C16.9512 3.96347 15.3963 2.07325 13.75 1.58545C13.75 1.58545 10.5793 2.01227 9.87804 2.53056L9.54268 6.18909Z" fill="#DA880C"/>
</g>
<mask id="mask10_21_12291" style="mask-type:luminance" maskUnits="userSpaceOnUse" x="0" y="0" width="20" height="20">
<path d="M9.99998 20C15.5228 20 20 15.5228 20 10C20 4.47716 15.5228 0 9.99998 0C4.47714 0 0 4.47716 0 10C0 15.5228 4.47714 20 9.99998 20Z" fill="white"/>
</mask>
<g mask="url(#mask10_21_12291)">
<path opacity="0.45" d="M4.1463 17.439L3.68898 18.0792L5.1524 19.2683L7.16459 20.1219L10.3048 20.2744L11.4634 20.0914L11.7682 20L11.067 19.4817C11.067 19.4817 8.78044 18.9024 8.07923 18.2317C8.07923 18.2317 5.30484 17.9573 4.20728 17.3475" fill="#DA880C"/>
</g>
<mask id="mask11_21_12291" style="mask-type:luminance" maskUnits="userSpaceOnUse" x="0" y="0" width="20" height="20">
<path d="M9.99998 20C15.5228 20 20 15.5228 20 10C20 4.47716 15.5228 0 9.99998 0C4.47714 0 0 4.47716 0 10C0 15.5228 4.47714 20 9.99998 20Z" fill="white"/>
</mask>
<g mask="url(#mask11_21_12291)">
<path d="M2.40856 14.0244C2.40856 14.0244 3.96343 12.9573 4.93904 12.3475C4.93904 12.3475 7.68295 14.878 8.75002 15.122L8.04879 18.2317C8.04879 18.2317 6.67684 18.811 4.17685 17.4695C4.17685 17.5 2.62198 15.6097 2.40856 14.0244Z" fill="#D88201"/>
</g>
</svg>
