<svg width="25" height="24" viewBox="0 0 25 24" fill="none" xmlns="http://www.w3.org/2000/svg">
<path fill-rule="evenodd" clip-rule="evenodd" d="M16.3 9.47182L20.523 6.35176C20.8146 6.13638 21.1894 6.1163 21.4983 6.29951C21.8072 6.48273 22 6.83949 22 7.22776V17.8944C22 19.0573 21.1493 20 20.1 20H4.9C3.85066 20 3 19.0573 3 17.8944V7.22776C3 6.8395 3.19286 6.48276 3.50176 6.29956C3.81065 6.11637 4.18546 6.13645 4.47697 6.35182L8.7 9.47182L11.7096 4.46883C11.8858 4.17593 12.1824 4 12.5001 4C12.8177 4 13.1143 4.17593 13.2905 4.46883L16.3 9.47182Z" stroke="#646464" stroke-width="1.5" stroke-linecap="round" stroke-linejoin="round"/>
</svg>
