<svg width="25" height="24" viewBox="0 0 25 24" fill="none" xmlns="http://www.w3.org/2000/svg">
<path fill-rule="evenodd" clip-rule="evenodd" d="M8.5 4L9.8 2.375C9.99 2.138 10.277 2 10.581 2H14.42C14.724 2 15.011 2.138 15.201 2.375L16.5 4V4V5C16.5 5.552 16.052 6 15.5 6H9.5C8.948 6 8.5 5.552 8.5 5V4V4H8.5Z" stroke="#646464" stroke-width="1.5" stroke-linecap="round" stroke-linejoin="round"/>
<path d="M8.5 4H6.5C5.395 4 4.5 4.895 4.5 6V19C4.5 20.105 5.395 21 6.5 21H18.5C19.605 21 20.5 20.105 20.5 19V6C20.5 4.895 19.605 4 18.5 4H16.5" stroke="#646464" stroke-width="1.5" stroke-linecap="round" stroke-linejoin="round"/>
<path d="M8.5 11H16.5" stroke="#646464" stroke-width="1.5" stroke-linecap="round" stroke-linejoin="round"/>
<path d="M8.5 16H16.5" stroke="#646464" stroke-width="1.5" stroke-linecap="round" stroke-linejoin="round"/>
</svg>
