<svg width="24" height="39" viewBox="0 0 24 39" fill="none" xmlns="http://www.w3.org/2000/svg">
<g clip-path="url(#clip0_26_21059)">
<path d="M0.113281 23.9828C0.113281 23.9828 0.916786 31.8276 3.92515 33.3871L4.06863 23.9828H0.113281V23.9828Z" fill="#BDBDBD"/>
<path d="M23.9458 23.5917C23.9458 23.5917 23.2284 31.8276 20.22 33.3871L20.0765 23.9828L23.9458 23.5917Z" fill="#BDBDBD"/>
<path d="M7.79407 14.1913H16.3156C16.3156 14.1913 15.621 18.9447 12.0514 18.9447C8.48184 18.9447 7.79407 14.1913 7.79407 14.1913Z" fill="#BDBDBD"/>
<path d="M7.67444 14.6364H16.2419C16.2419 14.6364 15.5442 19.005 11.9442 19.005C8.34421 19.005 7.67444 14.6364 7.67444 14.6364Z" fill="#24443A"/>
<path d="M7.67444 14.6364H16.2419C16.2419 14.6364 15.5442 19.005 11.9442 19.005C8.34421 19.005 7.67444 14.6364 7.67444 14.6364Z" fill="#BDBDBD"/>
<path d="M16.0465 14.219H7.70227V14.6642H16.0465V14.219V14.219Z" fill="#D8D8D8"/>
<path d="M23.9442 23.3181C23.9163 23.4016 23.9163 23.4573 23.9163 23.5407V23.8747C23.9163 23.9025 23.9163 23.9303 23.9163 23.9303V23.9581C23.9163 23.9581 23.9163 23.986 23.8884 23.986C23.8884 23.986 23.8605 23.986 23.8605 24.0138C23.8605 24.0138 23.8326 24.0416 23.8047 24.0416C23.8047 24.0416 23.7767 24.0416 23.7488 24.0416H20.2605V24.0973V26.1007V26.8242L20.2047 41.2103H3.73953L3.71163 36.8973L3.68372 31.5547L3.65581 26.8242V26.1007V24.932V24.0416H0.195349C0.0837209 24.0416 0 23.9581 0 23.8468V23.2347C0 23.1512 0 23.0955 0 23.012C0 22.9842 0 22.9564 0 22.9007C0 22.8451 0.027907 22.7894 0.027907 22.7338C0.027907 22.6781 0.055814 22.6503 0.055814 22.6225C0.0837209 22.5112 0.111628 22.372 0.139535 22.2607C0.139535 22.1773 0.167442 22.0938 0.167442 22.0103C0.195349 21.259 0.334884 19.5338 0.781395 18.4486C0.865116 18.1981 1.03256 18.0034 1.2 17.8086C1.36744 17.6694 1.53488 17.5581 1.70233 17.4747L7.45116 14.2747H7.50698H7.89767C7.89767 14.2747 7.89767 14.3025 7.89767 14.3303C7.89767 14.3581 7.89767 14.4416 7.92558 14.4973C7.92558 14.5251 7.92558 14.5807 7.95349 14.6086C8.12093 15.666 8.90233 18.7825 11.9721 18.7825H12C12.1116 18.7825 12.1953 18.7825 12.2791 18.7825C15.7116 18.532 16.0465 14.2747 16.0465 14.2747H16.4372L18.8372 15.6103L22.186 17.4468L22.2419 17.4747C22.6326 17.6973 22.9674 18.0312 23.1349 18.4764C23.5814 19.5616 23.7209 21.2868 23.7488 22.0381C23.7488 22.2607 23.8046 22.4555 23.8605 22.6781C23.8605 22.7338 23.8884 22.7616 23.8884 22.7894C23.9163 22.9286 23.9442 23.1234 23.9442 23.3181Z" fill="#1B9F82"/>
<path opacity="0.25" d="M23.9441 23.3181C23.9162 23.4016 23.9162 23.4573 23.9162 23.5407V23.7634H20.5395V24.0694H20.2604V24.1251V26.1286V26.8521L20.2046 41.2103H11.972V18.7825H12C12.1116 18.7825 12.1953 18.7825 12.279 18.7825C15.7116 18.532 16.0465 14.2747 16.0465 14.2747H16.4372L18.8372 15.6103L22.186 17.4468L22.2418 17.4747C22.6325 17.6973 22.9674 18.0312 23.1348 18.4764C23.5813 19.5616 23.7209 21.2868 23.7488 22.0381C23.7488 22.2607 23.8046 22.4555 23.8604 22.6781C23.8604 22.7338 23.8883 22.7616 23.8883 22.7894C23.9162 22.9286 23.9441 23.1234 23.9441 23.3181Z" fill="#054230"/>
<g opacity="0.25">
<g opacity="0.75">
<path d="M4.85581 22.4555L3.68372 26.8242V26.8799V24.0694V23.7912V23.5129L4.85581 22.4555Z" fill="#053A28"/>
</g>
<g opacity="0.75">
<path d="M20.2604 23.5129L19.0604 22.4555L20.2604 26.852V23.5129Z" fill="#053A28"/>
</g>
</g>
<path d="M3.62791 23.4851V24.0416H0.195349C0.0837209 24.0416 0 23.9581 0 23.8468V23.4573H3.62791V23.4851Z" fill="#F2F2F2"/>
<path d="M20.2605 23.4851V24.0416H23.6931C23.8047 24.0416 23.8884 23.9581 23.8884 23.8468V23.4573H20.2605V23.4851Z" fill="#F2F2F2"/>
<path d="M16.4094 14.219C16.2977 15.2764 16.0466 16.1112 15.7396 16.7512C14.7628 18.7268 13.0326 19.0607 12.2791 19.0886C12.1396 19.0886 12.028 19.0886 11.9442 19.0886C11.6652 19.0886 10.6047 19.0886 9.57215 18.3929C8.62331 17.7529 7.73029 16.5286 7.47913 14.1912H7.92564C7.92564 14.1912 8.20471 18.6433 11.9442 18.699C12.0559 18.699 12.1675 18.699 12.2791 18.6712C15.6838 18.4207 15.9628 14.219 15.9628 14.219H16.4094Z" fill="#F2F2F2"/>
<path d="M15.4278 11.4167V15.1651C15.4278 16.1761 14.6051 16.9916 13.5959 16.9916H10.3915C9.37755 16.9916 8.55969 16.1714 8.55969 15.1651V11.4167H15.4278Z" fill="#BDBDBD"/>
<path opacity="0.55" d="M15.4278 10.773V12.8188C14.6816 13.9157 13.4238 14.6358 11.9937 14.6358C10.5637 14.6358 9.3058 13.9157 8.55969 12.8141V10.7682H15.4278V10.773Z" fill="#626262"/>
<path d="M7.53616 6.82904L7.19181 6.52383C7.12485 6.44753 7.02441 6.39984 6.91919 6.39984C6.72788 6.39984 6.57483 6.55244 6.57483 6.7432V8.84629C6.57483 9.06566 6.65135 9.28026 6.79005 9.45194L6.9718 9.67608C7.07702 9.80484 7.23485 9.87637 7.39746 9.87637H7.53138V6.82904H7.53616Z" fill="#BDBDBD"/>
<path d="M16.4513 6.82904L16.7957 6.52383C16.8626 6.44753 16.963 6.39984 17.0683 6.39984C17.2596 6.39984 17.4126 6.55244 17.4126 6.7432V8.84629C17.4126 9.06566 17.3361 9.28026 17.1974 9.45194L17.0157 9.67608C16.9104 9.80484 16.7526 9.87637 16.59 9.87637H16.4561V6.82904H16.4513Z" fill="#AAA9A9"/>
<path d="M16.4513 2.7755C16.456 2.81366 16.456 2.85181 16.456 2.89473V9.93364C16.456 10.7348 16.1739 11.3071 15.6669 11.9127L14.7103 13.0525C14.3564 13.4722 13.8447 13.7154 13.3042 13.7154H10.6785C10.138 13.7154 9.62625 13.4722 9.27232 13.0525L8.31577 11.9127C7.80879 11.3071 7.52661 10.7348 7.52661 9.93364V2.89473C7.52661 2.84227 7.53139 2.78504 7.53618 2.73258H7.53139C7.53139 2.73258 7.76575 0.0810714 11.9555 0C11.9985 0 12.0463 0 12.0894 0C12.0989 0 12.1133 0 12.1229 0C12.1372 0 12.1468 0 12.1611 0C16.2217 0.0286135 16.4513 2.78027 16.4513 2.78027V2.78027V2.7755Z" fill="#BDBDBD"/>
<path opacity="0.15" d="M16.4512 2.7755C16.456 2.81366 16.456 2.85181 16.456 2.89473V9.93364C16.456 10.7348 16.1738 11.3071 15.6668 11.9127L14.7103 13.0525C14.3563 13.4722 13.8446 13.7154 13.3041 13.7154H11.9697V0C12.0128 0 12.0606 0 12.1036 0C12.1132 0 12.1276 0 12.1371 0C12.1515 0 12.161 0 12.1754 0C16.236 0.0286135 16.4655 2.78027 16.4655 2.78027H16.4512V2.7755Z" fill="#626262"/>
</g>
<defs>
<clipPath id="clip0_26_21059">
<rect width="24" height="38.4" fill="white"/>
</clipPath>
</defs>
</svg>
