<svg width="218" height="24" viewBox="0 0 218 24" fill="none" xmlns="http://www.w3.org/2000/svg">
<path d="M48.3631 7.17013V12.4614H51.8973C52.8096 12.4614 53.5313 12.2171 54.0634 11.7271C54.5954 11.2372 54.8615 10.6027 54.8615 9.82311C54.8615 9.04352 54.5954 8.40639 54.0634 7.91206C53.5313 7.41772 52.8096 7.17013 51.8973 7.17013H48.3631ZM55.1894 23.5293L51.1992 16.5547H48.3631V23.5293H43.9453V3.07683H52.1967C54.2487 3.07683 55.9518 3.71647 57.3056 4.99491C58.6594 6.27403 59.3362 7.8928 59.3362 9.85124C59.3362 11.1732 59.0036 12.3546 58.3386 13.3958C57.6737 14.437 56.7663 15.2379 55.6169 15.7987L60.1343 23.5293H55.1894Z" fill="white"/>
<path d="M68.505 10.9498C67.5643 10.9498 66.7665 11.2115 66.1108 11.7346C65.4555 12.2577 65.004 12.9895 64.757 13.9309H72.3955C72.101 12.9709 71.6188 12.2335 70.949 11.7206C70.2793 11.207 69.4646 10.9498 68.505 10.9498ZM76.6564 15.5855C76.6564 16.0134 76.6279 16.4317 76.5711 16.8404H64.6429C64.8234 17.9149 65.2536 18.7399 65.9328 19.3149C66.6118 19.8906 67.4695 20.1784 68.505 20.1784C69.2364 20.1784 69.8946 20.0165 70.4787 19.6929C71.0631 19.37 71.5166 18.9228 71.8396 18.3523H76.3145C75.7445 20.0734 74.7561 21.4402 73.3503 22.4527C71.9441 23.4658 70.3292 23.9717 68.505 23.9717C66.9751 23.9717 65.5858 23.6084 64.3365 22.8806C63.0872 22.1534 62.1065 21.1531 61.394 19.8784C60.6815 18.6043 60.3252 17.1921 60.3252 15.6424C60.3252 14.0831 60.679 12.6665 61.3866 11.3924C62.0943 10.1183 63.0732 9.11996 64.3224 8.39729C65.5714 7.67445 66.9659 7.3132 68.505 7.3132C70.0818 7.3132 71.4977 7.68667 72.7518 8.43245C74.0059 9.17939 74.9699 10.1798 75.6448 11.4353C76.319 12.6901 76.6564 14.0736 76.6564 15.5855Z" fill="white"/>
<path d="M93.9906 18.7369C94.8028 19.555 95.8267 19.9636 97.0616 19.9636C98.2965 19.9636 99.3203 19.5523 100.133 18.7299C100.945 17.9074 101.351 16.8782 101.351 15.642C101.351 14.4062 100.945 13.3765 100.133 12.5541C99.3203 11.7316 98.2965 11.3203 97.0616 11.3203C95.8267 11.3203 94.8028 11.7296 93.9906 12.547C93.1784 13.365 92.7723 14.3967 92.7723 15.642C92.7723 16.8879 93.1784 17.9195 93.9906 18.7369ZM101.038 3.0768H105.299V23.5293H102.149L101.65 22.2168C100.254 23.4059 98.6056 24 96.7053 24C94.3206 24 92.3447 23.2063 90.7772 21.6182C89.2096 20.0301 88.4258 18.0378 88.4258 15.642C88.4258 14.4631 88.6344 13.3579 89.0527 12.3257C89.4707 11.294 90.0432 10.4127 90.7698 9.68046C91.4967 8.94808 92.3732 8.37054 93.3992 7.94718C94.4252 7.52432 95.5273 7.31273 96.7053 7.31273C98.3108 7.31273 99.7551 7.74563 101.038 8.61043V3.0768Z" fill="white"/>
<path d="M112.903 18.7591C113.692 19.5625 114.699 19.9641 115.924 19.9641C117.15 19.9641 118.156 19.5625 118.945 18.7591C119.734 17.9558 120.128 16.9165 120.128 15.6424C120.128 14.3683 119.734 13.3298 118.945 12.5264C118.156 11.7224 117.15 11.3208 115.924 11.3208C114.699 11.3208 113.692 11.7224 112.903 12.5264C112.114 13.3298 111.72 14.3683 111.72 15.6424C111.72 16.9165 112.114 17.9558 112.903 18.7591ZM115.924 23.9717C114.318 23.9717 112.865 23.6104 111.564 22.8883C110.262 22.1656 109.243 21.1672 108.507 19.8931C107.77 18.6183 107.402 17.2018 107.402 15.6424C107.402 14.064 107.77 12.6403 108.507 11.3707C109.243 10.1018 110.262 9.10791 111.564 8.39026C112.865 7.67194 114.318 7.3132 115.924 7.3132C117.52 7.3132 118.969 7.67194 120.271 8.39026C121.572 9.10791 122.593 10.1036 123.334 11.3777C124.076 12.6525 124.446 14.0736 124.446 15.6424C124.446 17.2018 124.076 18.6183 123.334 19.8931C122.593 21.1672 121.572 22.1656 120.271 22.8883C118.969 23.6104 117.52 23.9717 115.924 23.9717Z" fill="white"/>
<path d="M137.092 13.0466C137.956 13.0466 138.659 12.7702 139.201 12.219C139.743 11.6677 140.013 10.9641 140.013 10.1084C140.013 9.25261 139.745 8.5517 139.208 8.00413C138.671 7.4579 137.966 7.18419 137.092 7.18419H133.843V13.0466H137.092ZM137.291 3.07683C138.64 3.07683 139.864 3.37865 140.961 3.98247C142.058 4.58629 142.923 5.42798 143.554 6.50689C144.186 7.58579 144.502 8.7864 144.502 10.1084C144.502 12.1244 143.813 13.8001 142.436 15.1354C141.058 16.4716 139.343 17.1399 137.291 17.1399H133.843V23.5293H129.425V3.07683H137.291Z" fill="white"/>
<path d="M146.264 9.57051H150.525V23.5293H146.264V9.57051Z" fill="white"/>
<path d="M161.605 19.7353H163.543V23.5293H160.522C158.793 23.5293 157.427 23.0279 156.425 22.0244C155.422 21.0215 154.921 19.6451 154.921 17.8959V11.1777H152.071V9.70861L158.324 3.07683H159.111V7.7547H163.458V11.1777H159.182V17.3254C159.182 18.0954 159.391 18.6895 159.81 19.1079C160.228 19.5262 160.826 19.7353 161.605 19.7353Z" fill="white"/>
<path d="M169.835 18.7015C170.647 19.5247 171.671 19.9353 172.906 19.9353C174.141 19.9353 175.165 19.5267 175.977 18.7092C176.789 17.8911 177.196 16.8596 177.196 15.6143C177.196 14.3683 176.789 13.3366 175.977 12.5187C175.165 11.7013 174.141 11.2927 172.906 11.2927C171.671 11.2927 170.647 11.7038 169.835 12.5264C169.023 13.3489 168.617 14.3779 168.617 15.6143C168.617 16.8499 169.023 17.8796 169.835 18.7015ZM178.193 7.72702H181.385V23.5009H178.036L177.666 22.0894C176.231 23.3443 174.531 23.9717 172.564 23.9717C171.006 23.9717 169.595 23.6103 168.332 22.8883C167.068 22.1656 166.08 21.1645 165.368 19.8854C164.655 18.607 164.299 17.1825 164.299 15.6143C164.299 14.0543 164.655 12.6403 165.368 11.3707C166.08 10.1018 167.068 9.10775 168.332 8.39026C169.595 7.67194 171.006 7.3132 172.564 7.3132C174.569 7.3132 176.293 7.95468 177.737 9.23832L178.193 7.72702Z" fill="white"/>
<path d="M191.866 23.9717C190.698 23.9717 189.595 23.7556 188.56 23.3232C187.524 22.8901 186.636 22.303 185.895 21.5618C185.154 20.8198 184.57 19.9308 184.142 18.8947C183.715 17.858 183.501 16.7597 183.501 15.5996C183.501 14.44 183.715 13.3464 184.142 12.3192C184.57 11.2927 185.154 10.4131 185.895 9.68093C186.636 8.94855 187.527 8.37101 188.567 7.94765C189.607 7.5248 190.717 7.3132 191.895 7.3132C193.927 7.3132 195.673 7.9048 197.132 9.08866C198.59 10.2725 199.514 11.8394 199.903 13.7883H195.671C195.329 13.0085 194.821 12.4029 194.146 11.97C193.471 11.5376 192.712 11.3208 191.866 11.3208C190.717 11.3208 189.754 11.7319 188.98 12.5545C188.206 13.377 187.819 14.3971 187.819 15.6143C187.819 16.8313 188.208 17.8605 188.988 18.7015C189.766 19.5432 190.726 19.9641 191.866 19.9641C192.73 19.9641 193.491 19.7357 194.146 19.2797C194.802 18.8231 195.31 18.1719 195.671 17.3258H199.961C199.59 19.3129 198.661 20.9176 197.174 22.1393C195.688 23.3608 193.918 23.9717 191.866 23.9717Z" fill="white"/>
<path d="M206.457 18.7591C207.245 19.5625 208.252 19.9641 209.478 19.9641C210.703 19.9641 211.71 19.5625 212.499 18.7591C213.287 17.9558 213.682 16.9165 213.682 15.6424C213.682 14.3683 213.287 13.3298 212.499 12.5264C211.71 11.7224 210.703 11.3208 209.478 11.3208C208.252 11.3208 207.245 11.7224 206.457 12.5264C205.668 13.3298 205.274 14.3683 205.274 15.6424C205.274 16.9165 205.668 17.9558 206.457 18.7591ZM209.478 23.9717C207.872 23.9717 206.419 23.6104 205.117 22.8883C203.815 22.1656 202.796 21.1672 202.06 19.8931C201.324 18.6183 200.956 17.2018 200.956 15.6424C200.956 14.064 201.324 12.6403 202.06 11.3707C202.796 10.1018 203.815 9.10791 205.117 8.39026C206.419 7.67194 207.872 7.3132 209.478 7.3132C211.074 7.3132 212.523 7.67194 213.824 8.39026C215.126 9.10791 216.147 10.1036 216.888 11.3777C217.629 12.6525 218 14.0736 218 15.6424C218 17.2018 217.629 18.6183 216.888 19.8931C216.147 21.1672 215.126 22.1656 213.824 22.8883C212.523 23.6104 211.074 23.9717 209.478 23.9717Z" fill="white"/>
<path d="M150.51 3.07682H146.264V7.32715H150.51V3.07682Z" fill="white"/>
<path d="M78.7588 9.57051H83.02V23.5293H78.7588V9.57051Z" fill="white"/>
<path d="M83.0056 3.07682H78.7588V7.32715H83.0056V3.07682Z" fill="white"/>
<path d="M28.1291 8.17811V14.5583C28.1291 14.5583 24.505 14.0383 21.7798 13.8162L21.7826 9.53105C21.7826 9.53105 24.6316 9.52754 25.1846 9.53105H25.1834C24.2088 8.29211 17.5581 0.0137622 17.5445 -0.000132093C17.531 0.0137622 10.8801 8.29211 9.90546 9.53105H9.90429C10.4573 9.52754 13.3061 9.53105 13.3061 9.53105L13.3091 13.8162C10.5839 14.0383 6.9598 14.5583 6.9598 14.5583V8.17811L0 10.439V23.5156H17.5443H35.0889V10.439L28.1291 8.17811Z" fill="white"/>
</svg>
